<ttFont>
    <TTGlyph name="A" xMin="26" yMin="-14" xMax="535" yMax="744">
      <contour>
        <pt x="535" y="148" on="1"/>
        <pt x="535" y="128" on="0"/>
        <pt x="528" y="72" on="0"/>
        <pt x="508" y="21" on="0"/>
        <pt x="474" y="-14" on="0"/>
        <pt x="446" y="-14" on="1"/>
        <pt x="409" y="-14" on="0"/>
        <pt x="372" y="40" on="0"/>
        <pt x="356" y="115" on="0"/>
        <pt x="353" y="193" on="0"/>
        <pt x="352" y="216" on="1"/>
        <pt x="280" y="204" on="0"/>
        <pt x="210" y="195" on="1"/>
        <pt x="208" y="172" on="0"/>
        <pt x="195" y="104" on="0"/>
        <pt x="168" y="41" on="0"/>
        <pt x="125" y="-5" on="0"/>
        <pt x="94" y="-5" on="1"/>
        <pt x="70" y="-5" on="0"/>
        <pt x="43" y="30" on="0"/>
        <pt x="29" y="78" on="0"/>
        <pt x="26" y="129" on="0"/>
        <pt x="26" y="146" on="1"/>
        <pt x="26" y="203" on="0"/>
        <pt x="44" y="314" on="0"/>
        <pt x="56" y="369" on="1"/>
        <pt x="62" y="398" on="0"/>
        <pt x="82" y="476" on="0"/>
        <pt x="111" y="559" on="0"/>
        <pt x="150" y="640" on="0"/>
        <pt x="200" y="704" on="0"/>
        <pt x="264" y="744" on="0"/>
        <pt x="303" y="744" on="1"/>
        <pt x="341" y="744" on="0"/>
        <pt x="397" y="710" on="0"/>
        <pt x="439" y="654" on="0"/>
        <pt x="467" y="583" on="0"/>
        <pt x="486" y="510" on="0"/>
        <pt x="499" y="440" on="0"/>
        <pt x="504" y="413" on="1"/>
        <pt x="517" y="348" on="0"/>
        <pt x="535" y="215" on="0"/>
      </contour>
      <contour>
        <pt x="342" y="391" on="1"/>
        <pt x="342" y="403" on="0"/>
        <pt x="339" y="458" on="0"/>
        <pt x="329" y="513" on="0"/>
        <pt x="308" y="556" on="0"/>
        <pt x="290" y="556" on="1"/>
        <pt x="280" y="556" on="0"/>
        <pt x="262" y="529" on="0"/>
        <pt x="248" y="488" on="0"/>
        <pt x="237" y="438" on="0"/>
        <pt x="229" y="392" on="0"/>
        <pt x="225" y="355" on="0"/>
        <pt x="224" y="347" on="1"/>
        <pt x="284" y="352" on="0"/>
        <pt x="342" y="362" on="1"/>
      </contour>
    </TTGlyph>
    <TTGlyph name="AE" xMin="26" yMin="6" xMax="830" yMax="755">
      <contour>
        <pt x="830" y="118" on="1"/>
        <pt x="830" y="94" on="0"/>
        <pt x="803" y="64" on="0"/>
        <pt x="782" y="56" on="1"/>
        <pt x="774" y="53" on="0"/>
        <pt x="727" y="44" on="0"/>
        <pt x="664" y="34" on="0"/>
        <pt x="591" y="24" on="0"/>
        <pt x="524" y="16" on="0"/>
        <pt x="469" y="11" on="0"/>
        <pt x="456" y="11" on="1"/>
        <pt x="442" y="11" on="0"/>
        <pt x="416" y="15" on="0"/>
        <pt x="393" y="25" on="0"/>
        <pt x="376" y="43" on="0"/>
        <pt x="372" y="57" on="1"/>
        <pt x="367" y="73" on="0"/>
        <pt x="364" y="117" on="0"/>
        <pt x="364" y="164" on="0"/>
        <pt x="365" y="209" on="0"/>
        <pt x="365" y="226" on="1"/>
        <pt x="326" y="221" on="0"/>
        <pt x="248" y="211" on="0"/>
        <pt x="210" y="206" on="1"/>
        <pt x="208" y="191" on="0"/>
        <pt x="201" y="146" on="0"/>
        <pt x="189" y="99" on="0"/>
        <pt x="172" y="58" on="0"/>
        <pt x="162" y="46" on="1"/>
        <pt x="148" y="32" on="0"/>
        <pt x="115" y="6" on="0"/>
        <pt x="94" y="6" on="1"/>
        <pt x="70" y="6" on="0"/>
        <pt x="43" y="41" on="0"/>
        <pt x="29" y="89" on="0"/>
        <pt x="26" y="141" on="0"/>
        <pt x="26" y="158" on="1"/>
        <pt x="26" y="201" on="0"/>
        <pt x="40" y="322" on="0"/>
        <pt x="69" y="455" on="0"/>
        <pt x="115" y="586" on="0"/>
        <pt x="178" y="690" on="0"/>
        <pt x="260" y="755" on="0"/>
        <pt x="312" y="755" on="1"/>
        <pt x="394" y="755" on="0"/>
        <pt x="447" y="699" on="1"/>
        <pt x="451" y="695" on="0"/>
        <pt x="478" y="692" on="0"/>
        <pt x="511" y="691" on="0"/>
        <pt x="541" y="692" on="0"/>
        <pt x="549" y="692" on="1"/>
        <pt x="562" y="692" on="0"/>
        <pt x="612" y="692" on="0"/>
        <pt x="670" y="689" on="0"/>
        <pt x="730" y="680" on="0"/>
        <pt x="779" y="662" on="0"/>
        <pt x="810" y="633" on="0"/>
        <pt x="810" y="611" on="1"/>
        <pt x="810" y="585" on="0"/>
        <pt x="773" y="557" on="0"/>
        <pt x="750" y="552" on="1"/>
        <pt x="692" y="539" on="0"/>
        <pt x="563" y="537" on="0"/>
        <pt x="504" y="534" on="1"/>
        <pt x="509" y="511" on="0"/>
        <pt x="518" y="464" on="0"/>
        <pt x="520" y="441" on="1"/>
        <pt x="520" y="436" on="0"/>
        <pt x="521" y="421" on="0"/>
        <pt x="521" y="415" on="1"/>
        <pt x="521" y="407" on="0"/>
        <pt x="522" y="400" on="1"/>
        <pt x="547" y="399" on="0"/>
        <pt x="568" y="398" on="1"/>
        <pt x="586" y="397" on="0"/>
        <pt x="620" y="396" on="0"/>
        <pt x="626" y="396" on="1"/>
        <pt x="648" y="396" on="0"/>
        <pt x="694" y="397" on="0"/>
        <pt x="717" y="392" on="1"/>
        <pt x="741" y="387" on="0"/>
        <pt x="768" y="352" on="0"/>
        <pt x="768" y="328" on="1"/>
        <pt x="768" y="313" on="0"/>
        <pt x="755" y="289" on="0"/>
        <pt x="740" y="285" on="1"/>
        <pt x="726" y="281" on="0"/>
        <pt x="685" y="275" on="0"/>
        <pt x="642" y="271" on="0"/>
        <pt x="600" y="267" on="0"/>
        <pt x="584" y="266" on="1"/>
        <pt x="582" y="266" on="0"/>
        <pt x="566" y="264" on="0"/>
        <pt x="548" y="261" on="0"/>
        <pt x="534" y="257" on="0"/>
        <pt x="534" y="254" on="1"/>
        <pt x="534" y="246" on="0"/>
        <pt x="535" y="227" on="0"/>
        <pt x="535" y="218" on="1"/>
        <pt x="535" y="207" on="0"/>
        <pt x="534" y="182" on="0"/>
        <pt x="534" y="171" on="1"/>
        <pt x="534" y="170" on="0"/>
        <pt x="538" y="169" on="0"/>
        <pt x="546" y="169" on="1"/>
        <pt x="600" y="167" on="0"/>
        <pt x="707" y="173" on="0"/>
        <pt x="761" y="173" on="1"/>
        <pt x="779" y="173" on="1"/>
        <pt x="802" y="171" on="0"/>
        <pt x="830" y="141" on="0"/>
      </contour>
      <contour>
        <pt x="364" y="401" on="1"/>
        <pt x="364" y="413" on="0"/>
        <pt x="361" y="468" on="0"/>
        <pt x="350" y="525" on="0"/>
        <pt x="329" y="569" on="0"/>
        <pt x="311" y="569" on="1"/>
        <pt x="301" y="569" on="0"/>
        <pt x="281" y="542" on="0"/>
        <pt x="262" y="501" on="0"/>
        <pt x="246" y="451" on="0"/>
        <pt x="234" y="404" on="0"/>
        <pt x="225" y="366" on="0"/>
        <pt x="224" y="358" on="1"/>
        <pt x="293" y="364" on="0"/>
        <pt x="362" y="373" on="1"/>
        <pt x="364" y="380" on="0"/>
        <pt x="364" y="393" on="0"/>
      </contour>
    </TTGlyph>
    <TTGlyph name="Aacute" xMin="26" yMin="-14" xMax="535" yMax="949">
      <component glyphName="A" x="0" y="0" flags="0x204"/>
      <component glyphName="acute" x="215" y="174" flags="0x4"/>
    </TTGlyph>
    <TTGlyph name="Acircumflex" xMin="26" yMin="-14" xMax="535" yMax="941">
      <component glyphName="A" x="0" y="0" flags="0x204"/>
      <component glyphName="circumflex" x="143" y="184" flags="0x4"/>
    </TTGlyph>
    <TTGlyph name="Adieresis" xMin="26" yMin="-14" xMax="535" yMax="954">
      <component glyphName="A" x="0" y="0" flags="0x204"/>
      <component glyphName="dieresis" x="113" y="225" flags="0x4"/>
    </TTGlyph>
    <TTGlyph name="Agrave" xMin="26" yMin="-14" xMax="535" yMax="942">
      <component glyphName="A" x="0" y="0" flags="0x204"/>
      <component glyphName="grave" x="184" y="174" flags="0x4"/>
    </TTGlyph>
    <TTGlyph name="Aring" xMin="26" yMin="-14" xMax="535" yMax="905">
      <contour>
        <pt x="342" y="391" on="1"/>
        <pt x="342" y="403" on="0"/>
        <pt x="339" y="458" on="0"/>
        <pt x="329" y="513" on="0"/>
        <pt x="308" y="556" on="0"/>
        <pt x="290" y="556" on="1"/>
        <pt x="280" y="556" on="0"/>
        <pt x="262" y="529" on="0"/>
        <pt x="248" y="488" on="0"/>
        <pt x="237" y="438" on="0"/>
        <pt x="229" y="392" on="0"/>
        <pt x="225" y="355" on="0"/>
        <pt x="224" y="347" on="1"/>
        <pt x="284" y="352" on="0"/>
        <pt x="342" y="362" on="1"/>
      </contour>
      <contour>
        <pt x="391" y="816" on="1"/>
        <pt x="391" y="790" on="0"/>
        <pt x="364" y="750" on="0"/>
        <pt x="343" y="739" on="1"/>
        <pt x="387" y="725" on="0"/>
        <pt x="443" y="648" on="0"/>
        <pt x="478" y="550" on="0"/>
        <pt x="497" y="449" on="0"/>
        <pt x="504" y="413" on="1"/>
        <pt x="517" y="348" on="0"/>
        <pt x="535" y="215" on="0"/>
        <pt x="535" y="148" on="1"/>
        <pt x="535" y="128" on="0"/>
        <pt x="528" y="72" on="0"/>
        <pt x="508" y="21" on="0"/>
        <pt x="474" y="-14" on="0"/>
        <pt x="446" y="-14" on="1"/>
        <pt x="409" y="-14" on="0"/>
        <pt x="372" y="40" on="0"/>
        <pt x="356" y="115" on="0"/>
        <pt x="353" y="193" on="0"/>
        <pt x="352" y="216" on="1"/>
        <pt x="280" y="204" on="0"/>
        <pt x="210" y="195" on="1"/>
        <pt x="208" y="172" on="0"/>
        <pt x="195" y="104" on="0"/>
        <pt x="168" y="41" on="0"/>
        <pt x="125" y="-5" on="0"/>
        <pt x="94" y="-5" on="1"/>
        <pt x="70" y="-5" on="0"/>
        <pt x="43" y="30" on="0"/>
        <pt x="29" y="78" on="0"/>
        <pt x="26" y="129" on="0"/>
        <pt x="26" y="146" on="1"/>
        <pt x="26" y="203" on="0"/>
        <pt x="44" y="314" on="0"/>
        <pt x="56" y="369" on="1"/>
        <pt x="65" y="408" on="0"/>
        <pt x="95" y="519" on="0"/>
        <pt x="143" y="629" on="0"/>
        <pt x="210" y="719" on="0"/>
        <pt x="257" y="736" on="1"/>
        <pt x="234" y="747" on="0"/>
        <pt x="205" y="790" on="0"/>
        <pt x="205" y="816" on="1"/>
        <pt x="205" y="835" on="0"/>
        <pt x="220" y="868" on="0"/>
        <pt x="245" y="892" on="0"/>
        <pt x="279" y="905" on="0"/>
        <pt x="298" y="905" on="1"/>
        <pt x="316" y="905" on="0"/>
        <pt x="350" y="892" on="0"/>
        <pt x="376" y="868" on="0"/>
        <pt x="391" y="835" on="0"/>
      </contour>
      <contour>
        <pt x="350" y="815" on="1"/>
        <pt x="350" y="836" on="0"/>
        <pt x="320" y="863" on="0"/>
        <pt x="300" y="863" on="1"/>
        <pt x="280" y="863" on="0"/>
        <pt x="250" y="836" on="0"/>
        <pt x="250" y="815" on="1"/>
        <pt x="250" y="795" on="0"/>
        <pt x="280" y="768" on="0"/>
        <pt x="300" y="768" on="1"/>
        <pt x="320" y="768" on="0"/>
        <pt x="350" y="795" on="0"/>
      </contour>
    </TTGlyph>
    <TTGlyph name="Atilde" xMin="26" yMin="-14" xMax="535" yMax="935">
      <component glyphName="A" x="0" y="0" flags="0x204"/>
      <component glyphName="tilde" x="113" y="184" flags="0x4"/>
    </TTGlyph>
    <TTGlyph name="B" xMin="31" yMin="-12" xMax="472" yMax="754">
      <contour>
        <pt x="472" y="591" on="1"/>
        <pt x="472" y="522" on="0"/>
        <pt x="404" y="409" on="0"/>
        <pt x="347" y="371" on="1"/>
        <pt x="377" y="365" on="0"/>
        <pt x="421" y="336" on="0"/>
        <pt x="450" y="294" on="0"/>
        <pt x="465" y="241" on="0"/>
        <pt x="465" y="212" on="1"/>
        <pt x="465" y="155" on="0"/>
        <pt x="412" y="70" on="0"/>
        <pt x="328" y="15" on="0"/>
        <pt x="225" y="-12" on="0"/>
        <pt x="174" y="-12" on="1"/>
        <pt x="146" y="-12" on="0"/>
        <pt x="90" y="-4" on="0"/>
        <pt x="65" y="6" on="1"/>
        <pt x="56" y="9" on="0"/>
        <pt x="44" y="52" on="0"/>
        <pt x="37" y="114" on="0"/>
        <pt x="33" y="186" on="0"/>
        <pt x="31" y="252" on="0"/>
        <pt x="31" y="302" on="0"/>
        <pt x="31" y="312" on="1"/>
        <pt x="31" y="347" on="0"/>
        <pt x="31" y="418" on="0"/>
        <pt x="33" y="453" on="1"/>
        <pt x="33" y="462" on="0"/>
        <pt x="34" y="500" on="0"/>
        <pt x="35" y="547" on="0"/>
        <pt x="38" y="599" on="0"/>
        <pt x="43" y="644" on="0"/>
        <pt x="52" y="676" on="0"/>
        <pt x="58" y="680" on="1"/>
        <pt x="81" y="695" on="0"/>
        <pt x="137" y="722" on="0"/>
        <pt x="197" y="742" on="0"/>
        <pt x="257" y="754" on="0"/>
        <pt x="284" y="754" on="1"/>
        <pt x="321" y="754" on="0"/>
        <pt x="390" y="733" on="0"/>
        <pt x="441" y="691" on="0"/>
        <pt x="472" y="630" on="0"/>
      </contour>
      <contour>
        <pt x="306" y="538" on="1"/>
        <pt x="306" y="555" on="0"/>
        <pt x="285" y="571" on="0"/>
        <pt x="268" y="571" on="1"/>
        <pt x="254" y="571" on="0"/>
        <pt x="223" y="559" on="0"/>
        <pt x="212" y="549" on="1"/>
        <pt x="209" y="546" on="0"/>
        <pt x="204" y="518" on="0"/>
        <pt x="201" y="483" on="0"/>
        <pt x="200" y="452" on="0"/>
        <pt x="200" y="447" on="1"/>
        <pt x="200" y="445" on="0"/>
        <pt x="200" y="436" on="0"/>
        <pt x="201" y="426" on="0"/>
        <pt x="203" y="418" on="0"/>
        <pt x="205" y="418" on="1"/>
        <pt x="222" y="418" on="0"/>
        <pt x="258" y="443" on="0"/>
        <pt x="287" y="480" on="0"/>
        <pt x="306" y="522" on="0"/>
      </contour>
      <contour>
        <pt x="302" y="249" on="1"/>
        <pt x="302" y="266" on="0"/>
        <pt x="278" y="280" on="0"/>
        <pt x="263" y="280" on="1"/>
        <pt x="249" y="280" on="0"/>
        <pt x="218" y="267" on="0"/>
        <pt x="208" y="258" on="1"/>
        <pt x="205" y="256" on="0"/>
        <pt x="202" y="240" on="0"/>
        <pt x="201" y="221" on="0"/>
        <pt x="200" y="204" on="0"/>
        <pt x="200" y="201" on="1"/>
        <pt x="200" y="199" on="0"/>
        <pt x="200" y="187" on="0"/>
        <pt x="201" y="174" on="0"/>
        <pt x="204" y="163" on="0"/>
        <pt x="206" y="163" on="1"/>
        <pt x="220" y="163" on="0"/>
        <pt x="254" y="179" on="0"/>
        <pt x="283" y="203" on="0"/>
        <pt x="302" y="234" on="0"/>
      </contour>
    </TTGlyph>
    <TTGlyph name="C" xMin="5" yMin="-49" xMax="472" yMax="762">
      <contour>
        <pt x="472" y="509" on="1"/>
        <pt x="472" y="490" on="0"/>
        <pt x="463" y="448" on="0"/>
        <pt x="443" y="412" on="0"/>
        <pt x="411" y="388" on="0"/>
        <pt x="388" y="388" on="1"/>
        <pt x="353" y="388" on="0"/>
        <pt x="319" y="413" on="0"/>
        <pt x="305" y="451" on="0"/>
        <pt x="304" y="494" on="0"/>
        <pt x="302" y="532" on="0"/>
        <pt x="291" y="557" on="0"/>
        <pt x="273" y="557" on="1"/>
        <pt x="253" y="557" on="0"/>
        <pt x="223" y="528" on="0"/>
        <pt x="201" y="482" on="0"/>
        <pt x="186" y="424" on="0"/>
        <pt x="177" y="367" on="0"/>
        <pt x="173" y="316" on="0"/>
        <pt x="173" y="300" on="1"/>
        <pt x="173" y="279" on="0"/>
        <pt x="176" y="221" on="0"/>
        <pt x="192" y="168" on="0"/>
        <pt x="224" y="131" on="0"/>
        <pt x="254" y="131" on="1"/>
        <pt x="274" y="131" on="0"/>
        <pt x="312" y="141" on="0"/>
        <pt x="350" y="154" on="0"/>
        <pt x="389" y="164" on="0"/>
        <pt x="409" y="164" on="1"/>
        <pt x="432" y="164" on="0"/>
        <pt x="462" y="127" on="0"/>
        <pt x="462" y="104" on="1"/>
        <pt x="462" y="72" on="0"/>
        <pt x="422" y="17" on="0"/>
        <pt x="363" y="-25" on="0"/>
        <pt x="294" y="-49" on="0"/>
        <pt x="266" y="-49" on="1"/>
        <pt x="194" y="-49" on="0"/>
        <pt x="94" y="16" on="0"/>
        <pt x="32" y="119" on="0"/>
        <pt x="5" y="246" on="0"/>
        <pt x="5" y="309" on="1"/>
        <pt x="5" y="351" on="0"/>
        <pt x="21" y="451" on="0"/>
        <pt x="53" y="552" on="0"/>
        <pt x="102" y="646" on="0"/>
        <pt x="168" y="718" on="0"/>
        <pt x="251" y="762" on="0"/>
        <pt x="301" y="762" on="1"/>
        <pt x="350" y="762" on="0"/>
        <pt x="416" y="713" on="0"/>
        <pt x="456" y="638" on="0"/>
        <pt x="472" y="549" on="0"/>
      </contour>
    </TTGlyph>
    <TTGlyph name="Ccedilla" xMin="5" yMin="-310" xMax="472" yMax="762">
      <contour>
        <pt x="377" y="-172" on="1"/>
        <pt x="377" y="-201" on="0"/>
        <pt x="349" y="-251" on="0"/>
        <pt x="305" y="-288" on="0"/>
        <pt x="249" y="-310" on="0"/>
        <pt x="222" y="-310" on="1"/>
        <pt x="202" y="-310" on="0"/>
        <pt x="161" y="-303" on="0"/>
        <pt x="126" y="-286" on="0"/>
        <pt x="98" y="-258" on="0"/>
        <pt x="91" y="-237" on="1"/>
        <pt x="88" y="-230" on="0"/>
        <pt x="88" y="-223" on="1"/>
        <pt x="88" y="-208" on="0"/>
        <pt x="113" y="-185" on="0"/>
        <pt x="127" y="-185" on="1"/>
        <pt x="140" y="-185" on="0"/>
        <pt x="157" y="-200" on="0"/>
        <pt x="177" y="-218" on="0"/>
        <pt x="205" y="-233" on="0"/>
        <pt x="228" y="-233" on="1"/>
        <pt x="248" y="-233" on="0"/>
        <pt x="285" y="-208" on="0"/>
        <pt x="285" y="-185" on="1"/>
        <pt x="285" y="-170" on="0"/>
        <pt x="264" y="-150" on="0"/>
        <pt x="236" y="-134" on="0"/>
        <pt x="208" y="-120" on="0"/>
        <pt x="201" y="-110" on="1"/>
        <pt x="192" y="-98" on="0"/>
        <pt x="193" y="-57" on="0"/>
        <pt x="193" y="-43" on="1"/>
        <pt x="193" y="-38" on="1"/>
        <pt x="141" y="-22" on="0"/>
        <pt x="70" y="50" on="0"/>
        <pt x="25" y="145" on="0"/>
        <pt x="5" y="255" on="0"/>
        <pt x="5" y="309" on="1"/>
        <pt x="5" y="351" on="0"/>
        <pt x="21" y="451" on="0"/>
        <pt x="53" y="552" on="0"/>
        <pt x="102" y="646" on="0"/>
        <pt x="168" y="718" on="0"/>
        <pt x="251" y="762" on="0"/>
        <pt x="301" y="762" on="1"/>
        <pt x="350" y="762" on="0"/>
        <pt x="416" y="713" on="0"/>
        <pt x="456" y="638" on="0"/>
        <pt x="472" y="549" on="0"/>
        <pt x="472" y="509" on="1"/>
        <pt x="472" y="490" on="0"/>
        <pt x="463" y="448" on="0"/>
        <pt x="443" y="412" on="0"/>
        <pt x="411" y="388" on="0"/>
        <pt x="388" y="388" on="1"/>
        <pt x="353" y="388" on="0"/>
        <pt x="319" y="413" on="0"/>
        <pt x="305" y="451" on="0"/>
        <pt x="304" y="494" on="0"/>
        <pt x="302" y="532" on="0"/>
        <pt x="291" y="557" on="0"/>
        <pt x="273" y="557" on="1"/>
        <pt x="253" y="557" on="0"/>
        <pt x="223" y="528" on="0"/>
        <pt x="201" y="482" on="0"/>
        <pt x="186" y="424" on="0"/>
        <pt x="177" y="367" on="0"/>
        <pt x="173" y="316" on="0"/>
        <pt x="173" y="300" on="1"/>
        <pt x="173" y="279" on="0"/>
        <pt x="176" y="221" on="0"/>
        <pt x="192" y="168" on="0"/>
        <pt x="224" y="131" on="0"/>
        <pt x="254" y="131" on="1"/>
        <pt x="274" y="131" on="0"/>
        <pt x="312" y="141" on="0"/>
        <pt x="350" y="154" on="0"/>
        <pt x="389" y="164" on="0"/>
        <pt x="409" y="164" on="1"/>
        <pt x="432" y="164" on="0"/>
        <pt x="462" y="127" on="0"/>
        <pt x="462" y="104" on="1"/>
        <pt x="462" y="74" on="0"/>
        <pt x="424" y="19" on="0"/>
        <pt x="367" y="-22" on="0"/>
        <pt x="300" y="-48" on="0"/>
        <pt x="272" y="-49" on="1"/>
        <pt x="269" y="-61" on="1"/>
        <pt x="285" y="-67" on="0"/>
        <pt x="323" y="-89" on="0"/>
        <pt x="355" y="-118" on="0"/>
        <pt x="377" y="-153" on="0"/>
      </contour>
    </TTGlyph>
    <TTGlyph name="D" xMin="31" yMin="-2" xMax="545" yMax="749">
      <contour>
        <pt x="545" y="450" on="1"/>
        <pt x="545" y="362" on="0"/>
        <pt x="473" y="199" on="0"/>
        <pt x="352" y="73" on="0"/>
        <pt x="191" y="-2" on="0"/>
        <pt x="102" y="-2" on="1"/>
        <pt x="100" y="-2" on="1"/>
        <pt x="82" y="-2" on="0"/>
        <pt x="59" y="31" on="0"/>
        <pt x="43" y="81" on="0"/>
        <pt x="35" y="143" on="0"/>
        <pt x="31" y="202" on="0"/>
        <pt x="31" y="249" on="0"/>
        <pt x="31" y="261" on="1"/>
        <pt x="31" y="295" on="0"/>
        <pt x="33" y="362" on="0"/>
        <pt x="35" y="396" on="1"/>
        <pt x="35" y="407" on="0"/>
        <pt x="38" y="450" on="0"/>
        <pt x="42" y="504" on="0"/>
        <pt x="48" y="563" on="0"/>
        <pt x="55" y="614" on="0"/>
        <pt x="62" y="653" on="0"/>
        <pt x="67" y="660" on="1"/>
        <pt x="80" y="682" on="0"/>
        <pt x="134" y="716" on="0"/>
        <pt x="197" y="738" on="0"/>
        <pt x="262" y="749" on="0"/>
        <pt x="286" y="749" on="1"/>
        <pt x="352" y="749" on="0"/>
        <pt x="449" y="700" on="0"/>
        <pt x="514" y="617" on="0"/>
        <pt x="545" y="509" on="0"/>
      </contour>
      <contour>
        <pt x="377" y="421" on="1"/>
        <pt x="377" y="443" on="0"/>
        <pt x="361" y="489" on="0"/>
        <pt x="332" y="527" on="0"/>
        <pt x="291" y="550" on="0"/>
        <pt x="266" y="550" on="1"/>
        <pt x="245" y="550" on="0"/>
        <pt x="223" y="540" on="1"/>
        <pt x="218" y="537" on="0"/>
        <pt x="210" y="506" on="0"/>
        <pt x="205" y="462" on="0"/>
        <pt x="201" y="410" on="0"/>
        <pt x="200" y="363" on="0"/>
        <pt x="199" y="327" on="0"/>
        <pt x="199" y="321" on="1"/>
        <pt x="199" y="311" on="0"/>
        <pt x="199" y="272" on="0"/>
        <pt x="202" y="234" on="0"/>
        <pt x="206" y="206" on="0"/>
        <pt x="211" y="206" on="1"/>
        <pt x="241" y="206" on="0"/>
        <pt x="300" y="253" on="0"/>
        <pt x="348" y="321" on="0"/>
        <pt x="377" y="395" on="0"/>
      </contour>
    </TTGlyph>
    <TTGlyph name="E" xMin="26" yMin="-13" xMax="466" yMax="768">
      <contour>
        <pt x="466" y="157" on="1"/>
        <pt x="466" y="138" on="0"/>
        <pt x="456" y="120" on="1"/>
        <pt x="446" y="103" on="0"/>
        <pt x="372" y="57" on="0"/>
        <pt x="282" y="16" on="0"/>
        <pt x="198" y="-13" on="0"/>
        <pt x="178" y="-13" on="1"/>
        <pt x="164" y="-13" on="0"/>
        <pt x="126" y="0" on="0"/>
        <pt x="88" y="20" on="0"/>
        <pt x="57" y="46" on="0"/>
        <pt x="50" y="58" on="1"/>
        <pt x="46" y="65" on="0"/>
        <pt x="39" y="107" on="0"/>
        <pt x="34" y="163" on="0"/>
        <pt x="30" y="226" on="0"/>
        <pt x="27" y="283" on="0"/>
        <pt x="26" y="327" on="0"/>
        <pt x="26" y="337" on="1"/>
        <pt x="26" y="374" on="0"/>
        <pt x="31" y="470" on="0"/>
        <pt x="45" y="567" on="0"/>
        <pt x="72" y="656" on="0"/>
        <pt x="95" y="687" on="1"/>
        <pt x="102" y="696" on="0"/>
        <pt x="144" y="716" on="0"/>
        <pt x="201" y="734" on="0"/>
        <pt x="267" y="750" on="0"/>
        <pt x="328" y="761" on="0"/>
        <pt x="378" y="768" on="0"/>
        <pt x="391" y="768" on="1"/>
        <pt x="406" y="768" on="0"/>
        <pt x="433" y="755" on="0"/>
        <pt x="452" y="733" on="0"/>
        <pt x="463" y="706" on="0"/>
        <pt x="463" y="691" on="1"/>
        <pt x="463" y="678" on="0"/>
        <pt x="456" y="660" on="0"/>
        <pt x="449" y="649" on="1"/>
        <pt x="439" y="636" on="0"/>
        <pt x="375" y="600" on="0"/>
        <pt x="300" y="565" on="0"/>
        <pt x="231" y="537" on="0"/>
        <pt x="217" y="531" on="1"/>
        <pt x="213" y="508" on="0"/>
        <pt x="204" y="461" on="0"/>
        <pt x="202" y="437" on="1"/>
        <pt x="233" y="453" on="0"/>
        <pt x="311" y="481" on="0"/>
        <pt x="346" y="481" on="1"/>
        <pt x="417" y="481" on="0"/>
        <pt x="417" y="411" on="1"/>
        <pt x="417" y="394" on="0"/>
        <pt x="404" y="368" on="0"/>
        <pt x="383" y="348" on="0"/>
        <pt x="356" y="333" on="0"/>
        <pt x="343" y="326" on="1"/>
        <pt x="311" y="309" on="0"/>
        <pt x="241" y="284" on="0"/>
        <pt x="206" y="272" on="1"/>
        <pt x="204" y="264" on="0"/>
        <pt x="200" y="245" on="0"/>
        <pt x="200" y="236" on="1"/>
        <pt x="200" y="222" on="0"/>
        <pt x="204" y="194" on="0"/>
        <pt x="206" y="180" on="1"/>
        <pt x="218" y="184" on="0"/>
        <pt x="271" y="202" on="0"/>
        <pt x="329" y="220" on="0"/>
        <pt x="383" y="233" on="0"/>
        <pt x="396" y="233" on="1"/>
        <pt x="411" y="233" on="0"/>
        <pt x="437" y="220" on="0"/>
        <pt x="455" y="199" on="0"/>
        <pt x="466" y="171" on="0"/>
      </contour>
    </TTGlyph>
    <TTGlyph name="Eacute" xMin="26" yMin="-13" xMax="466" yMax="959">
      <component glyphName="E" x="0" y="0" flags="0x204"/>
      <component glyphName="acute" x="184" y="184" flags="0x4"/>
    </TTGlyph>
    <TTGlyph name="Ecircumflex" xMin="26" yMin="-13" xMax="466" yMax="941">
      <component glyphName="E" x="0" y="0" flags="0x204"/>
      <component glyphName="circumflex" x="113" y="184" flags="0x4"/>
    </TTGlyph>
    <TTGlyph name="Edieresis" xMin="26" yMin="-13" xMax="466" yMax="954">
      <component glyphName="E" x="0" y="0" flags="0x204"/>
      <component glyphName="dieresis" x="72" y="225" flags="0x4"/>
    </TTGlyph>
    <TTGlyph name="Egrave" xMin="26" yMin="-13" xMax="466" yMax="942">
      <component glyphName="E" x="0" y="0" flags="0x204"/>
      <component glyphName="grave" x="113" y="174" flags="0x4"/>
    </TTGlyph>
    <TTGlyph name="Eth" xMin="-26" yMin="-2" xMax="558" yMax="749">
      <contour>
        <pt x="47" y="355" on="1"/>
        <pt x="18" y="358" on="0"/>
        <pt x="-26" y="374" on="0"/>
        <pt x="-26" y="388" on="1"/>
        <pt x="-26" y="405" on="0"/>
        <pt x="20" y="424" on="0"/>
        <pt x="50" y="429" on="1"/>
        <pt x="52" y="456" on="0"/>
        <pt x="57" y="528" on="0"/>
        <pt x="65" y="597" on="0"/>
        <pt x="74" y="651" on="0"/>
        <pt x="80" y="660" on="1"/>
        <pt x="93" y="682" on="0"/>
        <pt x="147" y="716" on="0"/>
        <pt x="211" y="738" on="0"/>
        <pt x="276" y="749" on="0"/>
        <pt x="299" y="749" on="1"/>
        <pt x="365" y="749" on="0"/>
        <pt x="463" y="700" on="0"/>
        <pt x="527" y="617" on="0"/>
        <pt x="558" y="509" on="0"/>
        <pt x="558" y="450" on="1"/>
        <pt x="558" y="362" on="0"/>
        <pt x="486" y="199" on="0"/>
        <pt x="365" y="73" on="0"/>
        <pt x="205" y="-2" on="0"/>
        <pt x="117" y="-2" on="1"/>
        <pt x="115" y="-2" on="1"/>
        <pt x="97" y="-2" on="0"/>
        <pt x="73" y="31" on="0"/>
        <pt x="58" y="81" on="0"/>
        <pt x="49" y="143" on="0"/>
        <pt x="46" y="202" on="0"/>
        <pt x="45" y="249" on="0"/>
        <pt x="45" y="261" on="1"/>
        <pt x="45" y="284" on="0"/>
        <pt x="45" y="332" on="0"/>
      </contour>
      <contour>
        <pt x="321" y="388" on="1"/>
        <pt x="321" y="380" on="0"/>
        <pt x="302" y="369" on="0"/>
        <pt x="271" y="361" on="0"/>
        <pt x="232" y="355" on="0"/>
        <pt x="213" y="354" on="1"/>
        <pt x="212" y="342" on="0"/>
        <pt x="212" y="325" on="0"/>
        <pt x="212" y="321" on="1"/>
        <pt x="212" y="311" on="0"/>
        <pt x="212" y="272" on="0"/>
        <pt x="215" y="234" on="0"/>
        <pt x="219" y="206" on="0"/>
        <pt x="224" y="206" on="1"/>
        <pt x="254" y="206" on="0"/>
        <pt x="314" y="253" on="0"/>
        <pt x="361" y="321" on="0"/>
        <pt x="391" y="395" on="0"/>
        <pt x="391" y="421" on="1"/>
        <pt x="391" y="443" on="0"/>
        <pt x="375" y="489" on="0"/>
        <pt x="345" y="527" on="0"/>
        <pt x="305" y="550" on="0"/>
        <pt x="281" y="550" on="1"/>
        <pt x="259" y="550" on="0"/>
        <pt x="237" y="540" on="1"/>
        <pt x="232" y="538" on="0"/>
        <pt x="226" y="518" on="0"/>
        <pt x="221" y="488" on="0"/>
        <pt x="217" y="450" on="0"/>
        <pt x="216" y="431" on="1"/>
        <pt x="234" y="429" on="0"/>
        <pt x="271" y="421" on="0"/>
        <pt x="302" y="411" on="0"/>
        <pt x="321" y="397" on="0"/>
      </contour>
    </TTGlyph>
    <TTGlyph name="Euro" xMin="0" yMin="52" xMax="609" yMax="647">
      <contour>
        <pt x="609" y="537" on="1"/>
        <pt x="609" y="517" on="0"/>
        <pt x="581" y="485" on="0"/>
        <pt x="560" y="485" on="1"/>
        <pt x="543" y="485" on="0"/>
        <pt x="510" y="504" on="0"/>
        <pt x="471" y="526" on="0"/>
        <pt x="422" y="545" on="0"/>
        <pt x="389" y="545" on="1"/>
        <pt x="366" y="545" on="0"/>
        <pt x="315" y="534" on="0"/>
        <pt x="272" y="510" on="0"/>
        <pt x="241" y="473" on="0"/>
        <pt x="239" y="446" on="1"/>
        <pt x="277" y="447" on="0"/>
        <pt x="350" y="449" on="0"/>
        <pt x="388" y="449" on="1"/>
        <pt x="398" y="449" on="0"/>
        <pt x="435" y="451" on="0"/>
        <pt x="472" y="446" on="0"/>
        <pt x="499" y="430" on="0"/>
        <pt x="499" y="413" on="1"/>
        <pt x="499" y="399" on="0"/>
        <pt x="466" y="382" on="0"/>
        <pt x="415" y="371" on="0"/>
        <pt x="354" y="367" on="0"/>
        <pt x="297" y="366" on="0"/>
        <pt x="252" y="367" on="0"/>
        <pt x="243" y="367" on="1"/>
        <pt x="243" y="330" on="1"/>
        <pt x="300" y="333" on="0"/>
        <pt x="357" y="333" on="1"/>
        <pt x="366" y="333" on="0"/>
        <pt x="404" y="334" on="0"/>
        <pt x="442" y="330" on="0"/>
        <pt x="471" y="316" on="0"/>
        <pt x="471" y="300" on="1"/>
        <pt x="471" y="287" on="0"/>
        <pt x="443" y="272" on="0"/>
        <pt x="399" y="263" on="0"/>
        <pt x="347" y="260" on="0"/>
        <pt x="298" y="259" on="0"/>
        <pt x="259" y="260" on="0"/>
        <pt x="251" y="260" on="1"/>
        <pt x="259" y="215" on="0"/>
        <pt x="330" y="163" on="0"/>
        <pt x="375" y="163" on="1"/>
        <pt x="417" y="163" on="0"/>
        <pt x="476" y="179" on="0"/>
        <pt x="516" y="198" on="0"/>
        <pt x="545" y="214" on="0"/>
        <pt x="557" y="214" on="1"/>
        <pt x="575" y="214" on="0"/>
        <pt x="605" y="187" on="0"/>
        <pt x="605" y="168" on="1"/>
        <pt x="605" y="151" on="0"/>
        <pt x="577" y="121" on="0"/>
        <pt x="534" y="95" on="0"/>
        <pt x="480" y="74" on="0"/>
        <pt x="427" y="60" on="0"/>
        <pt x="383" y="52" on="0"/>
        <pt x="370" y="52" on="1"/>
        <pt x="327" y="52" on="0"/>
        <pt x="248" y="84" on="0"/>
        <pt x="183" y="138" on="0"/>
        <pt x="136" y="211" on="0"/>
        <pt x="127" y="252" on="1"/>
        <pt x="108" y="252" on="0"/>
        <pt x="54" y="255" on="0"/>
        <pt x="37" y="260" on="1"/>
        <pt x="23" y="264" on="0"/>
        <pt x="6" y="283" on="0"/>
        <pt x="6" y="297" on="1"/>
        <pt x="6" y="309" on="0"/>
        <pt x="18" y="320" on="0"/>
        <pt x="29" y="323" on="1"/>
        <pt x="49" y="328" on="0"/>
        <pt x="95" y="330" on="0"/>
        <pt x="116" y="331" on="1"/>
        <pt x="119" y="359" on="1"/>
        <pt x="99" y="361" on="0"/>
        <pt x="48" y="363" on="0"/>
        <pt x="29" y="367" on="1"/>
        <pt x="0" y="372" on="0"/>
        <pt x="0" y="400" on="1"/>
        <pt x="0" y="420" on="0"/>
        <pt x="23" y="437" on="0"/>
        <pt x="40" y="439" on="1"/>
        <pt x="59" y="443" on="0"/>
        <pt x="97" y="445" on="0"/>
        <pt x="116" y="446" on="1"/>
        <pt x="126" y="488" on="0"/>
        <pt x="172" y="562" on="0"/>
        <pt x="236" y="616" on="0"/>
        <pt x="315" y="647" on="0"/>
        <pt x="359" y="647" on="1"/>
        <pt x="373" y="647" on="0"/>
        <pt x="421" y="641" on="0"/>
        <pt x="477" y="630" on="0"/>
        <pt x="534" y="612" on="0"/>
        <pt x="580" y="588" on="0"/>
        <pt x="609" y="556" on="0"/>
      </contour>
    </TTGlyph>
    <TTGlyph name="F" xMin="31" yMin="-5" xMax="438" yMax="768">
      <contour>
        <pt x="438" y="722" on="1"/>
        <pt x="438" y="684" on="0"/>
        <pt x="386" y="622" on="0"/>
        <pt x="311" y="573" on="0"/>
        <pt x="229" y="537" on="0"/>
        <pt x="199" y="525" on="1"/>
        <pt x="199" y="504" on="0"/>
        <pt x="197" y="460" on="0"/>
        <pt x="195" y="438" on="1"/>
        <pt x="227" y="454" on="0"/>
        <pt x="307" y="482" on="0"/>
        <pt x="343" y="482" on="1"/>
        <pt x="372" y="482" on="0"/>
        <pt x="409" y="458" on="0"/>
        <pt x="409" y="428" on="1"/>
        <pt x="409" y="395" on="0"/>
        <pt x="362" y="343" on="0"/>
        <pt x="296" y="303" on="0"/>
        <pt x="224" y="275" on="0"/>
        <pt x="199" y="267" on="1"/>
        <pt x="199" y="234" on="0"/>
        <pt x="197" y="169" on="0"/>
        <pt x="195" y="137" on="1"/>
        <pt x="194" y="121" on="0"/>
        <pt x="189" y="73" on="0"/>
        <pt x="174" y="28" on="0"/>
        <pt x="146" y="-5" on="0"/>
        <pt x="124" y="-5" on="1"/>
        <pt x="103" y="-5" on="0"/>
        <pt x="73" y="36" on="0"/>
        <pt x="52" y="100" on="0"/>
        <pt x="39" y="179" on="0"/>
        <pt x="32" y="255" on="0"/>
        <pt x="31" y="319" on="0"/>
        <pt x="31" y="336" on="1"/>
        <pt x="31" y="349" on="0"/>
        <pt x="32" y="400" on="0"/>
        <pt x="33" y="462" on="0"/>
        <pt x="36" y="530" on="0"/>
        <pt x="40" y="591" on="0"/>
        <pt x="47" y="638" on="0"/>
        <pt x="52" y="649" on="1"/>
        <pt x="63" y="671" on="0"/>
        <pt x="146" y="714" on="0"/>
        <pt x="248" y="747" on="0"/>
        <pt x="345" y="768" on="0"/>
        <pt x="371" y="768" on="1"/>
        <pt x="383" y="768" on="0"/>
        <pt x="406" y="765" on="0"/>
        <pt x="426" y="755" on="0"/>
        <pt x="438" y="737" on="0"/>
      </contour>
    </TTGlyph>
    <TTGlyph name="G" xMin="0" yMin="-33" xMax="559" yMax="760">
      <contour>
        <pt x="478" y="240" on="1"/>
        <pt x="469" y="195" on="0"/>
        <pt x="430" y="98" on="0"/>
        <pt x="369" y="18" on="0"/>
        <pt x="285" y="-33" on="0"/>
        <pt x="231" y="-33" on="1"/>
        <pt x="191" y="-33" on="0"/>
        <pt x="127" y="-1" on="0"/>
        <pt x="75" y="53" on="0"/>
        <pt x="37" y="123" on="0"/>
        <pt x="12" y="198" on="0"/>
        <pt x="0" y="272" on="0"/>
        <pt x="0" y="304" on="1"/>
        <pt x="0" y="349" on="0"/>
        <pt x="17" y="452" on="0"/>
        <pt x="51" y="553" on="0"/>
        <pt x="103" y="646" on="0"/>
        <pt x="174" y="717" on="0"/>
        <pt x="263" y="760" on="0"/>
        <pt x="318" y="760" on="1"/>
        <pt x="353" y="760" on="0"/>
        <pt x="413" y="733" on="0"/>
        <pt x="457" y="688" on="0"/>
        <pt x="482" y="626" on="0"/>
        <pt x="482" y="592" on="1"/>
        <pt x="482" y="583" on="1"/>
        <pt x="482" y="565" on="0"/>
        <pt x="479" y="512" on="0"/>
        <pt x="463" y="464" on="0"/>
        <pt x="431" y="429" on="0"/>
        <pt x="402" y="429" on="1"/>
        <pt x="367" y="429" on="0"/>
        <pt x="331" y="461" on="0"/>
        <pt x="331" y="498" on="1"/>
        <pt x="331" y="512" on="0"/>
        <pt x="333" y="540" on="0"/>
        <pt x="333" y="554" on="1"/>
        <pt x="333" y="575" on="0"/>
        <pt x="319" y="598" on="0"/>
        <pt x="297" y="598" on="1"/>
        <pt x="272" y="598" on="0"/>
        <pt x="232" y="566" on="0"/>
        <pt x="202" y="514" on="0"/>
        <pt x="180" y="448" on="0"/>
        <pt x="166" y="381" on="0"/>
        <pt x="160" y="319" on="0"/>
        <pt x="160" y="297" on="1"/>
        <pt x="160" y="279" on="0"/>
        <pt x="164" y="232" on="0"/>
        <pt x="177" y="189" on="0"/>
        <pt x="203" y="159" on="0"/>
        <pt x="224" y="159" on="1"/>
        <pt x="260" y="159" on="0"/>
        <pt x="304" y="204" on="0"/>
        <pt x="312" y="239" on="1"/>
        <pt x="298" y="241" on="0"/>
        <pt x="271" y="250" on="0"/>
        <pt x="248" y="267" on="0"/>
        <pt x="234" y="292" on="0"/>
        <pt x="234" y="309" on="1"/>
        <pt x="234" y="340" on="0"/>
        <pt x="276" y="375" on="0"/>
        <pt x="333" y="393" on="0"/>
        <pt x="393" y="398" on="0"/>
        <pt x="411" y="398" on="1"/>
        <pt x="424" y="398" on="0"/>
        <pt x="474" y="394" on="0"/>
        <pt x="523" y="381" on="0"/>
        <pt x="559" y="357" on="0"/>
        <pt x="559" y="338" on="1"/>
        <pt x="559" y="300" on="0"/>
        <pt x="518" y="245" on="0"/>
      </contour>
    </TTGlyph>
    <TTGlyph name="H" xMin="31" yMin="-26" xMax="510" yMax="752">
      <contour>
        <pt x="510" y="572" on="1"/>
        <pt x="510" y="489" on="0"/>
        <pt x="502" y="322" on="0"/>
        <pt x="496" y="239" on="1"/>
        <pt x="495" y="224" on="0"/>
        <pt x="493" y="173" on="0"/>
        <pt x="487" y="114" on="0"/>
        <pt x="477" y="54" on="0"/>
        <pt x="456" y="5" on="0"/>
        <pt x="423" y="-26" on="0"/>
        <pt x="399" y="-26" on="1"/>
        <pt x="378" y="-26" on="0"/>
        <pt x="345" y="-8" on="0"/>
        <pt x="323" y="21" on="0"/>
        <pt x="311" y="58" on="0"/>
        <pt x="311" y="78" on="1"/>
        <pt x="311" y="111" on="0"/>
        <pt x="315" y="178" on="0"/>
        <pt x="319" y="211" on="1"/>
        <pt x="220" y="201" on="1"/>
        <pt x="217" y="175" on="0"/>
        <pt x="210" y="102" on="0"/>
        <pt x="189" y="35" on="0"/>
        <pt x="147" y="-13" on="0"/>
        <pt x="110" y="-13" on="1"/>
        <pt x="87" y="-13" on="0"/>
        <pt x="57" y="8" on="0"/>
        <pt x="39" y="41" on="0"/>
        <pt x="31" y="81" on="0"/>
        <pt x="31" y="99" on="1"/>
        <pt x="31" y="159" on="0"/>
        <pt x="41" y="278" on="0"/>
        <pt x="43" y="338" on="1"/>
        <pt x="45" y="401" on="0"/>
        <pt x="44" y="528" on="0"/>
        <pt x="46" y="592" on="1"/>
        <pt x="47" y="613" on="0"/>
        <pt x="48" y="669" on="0"/>
        <pt x="61" y="718" on="0"/>
        <pt x="92" y="752" on="0"/>
        <pt x="123" y="752" on="1"/>
        <pt x="166" y="752" on="0"/>
        <pt x="210" y="707" on="0"/>
        <pt x="228" y="640" on="0"/>
        <pt x="228" y="565" on="0"/>
        <pt x="228" y="535" on="1"/>
        <pt x="228" y="495" on="0"/>
        <pt x="224" y="418" on="0"/>
        <pt x="222" y="379" on="1"/>
        <pt x="329" y="395" on="1"/>
        <pt x="330" y="444" on="0"/>
        <pt x="332" y="540" on="0"/>
        <pt x="335" y="588" on="1"/>
        <pt x="336" y="611" on="0"/>
        <pt x="338" y="663" on="0"/>
        <pt x="352" y="707" on="0"/>
        <pt x="385" y="736" on="0"/>
        <pt x="418" y="736" on="1"/>
        <pt x="446" y="736" on="0"/>
        <pt x="481" y="704" on="0"/>
        <pt x="502" y="658" on="0"/>
        <pt x="510" y="606" on="0"/>
        <pt x="510" y="585" on="1"/>
      </contour>
    </TTGlyph>
    <TTGlyph name="I" xMin="-15" yMin="-20" xMax="376" yMax="742">
      <contour>
        <pt x="376" y="679" on="1"/>
        <pt x="376" y="660" on="0"/>
        <pt x="359" y="630" on="0"/>
        <pt x="331" y="609" on="0"/>
        <pt x="297" y="595" on="0"/>
        <pt x="281" y="592" on="1"/>
        <pt x="279" y="479" on="0"/>
        <pt x="266" y="269" on="0"/>
        <pt x="252" y="157" on="1"/>
        <pt x="258" y="157" on="1"/>
        <pt x="274" y="157" on="0"/>
        <pt x="305" y="150" on="0"/>
        <pt x="330" y="133" on="0"/>
        <pt x="345" y="108" on="0"/>
        <pt x="345" y="90" on="1"/>
        <pt x="345" y="67" on="0"/>
        <pt x="316" y="33" on="0"/>
        <pt x="269" y="9" on="0"/>
        <pt x="211" y="-7" on="0"/>
        <pt x="153" y="-16" on="0"/>
        <pt x="101" y="-20" on="0"/>
        <pt x="85" y="-20" on="1"/>
        <pt x="73" y="-20" on="0"/>
        <pt x="38" y="-18" on="0"/>
        <pt x="7" y="-8" on="0"/>
        <pt x="-15" y="12" on="0"/>
        <pt x="-15" y="29" on="1"/>
        <pt x="-15" y="50" on="0"/>
        <pt x="2" y="83" on="0"/>
        <pt x="30" y="109" on="0"/>
        <pt x="65" y="125" on="0"/>
        <pt x="83" y="129" on="1"/>
        <pt x="90" y="184" on="0"/>
        <pt x="102" y="293" on="0"/>
        <pt x="104" y="349" on="1"/>
        <pt x="106" y="406" on="0"/>
        <pt x="110" y="517" on="0"/>
        <pt x="112" y="573" on="1"/>
        <pt x="105" y="572" on="0"/>
        <pt x="93" y="571" on="0"/>
        <pt x="88" y="571" on="1"/>
        <pt x="74" y="571" on="0"/>
        <pt x="42" y="577" on="0"/>
        <pt x="14" y="592" on="0"/>
        <pt x="-5" y="614" on="0"/>
        <pt x="-5" y="631" on="1"/>
        <pt x="-5" y="665" on="0"/>
        <pt x="52" y="709" on="0"/>
        <pt x="131" y="733" on="0"/>
        <pt x="213" y="742" on="0"/>
        <pt x="238" y="742" on="1"/>
        <pt x="252" y="742" on="0"/>
        <pt x="298" y="738" on="0"/>
        <pt x="343" y="724" on="0"/>
        <pt x="376" y="700" on="0"/>
      </contour>
    </TTGlyph>
    <TTGlyph name="Iacute" xMin="-15" yMin="-20" xMax="376" yMax="959">
      <component glyphName="I" x="0" y="0" flags="0x204"/>
      <component glyphName="acute" x="154" y="184" flags="0x4"/>
    </TTGlyph>
    <TTGlyph name="Icircumflex" xMin="-15" yMin="-20" xMax="376" yMax="941">
      <component glyphName="I" x="0" y="0" flags="0x204"/>
      <component glyphName="circumflex" x="41" y="184" flags="0x4"/>
    </TTGlyph>
    <TTGlyph name="Idieresis" xMin="-15" yMin="-20" xMax="376" yMax="944">
      <component glyphName="I" x="0" y="0" flags="0x204"/>
      <component glyphName="dieresis" x="0" y="215" flags="0x4"/>
    </TTGlyph>
    <TTGlyph name="Igrave" xMin="-15" yMin="-20" xMax="376" yMax="942">
      <component glyphName="I" x="0" y="0" flags="0x204"/>
      <component glyphName="grave" x="82" y="174" flags="0x4"/>
    </TTGlyph>
    <TTGlyph name="J" xMin="-26" yMin="-23" xMax="406" yMax="734">
      <contour>
        <pt x="406" y="372" on="1"/>
        <pt x="406" y="347" on="1"/>
        <pt x="405" y="310" on="0"/>
        <pt x="399" y="226" on="0"/>
        <pt x="385" y="144" on="0"/>
        <pt x="357" y="69" on="0"/>
        <pt x="309" y="11" on="0"/>
        <pt x="239" y="-23" on="0"/>
        <pt x="189" y="-23" on="1"/>
        <pt x="135" y="-23" on="0"/>
        <pt x="54" y="23" on="0"/>
        <pt x="0" y="98" on="0"/>
        <pt x="-26" y="191" on="0"/>
        <pt x="-26" y="239" on="1"/>
        <pt x="-26" y="260" on="0"/>
        <pt x="-17" y="312" on="0"/>
        <pt x="5" y="357" on="0"/>
        <pt x="40" y="388" on="0"/>
        <pt x="67" y="388" on="1"/>
        <pt x="96" y="388" on="0"/>
        <pt x="125" y="356" on="0"/>
        <pt x="138" y="309" on="0"/>
        <pt x="142" y="254" on="0"/>
        <pt x="148" y="207" on="0"/>
        <pt x="163" y="175" on="0"/>
        <pt x="181" y="175" on="1"/>
        <pt x="202" y="175" on="0"/>
        <pt x="226" y="211" on="0"/>
        <pt x="237" y="260" on="0"/>
        <pt x="240" y="310" on="0"/>
        <pt x="240" y="324" on="1"/>
        <pt x="240" y="380" on="0"/>
        <pt x="221" y="487" on="0"/>
        <pt x="207" y="542" on="1"/>
        <pt x="200" y="570" on="0"/>
        <pt x="184" y="628" on="0"/>
        <pt x="184" y="657" on="1"/>
        <pt x="184" y="691" on="0"/>
        <pt x="220" y="734" on="0"/>
        <pt x="255" y="734" on="1"/>
        <pt x="281" y="734" on="0"/>
        <pt x="311" y="713" on="0"/>
        <pt x="326" y="693" on="1"/>
        <pt x="349" y="662" on="0"/>
        <pt x="380" y="582" on="0"/>
        <pt x="398" y="496" on="0"/>
        <pt x="406" y="409" on="0"/>
      </contour>
    </TTGlyph>
    <TTGlyph name="K" xMin="26" yMin="-19" xMax="532" yMax="757">
      <contour>
        <pt x="532" y="44" on="1"/>
        <pt x="532" y="16" on="0"/>
        <pt x="504" y="-19" on="0"/>
        <pt x="475" y="-19" on="1"/>
        <pt x="452" y="-19" on="0"/>
        <pt x="413" y="9" on="0"/>
        <pt x="380" y="50" on="0"/>
        <pt x="355" y="96" on="0"/>
        <pt x="347" y="113" on="1"/>
        <pt x="326" y="155" on="0"/>
        <pt x="285" y="239" on="0"/>
        <pt x="265" y="282" on="1"/>
        <pt x="205" y="245" on="1"/>
        <pt x="206" y="216" on="0"/>
        <pt x="198" y="158" on="0"/>
        <pt x="196" y="129" on="1"/>
        <pt x="194" y="109" on="0"/>
        <pt x="185" y="62" on="0"/>
        <pt x="165" y="21" on="0"/>
        <pt x="131" y="-7" on="0"/>
        <pt x="106" y="-7" on="1"/>
        <pt x="83" y="-7" on="0"/>
        <pt x="53" y="12" on="0"/>
        <pt x="34" y="42" on="0"/>
        <pt x="26" y="80" on="0"/>
        <pt x="26" y="100" on="1"/>
        <pt x="26" y="108" on="1"/>
        <pt x="26" y="167" on="0"/>
        <pt x="39" y="286" on="0"/>
        <pt x="41" y="346" on="1"/>
        <pt x="43" y="425" on="0"/>
        <pt x="49" y="583" on="0"/>
        <pt x="54" y="662" on="1"/>
        <pt x="55" y="680" on="0"/>
        <pt x="65" y="714" on="0"/>
        <pt x="85" y="741" on="0"/>
        <pt x="114" y="757" on="0"/>
        <pt x="134" y="757" on="1"/>
        <pt x="165" y="757" on="0"/>
        <pt x="196" y="713" on="0"/>
        <pt x="208" y="651" on="0"/>
        <pt x="207" y="585" on="0"/>
        <pt x="207" y="563" on="1"/>
        <pt x="207" y="500" on="0"/>
        <pt x="204" y="437" on="1"/>
        <pt x="233" y="461" on="0"/>
        <pt x="288" y="523" on="0"/>
        <pt x="309" y="555" on="1"/>
        <pt x="322" y="574" on="0"/>
        <pt x="356" y="641" on="0"/>
        <pt x="396" y="704" on="0"/>
        <pt x="444" y="751" on="0"/>
        <pt x="471" y="751" on="1"/>
        <pt x="500" y="751" on="0"/>
        <pt x="527" y="718" on="0"/>
        <pt x="527" y="691" on="1"/>
        <pt x="527" y="651" on="0"/>
        <pt x="502" y="567" on="0"/>
        <pt x="460" y="486" on="0"/>
        <pt x="407" y="413" on="0"/>
        <pt x="380" y="386" on="1"/>
        <pt x="408" y="339" on="0"/>
        <pt x="458" y="244" on="0"/>
        <pt x="483" y="196" on="1"/>
        <pt x="492" y="180" on="0"/>
        <pt x="509" y="142" on="0"/>
        <pt x="523" y="102" on="0"/>
        <pt x="532" y="62" on="0"/>
      </contour>
    </TTGlyph>
    <TTGlyph name="L" xMin="31" yMin="-23" xMax="507" yMax="742">
      <contour>
        <pt x="507" y="138" on="1"/>
        <pt x="507" y="113" on="0"/>
        <pt x="466" y="69" on="0"/>
        <pt x="401" y="33" on="0"/>
        <pt x="321" y="6" on="0"/>
        <pt x="243" y="-13" on="0"/>
        <pt x="174" y="-23" on="0"/>
        <pt x="154" y="-23" on="1"/>
        <pt x="135" y="-23" on="0"/>
        <pt x="92" y="-16" on="0"/>
        <pt x="78" y="-4" on="1"/>
        <pt x="70" y="2" on="0"/>
        <pt x="58" y="44" on="0"/>
        <pt x="47" y="102" on="0"/>
        <pt x="39" y="169" on="0"/>
        <pt x="34" y="233" on="0"/>
        <pt x="31" y="287" on="0"/>
        <pt x="31" y="302" on="1"/>
        <pt x="31" y="327" on="0"/>
        <pt x="34" y="398" on="0"/>
        <pt x="40" y="479" on="0"/>
        <pt x="50" y="563" on="0"/>
        <pt x="63" y="638" on="0"/>
        <pt x="82" y="698" on="0"/>
        <pt x="93" y="715" on="1"/>
        <pt x="112" y="742" on="0"/>
        <pt x="141" y="742" on="1"/>
        <pt x="161" y="742" on="0"/>
        <pt x="189" y="715" on="0"/>
        <pt x="206" y="672" on="0"/>
        <pt x="215" y="619" on="0"/>
        <pt x="219" y="567" on="0"/>
        <pt x="219" y="523" on="0"/>
        <pt x="219" y="510" on="1"/>
        <pt x="219" y="432" on="0"/>
        <pt x="212" y="279" on="0"/>
        <pt x="212" y="201" on="1"/>
        <pt x="212" y="162" on="1"/>
        <pt x="257" y="176" on="0"/>
        <pt x="363" y="201" on="0"/>
        <pt x="411" y="201" on="1"/>
        <pt x="428" y="201" on="0"/>
        <pt x="463" y="197" on="0"/>
        <pt x="490" y="184" on="0"/>
        <pt x="507" y="159" on="0"/>
      </contour>
    </TTGlyph>
    <TTGlyph name="Lslash" xMin="-33" yMin="-23" xMax="515" yMax="742">
      <contour>
        <pt x="334" y="472" on="1"/>
        <pt x="338" y="465" on="0"/>
        <pt x="320" y="441" on="0"/>
        <pt x="287" y="412" on="0"/>
        <pt x="244" y="382" on="0"/>
        <pt x="223" y="369" on="1"/>
        <pt x="221" y="327" on="0"/>
        <pt x="219" y="243" on="0"/>
        <pt x="219" y="201" on="1"/>
        <pt x="219" y="162" on="1"/>
        <pt x="265" y="176" on="0"/>
        <pt x="370" y="201" on="0"/>
        <pt x="418" y="201" on="1"/>
        <pt x="435" y="201" on="0"/>
        <pt x="470" y="197" on="0"/>
        <pt x="498" y="184" on="0"/>
        <pt x="515" y="159" on="0"/>
        <pt x="515" y="138" on="1"/>
        <pt x="515" y="113" on="0"/>
        <pt x="474" y="69" on="0"/>
        <pt x="409" y="33" on="0"/>
        <pt x="329" y="6" on="0"/>
        <pt x="250" y="-13" on="0"/>
        <pt x="181" y="-23" on="0"/>
        <pt x="161" y="-23" on="1"/>
        <pt x="142" y="-23" on="0"/>
        <pt x="99" y="-17" on="0"/>
        <pt x="85" y="-4" on="1"/>
        <pt x="76" y="4" on="0"/>
        <pt x="60" y="67" on="0"/>
        <pt x="48" y="149" on="0"/>
        <pt x="40" y="236" on="0"/>
        <pt x="39" y="268" on="1"/>
        <pt x="15" y="258" on="0"/>
        <pt x="-22" y="253" on="0"/>
        <pt x="-29" y="262" on="1"/>
        <pt x="-33" y="270" on="0"/>
        <pt x="-25" y="290" on="0"/>
        <pt x="-6" y="313" on="0"/>
        <pt x="23" y="337" on="0"/>
        <pt x="39" y="349" on="1"/>
        <pt x="40" y="392" on="0"/>
        <pt x="49" y="501" on="0"/>
        <pt x="63" y="606" on="0"/>
        <pt x="85" y="693" on="0"/>
        <pt x="100" y="715" on="1"/>
        <pt x="109" y="728" on="0"/>
        <pt x="132" y="742" on="0"/>
        <pt x="149" y="742" on="1"/>
        <pt x="169" y="742" on="0"/>
        <pt x="196" y="715" on="0"/>
        <pt x="214" y="672" on="0"/>
        <pt x="222" y="619" on="0"/>
        <pt x="226" y="567" on="0"/>
        <pt x="226" y="523" on="0"/>
        <pt x="226" y="510" on="1"/>
        <pt x="226" y="496" on="0"/>
        <pt x="225" y="469" on="0"/>
        <pt x="225" y="455" on="1"/>
        <pt x="243" y="462" on="0"/>
        <pt x="279" y="474" on="0"/>
        <pt x="309" y="480" on="0"/>
        <pt x="331" y="478" on="0"/>
      </contour>
    </TTGlyph>
    <TTGlyph name="M" xMin="36" yMin="-29" xMax="722" yMax="742">
      <contour>
        <pt x="714" y="109" on="1"/>
        <pt x="711" y="83" on="0"/>
        <pt x="700" y="33" on="0"/>
        <pt x="684" y="-6" on="0"/>
        <pt x="659" y="-29" on="0"/>
        <pt x="643" y="-29" on="1"/>
        <pt x="627" y="-29" on="0"/>
        <pt x="601" y="20" on="0"/>
        <pt x="578" y="101" on="0"/>
        <pt x="559" y="203" on="0"/>
        <pt x="544" y="308" on="0"/>
        <pt x="534" y="408" on="0"/>
        <pt x="531" y="445" on="1"/>
        <pt x="525" y="407" on="0"/>
        <pt x="509" y="313" on="0"/>
        <pt x="487" y="216" on="0"/>
        <pt x="461" y="123" on="0"/>
        <pt x="431" y="50" on="0"/>
        <pt x="397" y="6" on="0"/>
        <pt x="378" y="6" on="1"/>
        <pt x="361" y="6" on="0"/>
        <pt x="327" y="52" on="0"/>
        <pt x="295" y="127" on="0"/>
        <pt x="267" y="219" on="0"/>
        <pt x="243" y="312" on="0"/>
        <pt x="225" y="395" on="0"/>
        <pt x="220" y="423" on="1"/>
        <pt x="220" y="402" on="0"/>
        <pt x="219" y="351" on="0"/>
        <pt x="219" y="340" on="1"/>
        <pt x="219" y="335" on="0"/>
        <pt x="218" y="279" on="0"/>
        <pt x="212" y="201" on="0"/>
        <pt x="200" y="112" on="0"/>
        <pt x="177" y="36" on="0"/>
        <pt x="143" y="-16" on="0"/>
        <pt x="118" y="-18" on="1"/>
        <pt x="98" y="-9" on="0"/>
        <pt x="71" y="34" on="0"/>
        <pt x="53" y="92" on="0"/>
        <pt x="43" y="158" on="0"/>
        <pt x="37" y="221" on="0"/>
        <pt x="36" y="275" on="0"/>
        <pt x="36" y="292" on="1"/>
        <pt x="36" y="322" on="0"/>
        <pt x="43" y="413" on="0"/>
        <pt x="59" y="513" on="0"/>
        <pt x="85" y="613" on="0"/>
        <pt x="122" y="692" on="0"/>
        <pt x="171" y="742" on="0"/>
        <pt x="203" y="742" on="1"/>
        <pt x="218" y="742" on="0"/>
        <pt x="252" y="708" on="0"/>
        <pt x="286" y="653" on="0"/>
        <pt x="318" y="585" on="0"/>
        <pt x="347" y="516" on="0"/>
        <pt x="369" y="453" on="0"/>
        <pt x="376" y="431" on="1"/>
        <pt x="384" y="455" on="0"/>
        <pt x="408" y="519" on="0"/>
        <pt x="437" y="588" on="0"/>
        <pt x="472" y="655" on="0"/>
        <pt x="510" y="708" on="0"/>
        <pt x="549" y="741" on="0"/>
        <pt x="569" y="741" on="1"/>
        <pt x="604" y="741" on="0"/>
        <pt x="654" y="689" on="0"/>
        <pt x="688" y="606" on="0"/>
        <pt x="708" y="503" on="0"/>
        <pt x="719" y="402" on="0"/>
        <pt x="722" y="314" on="0"/>
        <pt x="722" y="287" on="1"/>
        <pt x="722" y="276" on="0"/>
        <pt x="722" y="238" on="0"/>
        <pt x="721" y="190" on="0"/>
        <pt x="717" y="136" on="0"/>
      </contour>
    </TTGlyph>
    <TTGlyph name="N" xMin="31" yMin="-7" xMax="612" yMax="753">
      <contour>
        <pt x="612" y="429" on="1"/>
        <pt x="612" y="407" on="0"/>
        <pt x="608" y="326" on="0"/>
        <pt x="597" y="229" on="0"/>
        <pt x="577" y="128" on="0"/>
        <pt x="545" y="46" on="0"/>
        <pt x="499" y="-7" on="0"/>
        <pt x="467" y="-7" on="1"/>
        <pt x="437" y="-7" on="0"/>
        <pt x="387" y="28" on="0"/>
        <pt x="347" y="79" on="0"/>
        <pt x="317" y="137" on="0"/>
        <pt x="307" y="161" on="1"/>
        <pt x="286" y="212" on="0"/>
        <pt x="244" y="311" on="0"/>
        <pt x="225" y="362" on="1"/>
        <pt x="225" y="334" on="1"/>
        <pt x="225" y="291" on="0"/>
        <pt x="224" y="206" on="0"/>
        <pt x="218" y="164" on="1"/>
        <pt x="216" y="147" on="0"/>
        <pt x="211" y="102" on="0"/>
        <pt x="201" y="58" on="0"/>
        <pt x="182" y="20" on="0"/>
        <pt x="166" y="11" on="1"/>
        <pt x="157" y="6" on="0"/>
        <pt x="142" y="4" on="0"/>
        <pt x="133" y="2" on="1"/>
        <pt x="130" y="2" on="1"/>
        <pt x="107" y="2" on="0"/>
        <pt x="75" y="33" on="0"/>
        <pt x="53" y="82" on="0"/>
        <pt x="40" y="143" on="0"/>
        <pt x="33" y="202" on="0"/>
        <pt x="31" y="252" on="0"/>
        <pt x="31" y="267" on="1"/>
        <pt x="31" y="290" on="0"/>
        <pt x="35" y="379" on="0"/>
        <pt x="48" y="487" on="0"/>
        <pt x="69" y="601" on="0"/>
        <pt x="103" y="694" on="0"/>
        <pt x="151" y="753" on="0"/>
        <pt x="183" y="753" on="1"/>
        <pt x="214" y="753" on="0"/>
        <pt x="263" y="705" on="0"/>
        <pt x="301" y="639" on="0"/>
        <pt x="327" y="567" on="0"/>
        <pt x="336" y="543" on="1"/>
        <pt x="353" y="496" on="0"/>
        <pt x="385" y="403" on="0"/>
        <pt x="400" y="355" on="1"/>
        <pt x="401" y="353" on="0"/>
        <pt x="407" y="335" on="0"/>
        <pt x="411" y="324" on="1"/>
        <pt x="415" y="312" on="0"/>
        <pt x="421" y="297" on="1"/>
        <pt x="421" y="310" on="0"/>
        <pt x="420" y="321" on="0"/>
        <pt x="420" y="330" on="0"/>
        <pt x="420" y="344" on="0"/>
        <pt x="420" y="359" on="1"/>
        <pt x="419" y="392" on="0"/>
        <pt x="418" y="458" on="0"/>
        <pt x="418" y="490" on="1"/>
        <pt x="418" y="504" on="0"/>
        <pt x="419" y="554" on="0"/>
        <pt x="424" y="611" on="0"/>
        <pt x="434" y="669" on="0"/>
        <pt x="453" y="716" on="0"/>
        <pt x="482" y="746" on="0"/>
        <pt x="503" y="746" on="1"/>
        <pt x="528" y="746" on="0"/>
        <pt x="564" y="708" on="0"/>
        <pt x="588" y="649" on="0"/>
        <pt x="602" y="576" on="0"/>
        <pt x="610" y="506" on="0"/>
        <pt x="612" y="446" on="0"/>
      </contour>
    </TTGlyph>
    <TTGlyph name="Ntilde" xMin="31" yMin="-7" xMax="612" yMax="946">
      <component glyphName="N" x="0" y="0" flags="0x204"/>
      <component glyphName="tilde" x="154" y="195" flags="0x4"/>
    </TTGlyph>
    <TTGlyph name="O" xMin="20" yMin="-33" xMax="512" yMax="746">
      <contour>
        <pt x="259" y="-33" on="1"/>
        <pt x="198" y="-33" on="0"/>
        <pt x="108" y="28" on="0"/>
        <pt x="49" y="131" on="0"/>
        <pt x="20" y="267" on="0"/>
        <pt x="20" y="342" on="1"/>
        <pt x="20" y="412" on="0"/>
        <pt x="51" y="556" on="0"/>
        <pt x="115" y="672" on="0"/>
        <pt x="213" y="746" on="0"/>
        <pt x="281" y="746" on="1"/>
        <pt x="347" y="746" on="0"/>
        <pt x="436" y="675" on="0"/>
        <pt x="489" y="562" on="0"/>
        <pt x="512" y="422" on="0"/>
        <pt x="512" y="352" on="1"/>
        <pt x="512" y="274" on="0"/>
        <pt x="481" y="135" on="0"/>
        <pt x="418" y="29" on="0"/>
        <pt x="323" y="-33" on="0"/>
      </contour>
      <contour>
        <pt x="271" y="525" on="1"/>
        <pt x="252" y="525" on="0"/>
        <pt x="225" y="495" on="0"/>
        <pt x="207" y="446" on="0"/>
        <pt x="199" y="385" on="0"/>
        <pt x="199" y="354" on="1"/>
        <pt x="199" y="319" on="0"/>
        <pt x="208" y="249" on="0"/>
        <pt x="226" y="193" on="0"/>
        <pt x="253" y="159" on="0"/>
        <pt x="272" y="159" on="1"/>
        <pt x="294" y="159" on="0"/>
        <pt x="320" y="203" on="0"/>
        <pt x="335" y="265" on="0"/>
        <pt x="340" y="331" on="0"/>
        <pt x="340" y="353" on="1"/>
        <pt x="340" y="380" on="0"/>
        <pt x="333" y="440" on="0"/>
        <pt x="317" y="491" on="0"/>
        <pt x="291" y="525" on="0"/>
      </contour>
    </TTGlyph>
    <TTGlyph name="OE" xMin="20" yMin="-28" xMax="839" yMax="796">
      <contour>
        <pt x="839" y="104" on="1"/>
        <pt x="839" y="81" on="0"/>
        <pt x="804" y="46" on="0"/>
        <pt x="750" y="22" on="0"/>
        <pt x="682" y="6" on="0"/>
        <pt x="617" y="-3" on="0"/>
        <pt x="560" y="-6" on="0"/>
        <pt x="544" y="-6" on="1"/>
        <pt x="526" y="-6" on="0"/>
        <pt x="489" y="11" on="0"/>
        <pt x="457" y="38" on="0"/>
        <pt x="431" y="70" on="0"/>
        <pt x="422" y="84" on="1"/>
        <pt x="400" y="29" on="0"/>
        <pt x="301" y="-28" on="0"/>
        <pt x="244" y="-28" on="1"/>
        <pt x="203" y="-28" on="0"/>
        <pt x="139" y="16" on="0"/>
        <pt x="89" y="86" on="0"/>
        <pt x="53" y="175" on="0"/>
        <pt x="31" y="266" on="0"/>
        <pt x="20" y="351" on="0"/>
        <pt x="20" y="382" on="1"/>
        <pt x="20" y="414" on="0"/>
        <pt x="35" y="500" on="0"/>
        <pt x="64" y="592" on="0"/>
        <pt x="107" y="681" on="0"/>
        <pt x="163" y="752" on="0"/>
        <pt x="232" y="796" on="0"/>
        <pt x="272" y="796" on="1"/>
        <pt x="298" y="796" on="0"/>
        <pt x="349" y="781" on="0"/>
        <pt x="392" y="753" on="0"/>
        <pt x="427" y="713" on="0"/>
        <pt x="436" y="689" on="1"/>
        <pt x="441" y="704" on="0"/>
        <pt x="451" y="726" on="0"/>
        <pt x="461" y="737" on="1"/>
        <pt x="468" y="745" on="0"/>
        <pt x="503" y="756" on="0"/>
        <pt x="550" y="763" on="0"/>
        <pt x="604" y="767" on="0"/>
        <pt x="654" y="769" on="0"/>
        <pt x="695" y="769" on="0"/>
        <pt x="706" y="769" on="1"/>
        <pt x="727" y="769" on="0"/>
        <pt x="771" y="767" on="0"/>
        <pt x="809" y="752" on="0"/>
        <pt x="833" y="721" on="0"/>
        <pt x="833" y="691" on="1"/>
        <pt x="833" y="671" on="0"/>
        <pt x="815" y="645" on="0"/>
        <pt x="798" y="636" on="1"/>
        <pt x="777" y="625" on="0"/>
        <pt x="720" y="609" on="0"/>
        <pt x="659" y="598" on="0"/>
        <pt x="600" y="592" on="0"/>
        <pt x="577" y="591" on="1"/>
        <pt x="569" y="562" on="0"/>
        <pt x="565" y="504" on="0"/>
        <pt x="563" y="475" on="1"/>
        <pt x="594" y="486" on="0"/>
        <pt x="662" y="503" on="0"/>
        <pt x="695" y="503" on="1"/>
        <pt x="740" y="503" on="0"/>
        <pt x="787" y="467" on="0"/>
        <pt x="787" y="422" on="1"/>
        <pt x="787" y="387" on="0"/>
        <pt x="747" y="352" on="0"/>
        <pt x="716" y="344" on="1"/>
        <pt x="679" y="335" on="0"/>
        <pt x="605" y="319" on="0"/>
        <pt x="568" y="310" on="1"/>
        <pt x="561" y="289" on="0"/>
        <pt x="561" y="263" on="1"/>
        <pt x="561" y="239" on="0"/>
        <pt x="568" y="191" on="0"/>
        <pt x="571" y="167" on="1"/>
        <pt x="620" y="170" on="0"/>
        <pt x="715" y="178" on="0"/>
        <pt x="764" y="180" on="1"/>
        <pt x="779" y="181" on="0"/>
        <pt x="807" y="168" on="0"/>
        <pt x="827" y="147" on="0"/>
        <pt x="839" y="119" on="0"/>
      </contour>
      <contour>
        <pt x="360" y="357" on="1"/>
        <pt x="360" y="377" on="0"/>
        <pt x="354" y="448" on="0"/>
        <pt x="335" y="518" on="0"/>
        <pt x="301" y="570" on="0"/>
        <pt x="273" y="570" on="1"/>
        <pt x="249" y="570" on="0"/>
        <pt x="215" y="524" on="0"/>
        <pt x="194" y="462" on="0"/>
        <pt x="185" y="398" on="0"/>
        <pt x="185" y="380" on="1"/>
        <pt x="185" y="368" on="0"/>
        <pt x="189" y="326" on="0"/>
        <pt x="198" y="277" on="0"/>
        <pt x="212" y="227" on="0"/>
        <pt x="232" y="187" on="0"/>
        <pt x="257" y="161" on="0"/>
        <pt x="273" y="161" on="1"/>
        <pt x="301" y="161" on="0"/>
        <pt x="336" y="207" on="0"/>
        <pt x="354" y="271" on="0"/>
        <pt x="360" y="337" on="0"/>
      </contour>
    </TTGlyph>
    <TTGlyph name="Oacute" xMin="20" yMin="-33" xMax="512" yMax="949">
      <component glyphName="O" x="0" y="0" flags="0x204"/>
      <component glyphName="acute" x="205" y="174" flags="0x4"/>
    </TTGlyph>
    <TTGlyph name="Ocircumflex" xMin="20" yMin="-33" xMax="512" yMax="941">
      <component glyphName="O" x="0" y="0" flags="0x204"/>
      <component glyphName="circumflex" x="133" y="184" flags="0x4"/>
    </TTGlyph>
    <TTGlyph name="Odieresis" xMin="20" yMin="-33" xMax="512" yMax="954">
      <component glyphName="O" x="0" y="0" flags="0x204"/>
      <component glyphName="dieresis" x="92" y="225" flags="0x4"/>
    </TTGlyph>
    <TTGlyph name="Ograve" xMin="20" yMin="-33" xMax="512" yMax="932">
      <component glyphName="O" x="0" y="0" flags="0x204"/>
      <component glyphName="grave" x="154" y="164" flags="0x4"/>
    </TTGlyph>
    <TTGlyph name="Oslash" xMin="20" yMin="-95" xMax="512" yMax="801">
      <contour>
        <pt x="498" y="760" on="1"/>
        <pt x="498" y="734" on="0"/>
        <pt x="479" y="660" on="0"/>
        <pt x="463" y="617" on="1"/>
        <pt x="489" y="560" on="0"/>
        <pt x="512" y="421" on="0"/>
        <pt x="512" y="352" on="1"/>
        <pt x="512" y="274" on="0"/>
        <pt x="481" y="135" on="0"/>
        <pt x="418" y="29" on="0"/>
        <pt x="323" y="-33" on="0"/>
        <pt x="259" y="-33" on="1"/>
        <pt x="204" y="-33" on="0"/>
        <pt x="161" y="-7" on="1"/>
        <pt x="135" y="-46" on="0"/>
        <pt x="92" y="-95" on="0"/>
        <pt x="76" y="-95" on="1"/>
        <pt x="68" y="-95" on="0"/>
        <pt x="57" y="-85" on="0"/>
        <pt x="51" y="-70" on="0"/>
        <pt x="49" y="-53" on="0"/>
        <pt x="49" y="-47" on="1"/>
        <pt x="49" y="-23" on="0"/>
        <pt x="65" y="42" on="0"/>
        <pt x="78" y="80" on="1"/>
        <pt x="49" y="132" on="0"/>
        <pt x="20" y="267" on="0"/>
        <pt x="20" y="342" on="1"/>
        <pt x="20" y="412" on="0"/>
        <pt x="51" y="556" on="0"/>
        <pt x="115" y="672" on="0"/>
        <pt x="213" y="746" on="0"/>
        <pt x="281" y="746" on="1"/>
        <pt x="312" y="746" on="0"/>
        <pt x="363" y="730" on="0"/>
        <pt x="385" y="716" on="1"/>
        <pt x="411" y="754" on="0"/>
        <pt x="456" y="801" on="0"/>
        <pt x="473" y="801" on="1"/>
        <pt x="489" y="801" on="0"/>
        <pt x="498" y="771" on="0"/>
      </contour>
      <contour>
        <pt x="271" y="525" on="1"/>
        <pt x="252" y="525" on="0"/>
        <pt x="225" y="495" on="0"/>
        <pt x="207" y="446" on="0"/>
        <pt x="199" y="385" on="0"/>
        <pt x="199" y="354" on="1"/>
        <pt x="199" y="319" on="0"/>
        <pt x="208" y="249" on="0"/>
        <pt x="226" y="193" on="0"/>
        <pt x="253" y="159" on="0"/>
        <pt x="272" y="159" on="1"/>
        <pt x="294" y="159" on="0"/>
        <pt x="320" y="203" on="0"/>
        <pt x="335" y="265" on="0"/>
        <pt x="340" y="331" on="0"/>
        <pt x="340" y="353" on="1"/>
        <pt x="340" y="380" on="0"/>
        <pt x="333" y="440" on="0"/>
        <pt x="317" y="491" on="0"/>
        <pt x="291" y="525" on="0"/>
      </contour>
    </TTGlyph>
    <TTGlyph name="Otilde" xMin="20" yMin="-33" xMax="512" yMax="935">
      <component glyphName="O" x="0" y="0" flags="0x204"/>
      <component glyphName="tilde" x="72" y="184" flags="0x4"/>
    </TTGlyph>
    <TTGlyph name="P" xMin="31" yMin="-32" xMax="494" yMax="758">
      <contour>
        <pt x="494" y="536" on="1"/>
        <pt x="494" y="482" on="0"/>
        <pt x="447" y="378" on="0"/>
        <pt x="369" y="295" on="0"/>
        <pt x="269" y="242" on="0"/>
        <pt x="216" y="239" on="1"/>
        <pt x="215" y="221" on="0"/>
        <pt x="214" y="166" on="0"/>
        <pt x="208" y="106" on="0"/>
        <pt x="197" y="46" on="0"/>
        <pt x="176" y="-2" on="0"/>
        <pt x="143" y="-32" on="0"/>
        <pt x="119" y="-32" on="1"/>
        <pt x="91" y="-32" on="0"/>
        <pt x="58" y="5" on="0"/>
        <pt x="41" y="57" on="0"/>
        <pt x="35" y="114" on="0"/>
        <pt x="34" y="134" on="1"/>
        <pt x="32" y="163" on="0"/>
        <pt x="31" y="219" on="0"/>
        <pt x="31" y="248" on="1"/>
        <pt x="31" y="261" on="0"/>
        <pt x="31" y="332" on="0"/>
        <pt x="32" y="423" on="0"/>
        <pt x="34" y="522" on="0"/>
        <pt x="38" y="607" on="0"/>
        <pt x="43" y="667" on="0"/>
        <pt x="47" y="672" on="1"/>
        <pt x="48" y="673" on="0"/>
        <pt x="58" y="680" on="0"/>
        <pt x="70" y="687" on="0"/>
        <pt x="80" y="693" on="0"/>
        <pt x="82" y="694" on="1"/>
        <pt x="128" y="720" on="0"/>
        <pt x="238" y="758" on="0"/>
        <pt x="292" y="758" on="1"/>
        <pt x="338" y="758" on="0"/>
        <pt x="413" y="721" on="0"/>
        <pt x="466" y="660" on="0"/>
        <pt x="494" y="579" on="0"/>
      </contour>
      <contour>
        <pt x="321" y="513" on="1"/>
        <pt x="321" y="533" on="0"/>
        <pt x="302" y="563" on="0"/>
        <pt x="280" y="563" on="1"/>
        <pt x="261" y="563" on="0"/>
        <pt x="223" y="548" on="0"/>
        <pt x="207" y="540" on="1"/>
        <pt x="210" y="505" on="0"/>
        <pt x="215" y="439" on="0"/>
        <pt x="213" y="404" on="1"/>
        <pt x="229" y="412" on="0"/>
        <pt x="267" y="433" on="0"/>
        <pt x="299" y="459" on="0"/>
        <pt x="321" y="492" on="0"/>
      </contour>
    </TTGlyph>
    <TTGlyph name="Q" xMin="20" yMin="-42" xMax="525" yMax="746">
      <contour>
        <pt x="286" y="162" on="1"/>
        <pt x="276" y="179" on="0"/>
        <pt x="262" y="215" on="0"/>
        <pt x="258" y="248" on="0"/>
        <pt x="267" y="277" on="0"/>
        <pt x="281" y="287" on="1"/>
        <pt x="292" y="295" on="0"/>
        <pt x="320" y="291" on="0"/>
        <pt x="336" y="281" on="1"/>
        <pt x="338" y="301" on="0"/>
        <pt x="340" y="339" on="0"/>
        <pt x="340" y="353" on="1"/>
        <pt x="340" y="380" on="0"/>
        <pt x="333" y="440" on="0"/>
        <pt x="317" y="491" on="0"/>
        <pt x="291" y="525" on="0"/>
        <pt x="271" y="525" on="1"/>
        <pt x="252" y="525" on="0"/>
        <pt x="225" y="495" on="0"/>
        <pt x="207" y="446" on="0"/>
        <pt x="199" y="385" on="0"/>
        <pt x="199" y="354" on="1"/>
        <pt x="199" y="319" on="0"/>
        <pt x="208" y="249" on="0"/>
        <pt x="226" y="193" on="0"/>
        <pt x="253" y="159" on="0"/>
        <pt x="272" y="159" on="1"/>
        <pt x="280" y="159" on="0"/>
      </contour>
      <contour>
        <pt x="478" y="121" on="1"/>
        <pt x="488" y="107" on="0"/>
        <pt x="512" y="64" on="0"/>
        <pt x="525" y="19" on="0"/>
        <pt x="523" y="-21" on="0"/>
        <pt x="507" y="-33" on="1"/>
        <pt x="495" y="-42" on="0"/>
        <pt x="467" y="-39" on="0"/>
        <pt x="438" y="-24" on="0"/>
        <pt x="408" y="1" on="0"/>
        <pt x="394" y="16" on="1"/>
        <pt x="367" y="-7" on="0"/>
        <pt x="300" y="-33" on="0"/>
        <pt x="259" y="-33" on="1"/>
        <pt x="198" y="-33" on="0"/>
        <pt x="108" y="28" on="0"/>
        <pt x="49" y="131" on="0"/>
        <pt x="20" y="267" on="0"/>
        <pt x="20" y="342" on="1"/>
        <pt x="20" y="412" on="0"/>
        <pt x="51" y="556" on="0"/>
        <pt x="115" y="672" on="0"/>
        <pt x="213" y="746" on="0"/>
        <pt x="281" y="746" on="1"/>
        <pt x="347" y="746" on="0"/>
        <pt x="436" y="675" on="0"/>
        <pt x="489" y="562" on="0"/>
        <pt x="512" y="422" on="0"/>
        <pt x="512" y="352" on="1"/>
        <pt x="512" y="290" on="0"/>
        <pt x="492" y="177" on="0"/>
        <pt x="472" y="129" on="1"/>
      </contour>
    </TTGlyph>
    <TTGlyph name="R" xMin="31" yMin="-42" xMax="518" yMax="761">
      <contour>
        <pt x="518" y="526" on="1"/>
        <pt x="518" y="457" on="0"/>
        <pt x="454" y="347" on="0"/>
        <pt x="401" y="305" on="1"/>
        <pt x="417" y="281" on="0"/>
        <pt x="451" y="217" on="0"/>
        <pt x="478" y="146" on="0"/>
        <pt x="495" y="75" on="0"/>
        <pt x="495" y="45" on="1"/>
        <pt x="495" y="13" on="0"/>
        <pt x="464" y="-38" on="0"/>
        <pt x="427" y="-38" on="1"/>
        <pt x="396" y="-38" on="0"/>
        <pt x="351" y="22" on="0"/>
        <pt x="316" y="105" on="0"/>
        <pt x="287" y="191" on="0"/>
        <pt x="274" y="217" on="1"/>
        <pt x="256" y="211" on="0"/>
        <pt x="222" y="196" on="0"/>
        <pt x="204" y="189" on="1"/>
        <pt x="203" y="167" on="0"/>
        <pt x="198" y="90" on="0"/>
        <pt x="181" y="14" on="0"/>
        <pt x="147" y="-42" on="0"/>
        <pt x="117" y="-42" on="1"/>
        <pt x="84" y="-42" on="0"/>
        <pt x="48" y="12" on="0"/>
        <pt x="33" y="86" on="0"/>
        <pt x="31" y="163" on="0"/>
        <pt x="31" y="185" on="1"/>
        <pt x="31" y="232" on="0"/>
        <pt x="35" y="323" on="0"/>
        <pt x="35" y="370" on="1"/>
        <pt x="35" y="413" on="0"/>
        <pt x="32" y="499" on="0"/>
        <pt x="32" y="543" on="1"/>
        <pt x="32" y="553" on="0"/>
        <pt x="32" y="584" on="0"/>
        <pt x="35" y="617" on="0"/>
        <pt x="39" y="647" on="0"/>
        <pt x="44" y="656" on="1"/>
        <pt x="54" y="677" on="0"/>
        <pt x="125" y="715" on="0"/>
        <pt x="210" y="744" on="0"/>
        <pt x="291" y="761" on="0"/>
        <pt x="311" y="761" on="1"/>
        <pt x="362" y="761" on="0"/>
        <pt x="440" y="723" on="0"/>
        <pt x="492" y="658" on="0"/>
        <pt x="518" y="573" on="0"/>
      </contour>
      <contour>
        <pt x="333" y="512" on="1"/>
        <pt x="333" y="538" on="0"/>
        <pt x="309" y="565" on="0"/>
        <pt x="282" y="565" on="1"/>
        <pt x="262" y="565" on="0"/>
        <pt x="221" y="551" on="0"/>
        <pt x="204" y="542" on="1"/>
        <pt x="208" y="463" on="0"/>
        <pt x="207" y="385" on="1"/>
        <pt x="228" y="392" on="0"/>
        <pt x="272" y="414" on="0"/>
        <pt x="309" y="446" on="0"/>
        <pt x="333" y="486" on="0"/>
      </contour>
    </TTGlyph>
    <TTGlyph name="S" xMin="5" yMin="-39" xMax="357" yMax="780">
      <contour>
        <pt x="357" y="702" on="1"/>
        <pt x="357" y="679" on="0"/>
        <pt x="328" y="645" on="0"/>
        <pt x="308" y="634" on="1"/>
        <pt x="290" y="623" on="0"/>
        <pt x="252" y="598" on="0"/>
        <pt x="220" y="567" on="0"/>
        <pt x="200" y="529" on="0"/>
        <pt x="200" y="505" on="1"/>
        <pt x="200" y="484" on="0"/>
        <pt x="220" y="450" on="0"/>
        <pt x="249" y="417" on="0"/>
        <pt x="284" y="382" on="0"/>
        <pt x="313" y="339" on="0"/>
        <pt x="333" y="285" on="0"/>
        <pt x="333" y="249" on="1"/>
        <pt x="333" y="224" on="0"/>
        <pt x="312" y="161" on="0"/>
        <pt x="276" y="97" on="0"/>
        <pt x="227" y="37" on="0"/>
        <pt x="172" y="-10" on="0"/>
        <pt x="112" y="-39" on="0"/>
        <pt x="84" y="-39" on="1"/>
        <pt x="53" y="-39" on="0"/>
        <pt x="5" y="-5" on="0"/>
        <pt x="5" y="29" on="1"/>
        <pt x="5" y="52" on="0"/>
        <pt x="27" y="91" on="0"/>
        <pt x="59" y="127" on="0"/>
        <pt x="98" y="161" on="0"/>
        <pt x="130" y="195" on="0"/>
        <pt x="152" y="232" on="0"/>
        <pt x="152" y="253" on="1"/>
        <pt x="152" y="282" on="0"/>
        <pt x="111" y="343" on="0"/>
        <pt x="61" y="408" on="0"/>
        <pt x="20" y="476" on="0"/>
        <pt x="20" y="511" on="1"/>
        <pt x="20" y="554" on="0"/>
        <pt x="66" y="649" on="0"/>
        <pt x="138" y="728" on="0"/>
        <pt x="228" y="780" on="0"/>
        <pt x="272" y="780" on="1"/>
        <pt x="307" y="780" on="0"/>
        <pt x="357" y="738" on="0"/>
      </contour>
    </TTGlyph>
    <TTGlyph name="Scaron" xMin="5" yMin="-39" xMax="357" yMax="1003">
      <component glyphName="S" x="0" y="0" flags="0x204"/>
      <component glyphName="caron" x="41" y="246" flags="0x4"/>
    </TTGlyph>
    <TTGlyph name="T" xMin="-51" yMin="-31" xMax="463" yMax="753">
      <contour>
        <pt x="463" y="683" on="1"/>
        <pt x="463" y="658" on="0"/>
        <pt x="424" y="617" on="0"/>
        <pt x="369" y="586" on="0"/>
        <pt x="311" y="566" on="0"/>
        <pt x="292" y="562" on="1"/>
        <pt x="284" y="485" on="0"/>
        <pt x="275" y="332" on="0"/>
        <pt x="275" y="255" on="1"/>
        <pt x="275" y="214" on="0"/>
        <pt x="279" y="134" on="0"/>
        <pt x="279" y="94" on="1"/>
        <pt x="279" y="76" on="0"/>
        <pt x="272" y="33" on="0"/>
        <pt x="255" y="-5" on="0"/>
        <pt x="225" y="-31" on="0"/>
        <pt x="203" y="-31" on="1"/>
        <pt x="177" y="-31" on="0"/>
        <pt x="146" y="-2" on="0"/>
        <pt x="129" y="40" on="0"/>
        <pt x="123" y="87" on="0"/>
        <pt x="123" y="106" on="1"/>
        <pt x="121" y="166" on="0"/>
        <pt x="119" y="287" on="0"/>
        <pt x="119" y="348" on="1"/>
        <pt x="119" y="399" on="0"/>
        <pt x="120" y="497" on="0"/>
        <pt x="120" y="548" on="1"/>
        <pt x="106" y="546" on="0"/>
        <pt x="77" y="544" on="0"/>
        <pt x="62" y="544" on="1"/>
        <pt x="50" y="544" on="0"/>
        <pt x="11" y="549" on="0"/>
        <pt x="-25" y="562" on="0"/>
        <pt x="-51" y="585" on="0"/>
        <pt x="-51" y="603" on="1"/>
        <pt x="-51" y="633" on="0"/>
        <pt x="-4" y="678" on="0"/>
        <pt x="69" y="711" on="0"/>
        <pt x="158" y="734" on="0"/>
        <pt x="245" y="747" on="0"/>
        <pt x="318" y="753" on="0"/>
        <pt x="338" y="753" on="1"/>
        <pt x="357" y="753" on="0"/>
        <pt x="400" y="750" on="0"/>
        <pt x="438" y="736" on="0"/>
        <pt x="463" y="708" on="0"/>
      </contour>
    </TTGlyph>
    <TTGlyph name="Thorn" xMin="31" yMin="-32" xMax="506" yMax="760">
      <contour>
        <pt x="506" y="396" on="1"/>
        <pt x="506" y="334" on="0"/>
        <pt x="451" y="239" on="0"/>
        <pt x="364" y="173" on="0"/>
        <pt x="255" y="136" on="0"/>
        <pt x="201" y="132" on="1"/>
        <pt x="199" y="118" on="0"/>
        <pt x="188" y="63" on="0"/>
        <pt x="167" y="9" on="0"/>
        <pt x="136" y="-32" on="0"/>
        <pt x="114" y="-32" on="1"/>
        <pt x="92" y="-32" on="0"/>
        <pt x="63" y="9" on="0"/>
        <pt x="45" y="74" on="0"/>
        <pt x="35" y="152" on="0"/>
        <pt x="31" y="226" on="0"/>
        <pt x="31" y="285" on="0"/>
        <pt x="31" y="299" on="1"/>
        <pt x="31" y="388" on="1"/>
        <pt x="31" y="403" on="0"/>
        <pt x="31" y="469" on="0"/>
        <pt x="35" y="552" on="0"/>
        <pt x="44" y="640" on="0"/>
        <pt x="62" y="713" on="0"/>
        <pt x="91" y="760" on="0"/>
        <pt x="113" y="760" on="1"/>
        <pt x="138" y="760" on="0"/>
        <pt x="171" y="718" on="0"/>
        <pt x="189" y="661" on="0"/>
        <pt x="197" y="601" on="0"/>
        <pt x="197" y="583" on="1"/>
        <pt x="205" y="583" on="0"/>
        <pt x="224" y="586" on="0"/>
        <pt x="233" y="587" on="1"/>
        <pt x="261" y="590" on="0"/>
        <pt x="290" y="590" on="1"/>
        <pt x="338" y="590" on="0"/>
        <pt x="417" y="568" on="0"/>
        <pt x="474" y="522" on="0"/>
        <pt x="506" y="448" on="0"/>
      </contour>
      <contour>
        <pt x="348" y="373" on="1"/>
        <pt x="349" y="409" on="0"/>
        <pt x="309" y="455" on="0"/>
        <pt x="271" y="455" on="1"/>
        <pt x="254" y="455" on="0"/>
        <pt x="220" y="447" on="0"/>
        <pt x="204" y="441" on="1"/>
        <pt x="202" y="396" on="0"/>
        <pt x="203" y="307" on="0"/>
        <pt x="201" y="262" on="1"/>
        <pt x="204" y="262" on="1"/>
        <pt x="229" y="262" on="0"/>
        <pt x="279" y="276" on="0"/>
        <pt x="321" y="304" on="0"/>
        <pt x="347" y="345" on="0"/>
      </contour>
    </TTGlyph>
    <TTGlyph name="U" xMin="26" yMin="-19" xMax="566" yMax="758">
      <contour>
        <pt x="566" y="351" on="1"/>
        <pt x="566" y="310" on="0"/>
        <pt x="558" y="223" on="0"/>
        <pt x="538" y="141" on="0"/>
        <pt x="503" y="68" on="0"/>
        <pt x="449" y="13" on="0"/>
        <pt x="373" y="-19" on="0"/>
        <pt x="322" y="-19" on="1"/>
        <pt x="247" y="-19" on="0"/>
        <pt x="136" y="51" on="0"/>
        <pt x="62" y="160" on="0"/>
        <pt x="26" y="295" on="0"/>
        <pt x="26" y="361" on="1"/>
        <pt x="26" y="368" on="0"/>
        <pt x="26" y="380" on="0"/>
        <pt x="27" y="385" on="1"/>
        <pt x="28" y="406" on="0"/>
        <pt x="33" y="478" on="0"/>
        <pt x="45" y="560" on="0"/>
        <pt x="64" y="646" on="0"/>
        <pt x="95" y="714" on="0"/>
        <pt x="139" y="758" on="0"/>
        <pt x="169" y="758" on="1"/>
        <pt x="191" y="758" on="0"/>
        <pt x="221" y="732" on="0"/>
        <pt x="240" y="693" on="0"/>
        <pt x="248" y="650" on="0"/>
        <pt x="248" y="632" on="1"/>
        <pt x="248" y="605" on="0"/>
        <pt x="237" y="550" on="0"/>
        <pt x="232" y="523" on="1"/>
        <pt x="224" y="480" on="0"/>
        <pt x="214" y="394" on="0"/>
        <pt x="214" y="349" on="1"/>
        <pt x="214" y="326" on="0"/>
        <pt x="219" y="260" on="0"/>
        <pt x="239" y="199" on="0"/>
        <pt x="276" y="156" on="0"/>
        <pt x="308" y="156" on="1"/>
        <pt x="339" y="156" on="0"/>
        <pt x="376" y="198" on="0"/>
        <pt x="394" y="256" on="0"/>
        <pt x="399" y="320" on="0"/>
        <pt x="399" y="343" on="1"/>
        <pt x="399" y="409" on="0"/>
        <pt x="377" y="538" on="0"/>
        <pt x="359" y="602" on="1"/>
        <pt x="354" y="619" on="0"/>
        <pt x="347" y="653" on="0"/>
        <pt x="347" y="670" on="1"/>
        <pt x="347" y="698" on="0"/>
        <pt x="380" y="740" on="0"/>
        <pt x="410" y="740" on="1"/>
        <pt x="435" y="740" on="0"/>
        <pt x="478" y="701" on="0"/>
        <pt x="512" y="638" on="0"/>
        <pt x="537" y="560" on="0"/>
        <pt x="555" y="483" on="0"/>
        <pt x="564" y="413" on="0"/>
        <pt x="565" y="391" on="1"/>
        <pt x="566" y="381" on="0"/>
        <pt x="566" y="362" on="0"/>
      </contour>
    </TTGlyph>
    <TTGlyph name="Uacute" xMin="26" yMin="-19" xMax="566" yMax="949">
      <component glyphName="U" x="0" y="0" flags="0x204"/>
      <component glyphName="acute" x="236" y="174" flags="0x4"/>
    </TTGlyph>
    <TTGlyph name="Ucircumflex" xMin="26" yMin="-19" xMax="566" yMax="952">
      <component glyphName="U" x="0" y="0" flags="0x204"/>
      <component glyphName="circumflex" x="154" y="195" flags="0x4"/>
    </TTGlyph>
    <TTGlyph name="Udieresis" xMin="26" yMin="-19" xMax="566" yMax="954">
      <component glyphName="U" x="0" y="0" flags="0x204"/>
      <component glyphName="dieresis" x="102" y="225" flags="0x4"/>
    </TTGlyph>
    <TTGlyph name="Ugrave" xMin="26" yMin="-19" xMax="566" yMax="942">
      <component glyphName="U" x="0" y="0" flags="0x204"/>
      <component glyphName="grave" x="195" y="174" flags="0x4"/>
    </TTGlyph>
    <TTGlyph name="V" xMin="10" yMin="-1" xMax="512" yMax="754">
      <contour>
        <pt x="512" y="662" on="1"/>
        <pt x="512" y="626" on="0"/>
        <pt x="494" y="537" on="0"/>
        <pt x="467" y="445" on="0"/>
        <pt x="436" y="358" on="0"/>
        <pt x="424" y="323" on="1"/>
        <pt x="416" y="301" on="0"/>
        <pt x="397" y="236" on="0"/>
        <pt x="372" y="164" on="0"/>
        <pt x="342" y="92" on="0"/>
        <pt x="306" y="35" on="0"/>
        <pt x="263" y="-1" on="0"/>
        <pt x="238" y="-1" on="1"/>
        <pt x="217" y="-1" on="0"/>
        <pt x="178" y="37" on="0"/>
        <pt x="143" y="96" on="0"/>
        <pt x="112" y="169" on="0"/>
        <pt x="87" y="239" on="0"/>
        <pt x="70" y="299" on="0"/>
        <pt x="66" y="315" on="1"/>
        <pt x="46" y="393" on="0"/>
        <pt x="10" y="552" on="0"/>
        <pt x="10" y="632" on="1"/>
        <pt x="10" y="652" on="0"/>
        <pt x="14" y="695" on="0"/>
        <pt x="30" y="731" on="0"/>
        <pt x="59" y="754" on="0"/>
        <pt x="85" y="754" on="1"/>
        <pt x="107" y="754" on="0"/>
        <pt x="144" y="705" on="0"/>
        <pt x="174" y="627" on="0"/>
        <pt x="199" y="531" on="0"/>
        <pt x="221" y="438" on="0"/>
        <pt x="241" y="357" on="0"/>
        <pt x="251" y="333" on="1"/>
        <pt x="257" y="353" on="0"/>
        <pt x="280" y="430" on="0"/>
        <pt x="311" y="522" on="0"/>
        <pt x="348" y="619" on="0"/>
        <pt x="389" y="698" on="0"/>
        <pt x="433" y="748" on="0"/>
        <pt x="456" y="748" on="1"/>
        <pt x="473" y="748" on="0"/>
        <pt x="495" y="732" on="0"/>
        <pt x="507" y="706" on="0"/>
        <pt x="512" y="676" on="0"/>
      </contour>
    </TTGlyph>
    <TTGlyph name="W" xMin="26" yMin="-18" xMax="645" yMax="735">
      <contour>
        <pt x="645" y="587" on="1"/>
        <pt x="645" y="527" on="0"/>
        <pt x="629" y="410" on="0"/>
        <pt x="618" y="353" on="1"/>
        <pt x="615" y="338" on="0"/>
        <pt x="603" y="271" on="0"/>
        <pt x="586" y="189" on="0"/>
        <pt x="562" y="101" on="0"/>
        <pt x="533" y="29" on="0"/>
        <pt x="498" y="-18" on="0"/>
        <pt x="478" y="-18" on="1"/>
        <pt x="458" y="-18" on="0"/>
        <pt x="421" y="22" on="0"/>
        <pt x="390" y="83" on="0"/>
        <pt x="364" y="159" on="0"/>
        <pt x="345" y="230" on="0"/>
        <pt x="332" y="289" on="0"/>
        <pt x="329" y="304" on="1"/>
        <pt x="325" y="291" on="0"/>
        <pt x="308" y="234" on="0"/>
        <pt x="282" y="163" on="0"/>
        <pt x="250" y="89" on="0"/>
        <pt x="215" y="27" on="0"/>
        <pt x="177" y="-13" on="0"/>
        <pt x="158" y="-13" on="1"/>
        <pt x="133" y="-13" on="0"/>
        <pt x="95" y="31" on="0"/>
        <pt x="69" y="100" on="0"/>
        <pt x="51" y="185" on="0"/>
        <pt x="41" y="268" on="0"/>
        <pt x="35" y="340" on="0"/>
        <pt x="34" y="361" on="1"/>
        <pt x="31" y="409" on="0"/>
        <pt x="26" y="501" on="0"/>
        <pt x="26" y="549" on="1"/>
        <pt x="26" y="566" on="0"/>
        <pt x="28" y="625" on="0"/>
        <pt x="41" y="682" on="0"/>
        <pt x="68" y="725" on="0"/>
        <pt x="94" y="727" on="1"/>
        <pt x="116" y="728" on="0"/>
        <pt x="148" y="690" on="0"/>
        <pt x="170" y="627" on="0"/>
        <pt x="183" y="550" on="0"/>
        <pt x="190" y="478" on="0"/>
        <pt x="192" y="418" on="0"/>
        <pt x="191" y="404" on="1"/>
        <pt x="190" y="378" on="1"/>
        <pt x="193" y="391" on="0"/>
        <pt x="208" y="447" on="0"/>
        <pt x="230" y="518" on="0"/>
        <pt x="255" y="593" on="0"/>
        <pt x="283" y="655" on="0"/>
        <pt x="311" y="696" on="0"/>
        <pt x="324" y="697" on="1"/>
        <pt x="341" y="698" on="0"/>
        <pt x="372" y="656" on="0"/>
        <pt x="397" y="589" on="0"/>
        <pt x="417" y="507" on="0"/>
        <pt x="432" y="430" on="0"/>
        <pt x="440" y="368" on="0"/>
        <pt x="442" y="355" on="1"/>
        <pt x="443" y="371" on="0"/>
        <pt x="451" y="440" on="0"/>
        <pt x="465" y="525" on="0"/>
        <pt x="486" y="614" on="0"/>
        <pt x="514" y="688" on="0"/>
        <pt x="550" y="735" on="0"/>
        <pt x="572" y="735" on="1"/>
        <pt x="597" y="735" on="0"/>
        <pt x="627" y="702" on="0"/>
        <pt x="641" y="655" on="0"/>
        <pt x="645" y="604" on="0"/>
      </contour>
    </TTGlyph>
    <TTGlyph name="X" xMin="-10" yMin="-14" xMax="521" yMax="761">
      <contour>
        <pt x="521" y="703" on="1"/>
        <pt x="521" y="681" on="0"/>
        <pt x="505" y="631" on="0"/>
        <pt x="481" y="580" on="0"/>
        <pt x="454" y="532" on="0"/>
        <pt x="443" y="513" on="1"/>
        <pt x="420" y="470" on="0"/>
        <pt x="374" y="383" on="0"/>
        <pt x="348" y="340" on="1"/>
        <pt x="361" y="318" on="0"/>
        <pt x="402" y="242" on="0"/>
        <pt x="441" y="158" on="0"/>
        <pt x="470" y="78" on="0"/>
        <pt x="470" y="52" on="1"/>
        <pt x="470" y="32" on="0"/>
        <pt x="448" y="-3" on="0"/>
        <pt x="425" y="-3" on="1"/>
        <pt x="398" y="-3" on="0"/>
        <pt x="343" y="42" on="0"/>
        <pt x="294" y="104" on="0"/>
        <pt x="253" y="169" on="0"/>
        <pt x="241" y="189" on="1"/>
        <pt x="224" y="167" on="0"/>
        <pt x="189" y="125" on="0"/>
        <pt x="172" y="103" on="1"/>
        <pt x="161" y="89" on="0"/>
        <pt x="130" y="50" on="0"/>
        <pt x="93" y="12" on="0"/>
        <pt x="54" y="-14" on="0"/>
        <pt x="36" y="-14" on="1"/>
        <pt x="23" y="-14" on="0"/>
        <pt x="6" y="-3" on="0"/>
        <pt x="-5" y="15" on="0"/>
        <pt x="-10" y="37" on="0"/>
        <pt x="-10" y="48" on="1"/>
        <pt x="-10" y="79" on="0"/>
        <pt x="11" y="142" on="0"/>
        <pt x="25" y="169" on="1"/>
        <pt x="74" y="273" on="0"/>
        <pt x="128" y="375" on="1"/>
        <pt x="117" y="398" on="0"/>
        <pt x="84" y="480" on="0"/>
        <pt x="52" y="570" on="0"/>
        <pt x="29" y="655" on="0"/>
        <pt x="29" y="681" on="1"/>
        <pt x="29" y="710" on="0"/>
        <pt x="57" y="755" on="0"/>
        <pt x="89" y="755" on="1"/>
        <pt x="107" y="755" on="0"/>
        <pt x="138" y="736" on="0"/>
        <pt x="164" y="707" on="0"/>
        <pt x="184" y="674" on="0"/>
        <pt x="190" y="660" on="1"/>
        <pt x="207" y="624" on="0"/>
        <pt x="241" y="553" on="0"/>
        <pt x="256" y="515" on="1"/>
        <pt x="264" y="529" on="0"/>
        <pt x="292" y="577" on="0"/>
        <pt x="328" y="631" on="0"/>
        <pt x="370" y="687" on="0"/>
        <pt x="414" y="732" on="0"/>
        <pt x="459" y="761" on="0"/>
        <pt x="479" y="761" on="1"/>
        <pt x="501" y="761" on="0"/>
        <pt x="521" y="721" on="0"/>
      </contour>
    </TTGlyph>
    <TTGlyph name="Y" xMin="10" yMin="-53" xMax="481" yMax="783">
      <contour>
        <pt x="481" y="688" on="1"/>
        <pt x="481" y="644" on="0"/>
        <pt x="458" y="538" on="0"/>
        <pt x="422" y="430" on="0"/>
        <pt x="380" y="328" on="0"/>
        <pt x="362" y="289" on="1"/>
        <pt x="352" y="267" on="0"/>
        <pt x="323" y="200" on="0"/>
        <pt x="287" y="124" on="0"/>
        <pt x="246" y="47" on="0"/>
        <pt x="202" y="-14" on="0"/>
        <pt x="156" y="-53" on="0"/>
        <pt x="133" y="-53" on="1"/>
        <pt x="101" y="-53" on="0"/>
        <pt x="74" y="-6" on="0"/>
        <pt x="74" y="23" on="1"/>
        <pt x="74" y="51" on="0"/>
        <pt x="93" y="114" on="0"/>
        <pt x="122" y="176" on="0"/>
        <pt x="157" y="234" on="0"/>
        <pt x="172" y="257" on="1"/>
        <pt x="152" y="262" on="0"/>
        <pt x="114" y="288" on="0"/>
        <pt x="105" y="306" on="1"/>
        <pt x="89" y="341" on="0"/>
        <pt x="55" y="429" on="0"/>
        <pt x="28" y="520" on="0"/>
        <pt x="10" y="611" on="0"/>
        <pt x="10" y="649" on="1"/>
        <pt x="10" y="667" on="0"/>
        <pt x="18" y="710" on="0"/>
        <pt x="37" y="747" on="0"/>
        <pt x="68" y="772" on="0"/>
        <pt x="91" y="772" on="1"/>
        <pt x="117" y="772" on="0"/>
        <pt x="157" y="733" on="0"/>
        <pt x="188" y="673" on="0"/>
        <pt x="210" y="599" on="0"/>
        <pt x="226" y="527" on="0"/>
        <pt x="236" y="467" on="0"/>
        <pt x="240" y="450" on="1"/>
        <pt x="244" y="465" on="0"/>
        <pt x="263" y="526" on="0"/>
        <pt x="290" y="600" on="0"/>
        <pt x="325" y="678" on="0"/>
        <pt x="364" y="742" on="0"/>
        <pt x="408" y="783" on="0"/>
        <pt x="431" y="783" on="1"/>
        <pt x="446" y="783" on="0"/>
        <pt x="466" y="761" on="0"/>
        <pt x="477" y="731" on="0"/>
        <pt x="481" y="699" on="0"/>
      </contour>
    </TTGlyph>
    <TTGlyph name="Yacute" xMin="10" yMin="-53" xMax="481" yMax="959">
      <component glyphName="Y" x="0" y="0" flags="0x204"/>
      <component glyphName="acute" x="195" y="184" flags="0x4"/>
    </TTGlyph>
    <TTGlyph name="Ydieresis" xMin="10" yMin="-53" xMax="481" yMax="965">
      <component glyphName="Y" x="0" y="0" flags="0x204"/>
      <component glyphName="dieresis" x="72" y="236" flags="0x4"/>
    </TTGlyph>
    <TTGlyph name="Z" xMin="5" yMin="-14" xMax="450" yMax="769">
      <contour>
        <pt x="450" y="662" on="1"/>
        <pt x="450" y="657" on="0"/>
        <pt x="431" y="609" on="0"/>
        <pt x="399" y="539" on="0"/>
        <pt x="358" y="452" on="0"/>
        <pt x="314" y="361" on="0"/>
        <pt x="272" y="273" on="0"/>
        <pt x="237" y="202" on="0"/>
        <pt x="213" y="153" on="0"/>
        <pt x="210" y="147" on="1"/>
        <pt x="241" y="157" on="0"/>
        <pt x="306" y="170" on="0"/>
        <pt x="339" y="170" on="1"/>
        <pt x="355" y="170" on="0"/>
        <pt x="391" y="165" on="0"/>
        <pt x="422" y="150" on="0"/>
        <pt x="443" y="125" on="0"/>
        <pt x="443" y="104" on="1"/>
        <pt x="443" y="82" on="0"/>
        <pt x="413" y="47" on="0"/>
        <pt x="366" y="21" on="0"/>
        <pt x="306" y="3" on="0"/>
        <pt x="246" y="-9" on="0"/>
        <pt x="192" y="-14" on="0"/>
        <pt x="174" y="-14" on="1"/>
        <pt x="151" y="-14" on="0"/>
        <pt x="96" y="-10" on="0"/>
        <pt x="46" y="8" on="0"/>
        <pt x="13" y="43" on="0"/>
        <pt x="13" y="75" on="1"/>
        <pt x="13" y="97" on="0"/>
        <pt x="38" y="172" on="0"/>
        <pt x="72" y="251" on="0"/>
        <pt x="109" y="324" on="0"/>
        <pt x="120" y="345" on="1"/>
        <pt x="154" y="408" on="0"/>
        <pt x="223" y="533" on="0"/>
        <pt x="256" y="597" on="1"/>
        <pt x="221" y="577" on="0"/>
        <pt x="131" y="544" on="0"/>
        <pt x="91" y="544" on="1"/>
        <pt x="77" y="544" on="0"/>
        <pt x="46" y="552" on="0"/>
        <pt x="21" y="567" on="0"/>
        <pt x="5" y="591" on="0"/>
        <pt x="5" y="607" on="1"/>
        <pt x="5" y="633" on="0"/>
        <pt x="39" y="677" on="0"/>
        <pt x="94" y="713" on="0"/>
        <pt x="163" y="741" on="0"/>
        <pt x="233" y="759" on="0"/>
        <pt x="296" y="769" on="0"/>
        <pt x="318" y="769" on="1"/>
        <pt x="376" y="769" on="0"/>
        <pt x="450" y="723" on="0"/>
      </contour>
    </TTGlyph>
    <TTGlyph name="Zcaron" xMin="5" yMin="-14" xMax="450" yMax="982">
      <component glyphName="Z" x="0" y="0" flags="0x204"/>
      <component glyphName="caron" x="92" y="225" flags="0x4"/>
    </TTGlyph>
    <TTGlyph name="a" xMin="5" yMin="-30" xMax="455" yMax="581">
      <contour>
        <pt x="455" y="141" on="1"/>
        <pt x="455" y="123" on="0"/>
        <pt x="452" y="65" on="0"/>
        <pt x="438" y="10" on="0"/>
        <pt x="408" y="-30" on="0"/>
        <pt x="381" y="-30" on="1"/>
        <pt x="344" y="-30" on="0"/>
        <pt x="304" y="18" on="0"/>
        <pt x="305" y="54" on="1"/>
        <pt x="273" y="26" on="0"/>
        <pt x="192" y="-6" on="0"/>
        <pt x="150" y="-6" on="1"/>
        <pt x="121" y="-6" on="0"/>
        <pt x="69" y="22" on="0"/>
        <pt x="29" y="66" on="0"/>
        <pt x="5" y="121" on="0"/>
        <pt x="5" y="148" on="1"/>
        <pt x="5" y="196" on="0"/>
        <pt x="64" y="268" on="0"/>
        <pt x="150" y="319" on="0"/>
        <pt x="247" y="349" on="0"/>
        <pt x="285" y="354" on="1"/>
        <pt x="285" y="359" on="0"/>
        <pt x="286" y="367" on="0"/>
        <pt x="286" y="372" on="1"/>
        <pt x="286" y="403" on="0"/>
        <pt x="252" y="441" on="0"/>
        <pt x="221" y="441" on="1"/>
        <pt x="196" y="441" on="0"/>
        <pt x="160" y="424" on="0"/>
        <pt x="128" y="403" on="0"/>
        <pt x="96" y="386" on="0"/>
        <pt x="76" y="386" on="1"/>
        <pt x="54" y="386" on="0"/>
        <pt x="23" y="414" on="0"/>
        <pt x="23" y="436" on="1"/>
        <pt x="23" y="469" on="0"/>
        <pt x="62" y="523" on="0"/>
        <pt x="121" y="560" on="0"/>
        <pt x="190" y="581" on="0"/>
        <pt x="219" y="581" on="1"/>
        <pt x="246" y="581" on="0"/>
        <pt x="300" y="568" on="0"/>
        <pt x="348" y="541" on="0"/>
        <pt x="387" y="502" on="0"/>
        <pt x="399" y="476" on="1"/>
        <pt x="417" y="439" on="0"/>
        <pt x="439" y="356" on="0"/>
        <pt x="451" y="269" on="0"/>
        <pt x="455" y="182" on="0"/>
      </contour>
      <contour>
        <pt x="295" y="173" on="1"/>
        <pt x="292" y="241" on="1"/>
        <pt x="290" y="241" on="0"/>
        <pt x="286" y="242" on="0"/>
        <pt x="284" y="242" on="1"/>
        <pt x="271" y="242" on="0"/>
        <pt x="232" y="229" on="0"/>
        <pt x="196" y="206" on="0"/>
        <pt x="171" y="178" on="0"/>
        <pt x="171" y="163" on="1"/>
        <pt x="171" y="149" on="0"/>
        <pt x="191" y="139" on="0"/>
        <pt x="204" y="139" on="1"/>
        <pt x="226" y="139" on="0"/>
        <pt x="276" y="162" on="0"/>
      </contour>
    </TTGlyph>
    <TTGlyph name="aacute" xMin="5" yMin="-30" xMax="455" yMax="795">
      <component glyphName="a" x="0" y="0" flags="0x204"/>
      <component glyphName="acute" x="164" y="20" flags="0x4"/>
    </TTGlyph>
    <TTGlyph name="acircumflex" xMin="5" yMin="-30" xMax="455" yMax="788">
      <component glyphName="a" x="0" y="0" flags="0x204"/>
      <component glyphName="circumflex" x="82" y="31" flags="0x4"/>
    </TTGlyph>
    <TTGlyph name="acute" xMin="31" yMin="629" xMax="179" yMax="775">
      <contour>
        <pt x="179" y="737" on="1"/>
        <pt x="179" y="726" on="0"/>
        <pt x="167" y="705" on="0"/>
        <pt x="150" y="687" on="0"/>
        <pt x="130" y="672" on="0"/>
        <pt x="122" y="666" on="1"/>
        <pt x="115" y="661" on="0"/>
        <pt x="98" y="648" on="0"/>
        <pt x="79" y="637" on="0"/>
        <pt x="60" y="629" on="0"/>
        <pt x="51" y="629" on="1"/>
        <pt x="43" y="629" on="0"/>
        <pt x="31" y="638" on="0"/>
        <pt x="31" y="647" on="1"/>
        <pt x="31" y="662" on="0"/>
        <pt x="54" y="705" on="0"/>
        <pt x="88" y="746" on="0"/>
        <pt x="126" y="775" on="0"/>
        <pt x="142" y="775" on="1"/>
        <pt x="156" y="775" on="0"/>
        <pt x="179" y="752" on="0"/>
      </contour>
    </TTGlyph>
    <TTGlyph name="adieresis" xMin="5" yMin="-30" xMax="455" yMax="790">
      <component glyphName="a" x="0" y="0" flags="0x204"/>
      <component glyphName="dieresis" x="51" y="61" flags="0x4"/>
    </TTGlyph>
    <TTGlyph name="ae" xMin="5" yMin="-18" xMax="827" yMax="608">
      <contour>
        <pt x="827" y="164" on="1"/>
        <pt x="827" y="147" on="0"/>
        <pt x="813" y="112" on="0"/>
        <pt x="804" y="98" on="1"/>
        <pt x="789" y="74" on="0"/>
        <pt x="748" y="32" on="0"/>
        <pt x="698" y="1" on="0"/>
        <pt x="643" y="-18" on="0"/>
        <pt x="614" y="-18" on="1"/>
        <pt x="561" y="-18" on="0"/>
        <pt x="477" y="37" on="0"/>
        <pt x="449" y="80" on="1"/>
        <pt x="446" y="71" on="0"/>
        <pt x="433" y="43" on="0"/>
        <pt x="415" y="16" on="0"/>
        <pt x="393" y="-3" on="0"/>
        <pt x="381" y="-3" on="1"/>
        <pt x="344" y="-3" on="0"/>
        <pt x="304" y="45" on="0"/>
        <pt x="305" y="81" on="1"/>
        <pt x="273" y="53" on="0"/>
        <pt x="192" y="20" on="0"/>
        <pt x="150" y="20" on="1"/>
        <pt x="121" y="20" on="0"/>
        <pt x="69" y="48" on="0"/>
        <pt x="29" y="92" on="0"/>
        <pt x="5" y="147" on="0"/>
        <pt x="5" y="175" on="1"/>
        <pt x="5" y="223" on="0"/>
        <pt x="64" y="295" on="0"/>
        <pt x="150" y="346" on="0"/>
        <pt x="247" y="376" on="0"/>
        <pt x="285" y="381" on="1"/>
        <pt x="285" y="386" on="0"/>
        <pt x="286" y="394" on="0"/>
        <pt x="286" y="398" on="1"/>
        <pt x="286" y="429" on="0"/>
        <pt x="252" y="468" on="0"/>
        <pt x="221" y="468" on="1"/>
        <pt x="196" y="468" on="0"/>
        <pt x="160" y="451" on="0"/>
        <pt x="128" y="431" on="0"/>
        <pt x="96" y="414" on="0"/>
        <pt x="76" y="414" on="1"/>
        <pt x="54" y="414" on="0"/>
        <pt x="23" y="441" on="0"/>
        <pt x="23" y="464" on="1"/>
        <pt x="23" y="498" on="0"/>
        <pt x="64" y="552" on="0"/>
        <pt x="124" y="589" on="0"/>
        <pt x="195" y="608" on="0"/>
        <pt x="225" y="608" on="1"/>
        <pt x="252" y="608" on="0"/>
        <pt x="307" y="596" on="0"/>
        <pt x="354" y="571" on="0"/>
        <pt x="390" y="531" on="0"/>
        <pt x="399" y="504" on="1"/>
        <pt x="408" y="477" on="0"/>
        <pt x="419" y="421" on="0"/>
        <pt x="428" y="394" on="1"/>
        <pt x="442" y="428" on="0"/>
        <pt x="482" y="495" on="0"/>
        <pt x="534" y="546" on="0"/>
        <pt x="601" y="578" on="0"/>
        <pt x="642" y="578" on="1"/>
        <pt x="675" y="578" on="0"/>
        <pt x="732" y="558" on="0"/>
        <pt x="773" y="520" on="0"/>
        <pt x="797" y="465" on="0"/>
        <pt x="797" y="431" on="1"/>
        <pt x="797" y="383" on="0"/>
        <pt x="757" y="301" on="0"/>
        <pt x="691" y="240" on="0"/>
        <pt x="605" y="203" on="0"/>
        <pt x="559" y="201" on="1"/>
        <pt x="563" y="172" on="0"/>
        <pt x="602" y="145" on="0"/>
        <pt x="629" y="145" on="1"/>
        <pt x="649" y="145" on="0"/>
        <pt x="687" y="165" on="0"/>
        <pt x="723" y="190" on="0"/>
        <pt x="758" y="210" on="0"/>
        <pt x="776" y="210" on="1"/>
        <pt x="796" y="210" on="0"/>
        <pt x="827" y="184" on="0"/>
      </contour>
      <contour>
        <pt x="677" y="404" on="1"/>
        <pt x="677" y="422" on="0"/>
        <pt x="658" y="450" on="0"/>
        <pt x="638" y="450" on="1"/>
        <pt x="613" y="450" on="0"/>
        <pt x="578" y="424" on="0"/>
        <pt x="555" y="385" on="0"/>
        <pt x="544" y="338" on="0"/>
        <pt x="544" y="318" on="1"/>
        <pt x="544" y="316" on="0"/>
        <pt x="545" y="304" on="0"/>
        <pt x="549" y="304" on="1"/>
        <pt x="570" y="304" on="0"/>
        <pt x="615" y="318" on="0"/>
        <pt x="652" y="344" on="0"/>
        <pt x="677" y="381" on="0"/>
      </contour>
      <contour>
        <pt x="295" y="201" on="1"/>
        <pt x="292" y="267" on="1"/>
        <pt x="289" y="268" on="0"/>
        <pt x="284" y="268" on="1"/>
        <pt x="271" y="268" on="0"/>
        <pt x="232" y="255" on="0"/>
        <pt x="196" y="232" on="0"/>
        <pt x="171" y="204" on="0"/>
        <pt x="171" y="189" on="1"/>
        <pt x="171" y="176" on="0"/>
        <pt x="191" y="166" on="0"/>
        <pt x="204" y="166" on="1"/>
        <pt x="226" y="166" on="0"/>
        <pt x="276" y="189" on="0"/>
      </contour>
    </TTGlyph>
    <TTGlyph name="agrave" xMin="5" yMin="-30" xMax="455" yMax="788">
      <component glyphName="a" x="0" y="0" flags="0x204"/>
      <component glyphName="grave" x="133" y="20" flags="0x4"/>
    </TTGlyph>
    <TTGlyph name="ampersand" xMin="31" yMin="-53" xMax="681" yMax="778">
      <contour>
        <pt x="584" y="141" on="1"/>
        <pt x="593" y="129" on="0"/>
        <pt x="619" y="93" on="0"/>
        <pt x="643" y="52" on="0"/>
        <pt x="660" y="13" on="0"/>
        <pt x="660" y="0" on="1"/>
        <pt x="660" y="-24" on="0"/>
        <pt x="626" y="-53" on="0"/>
        <pt x="605" y="-53" on="1"/>
        <pt x="590" y="-53" on="0"/>
        <pt x="550" y="-28" on="0"/>
        <pt x="510" y="6" on="0"/>
        <pt x="473" y="41" on="0"/>
        <pt x="463" y="52" on="1"/>
        <pt x="417" y="22" on="0"/>
        <pt x="297" y="-10" on="0"/>
        <pt x="243" y="-10" on="1"/>
        <pt x="196" y="-10" on="0"/>
        <pt x="119" y="18" on="0"/>
        <pt x="62" y="71" on="0"/>
        <pt x="31" y="148" on="0"/>
        <pt x="31" y="196" on="1"/>
        <pt x="31" y="234" on="0"/>
        <pt x="62" y="303" on="0"/>
        <pt x="110" y="362" on="0"/>
        <pt x="168" y="411" on="0"/>
        <pt x="196" y="431" on="1"/>
        <pt x="182" y="449" on="0"/>
        <pt x="160" y="492" on="0"/>
        <pt x="145" y="538" on="0"/>
        <pt x="137" y="585" on="0"/>
        <pt x="137" y="606" on="1"/>
        <pt x="137" y="642" on="0"/>
        <pt x="163" y="705" on="0"/>
        <pt x="208" y="752" on="0"/>
        <pt x="271" y="778" on="0"/>
        <pt x="308" y="778" on="1"/>
        <pt x="342" y="778" on="0"/>
        <pt x="406" y="750" on="0"/>
        <pt x="456" y="703" on="0"/>
        <pt x="487" y="640" on="0"/>
        <pt x="487" y="604" on="1"/>
        <pt x="487" y="576" on="0"/>
        <pt x="468" y="527" on="0"/>
        <pt x="437" y="483" on="0"/>
        <pt x="400" y="443" on="0"/>
        <pt x="382" y="425" on="1"/>
        <pt x="411" y="381" on="0"/>
        <pt x="472" y="297" on="0"/>
        <pt x="503" y="254" on="1"/>
        <pt x="515" y="266" on="0"/>
        <pt x="545" y="293" on="0"/>
        <pt x="579" y="316" on="0"/>
        <pt x="615" y="331" on="0"/>
        <pt x="633" y="331" on="1"/>
        <pt x="658" y="331" on="0"/>
        <pt x="681" y="304" on="0"/>
        <pt x="681" y="281" on="1"/>
        <pt x="681" y="260" on="0"/>
        <pt x="661" y="219" on="0"/>
        <pt x="632" y="183" on="0"/>
        <pt x="598" y="152" on="0"/>
      </contour>
      <contour>
        <pt x="301" y="642" on="1"/>
        <pt x="281" y="642" on="0"/>
        <pt x="265" y="616" on="0"/>
        <pt x="265" y="594" on="1"/>
        <pt x="265" y="569" on="0"/>
        <pt x="286" y="528" on="0"/>
        <pt x="305" y="512" on="1"/>
        <pt x="325" y="529" on="0"/>
        <pt x="356" y="575" on="0"/>
        <pt x="356" y="600" on="1"/>
        <pt x="356" y="617" on="0"/>
        <pt x="319" y="642" on="0"/>
      </contour>
      <contour>
        <pt x="268" y="323" on="1"/>
        <pt x="236" y="300" on="0"/>
        <pt x="199" y="237" on="0"/>
        <pt x="199" y="198" on="1"/>
        <pt x="199" y="132" on="0"/>
        <pt x="267" y="132" on="1"/>
        <pt x="295" y="132" on="0"/>
        <pt x="356" y="153" on="0"/>
        <pt x="381" y="169" on="1"/>
        <pt x="365" y="190" on="0"/>
        <pt x="337" y="226" on="0"/>
        <pt x="311" y="262" on="0"/>
        <pt x="284" y="300" on="0"/>
      </contour>
    </TTGlyph>
    <TTGlyph name="aring" xMin="5" yMin="-30" xMax="455" yMax="741">
      <contour>
        <pt x="295" y="173" on="1"/>
        <pt x="292" y="241" on="1"/>
        <pt x="290" y="241" on="0"/>
        <pt x="286" y="242" on="0"/>
        <pt x="284" y="242" on="1"/>
        <pt x="271" y="242" on="0"/>
        <pt x="232" y="229" on="0"/>
        <pt x="196" y="206" on="0"/>
        <pt x="171" y="178" on="0"/>
        <pt x="171" y="163" on="1"/>
        <pt x="171" y="149" on="0"/>
        <pt x="191" y="139" on="0"/>
        <pt x="204" y="139" on="1"/>
        <pt x="226" y="139" on="0"/>
        <pt x="276" y="162" on="0"/>
      </contour>
      <contour>
        <pt x="330" y="652" on="1"/>
        <pt x="330" y="626" on="0"/>
        <pt x="301" y="584" on="0"/>
        <pt x="278" y="573" on="1"/>
        <pt x="316" y="562" on="0"/>
        <pt x="381" y="514" on="0"/>
        <pt x="399" y="476" on="1"/>
        <pt x="417" y="439" on="0"/>
        <pt x="439" y="356" on="0"/>
        <pt x="451" y="269" on="0"/>
        <pt x="455" y="182" on="0"/>
        <pt x="455" y="141" on="1"/>
        <pt x="455" y="123" on="0"/>
        <pt x="452" y="65" on="0"/>
        <pt x="438" y="10" on="0"/>
        <pt x="408" y="-30" on="0"/>
        <pt x="381" y="-30" on="1"/>
        <pt x="344" y="-30" on="0"/>
        <pt x="304" y="18" on="0"/>
        <pt x="305" y="54" on="1"/>
        <pt x="273" y="26" on="0"/>
        <pt x="192" y="-6" on="0"/>
        <pt x="150" y="-6" on="1"/>
        <pt x="121" y="-6" on="0"/>
        <pt x="69" y="22" on="0"/>
        <pt x="29" y="66" on="0"/>
        <pt x="5" y="121" on="0"/>
        <pt x="5" y="148" on="1"/>
        <pt x="5" y="196" on="0"/>
        <pt x="64" y="268" on="0"/>
        <pt x="150" y="319" on="0"/>
        <pt x="247" y="349" on="0"/>
        <pt x="285" y="354" on="1"/>
        <pt x="285" y="359" on="0"/>
        <pt x="286" y="367" on="0"/>
        <pt x="286" y="372" on="1"/>
        <pt x="286" y="403" on="0"/>
        <pt x="252" y="441" on="0"/>
        <pt x="221" y="441" on="1"/>
        <pt x="196" y="441" on="0"/>
        <pt x="160" y="424" on="0"/>
        <pt x="128" y="403" on="0"/>
        <pt x="96" y="386" on="0"/>
        <pt x="76" y="386" on="1"/>
        <pt x="54" y="386" on="0"/>
        <pt x="23" y="414" on="0"/>
        <pt x="23" y="436" on="1"/>
        <pt x="23" y="464" on="0"/>
        <pt x="53" y="512" on="0"/>
        <pt x="100" y="549" on="0"/>
        <pt x="158" y="573" on="0"/>
        <pt x="186" y="578" on="1"/>
        <pt x="167" y="589" on="0"/>
        <pt x="143" y="629" on="0"/>
        <pt x="143" y="652" on="1"/>
        <pt x="143" y="671" on="0"/>
        <pt x="158" y="704" on="0"/>
        <pt x="184" y="728" on="0"/>
        <pt x="218" y="741" on="0"/>
        <pt x="237" y="741" on="1"/>
        <pt x="255" y="741" on="0"/>
        <pt x="289" y="728" on="0"/>
        <pt x="315" y="704" on="0"/>
        <pt x="330" y="671" on="0"/>
      </contour>
      <contour>
        <pt x="289" y="651" on="1"/>
        <pt x="289" y="672" on="0"/>
        <pt x="259" y="699" on="0"/>
        <pt x="239" y="699" on="1"/>
        <pt x="219" y="699" on="0"/>
        <pt x="188" y="672" on="0"/>
        <pt x="188" y="651" on="1"/>
        <pt x="188" y="631" on="0"/>
        <pt x="219" y="604" on="0"/>
        <pt x="239" y="604" on="1"/>
        <pt x="259" y="604" on="0"/>
        <pt x="289" y="631" on="0"/>
      </contour>
    </TTGlyph>
    <TTGlyph name="asciicircum" xMin="15" yMin="479" xMax="444" yMax="758">
      <contour>
        <pt x="444" y="509" on="1"/>
        <pt x="444" y="497" on="0"/>
        <pt x="427" y="484" on="0"/>
        <pt x="416" y="484" on="1"/>
        <pt x="399" y="484" on="0"/>
        <pt x="342" y="531" on="0"/>
        <pt x="282" y="593" on="0"/>
        <pt x="228" y="654" on="0"/>
        <pt x="215" y="669" on="1"/>
        <pt x="203" y="652" on="0"/>
        <pt x="161" y="589" on="0"/>
        <pt x="113" y="526" on="0"/>
        <pt x="63" y="479" on="0"/>
        <pt x="43" y="479" on="1"/>
        <pt x="32" y="479" on="0"/>
        <pt x="15" y="487" on="0"/>
        <pt x="15" y="501" on="1"/>
        <pt x="15" y="516" on="0"/>
        <pt x="36" y="565" on="0"/>
        <pt x="71" y="622" on="0"/>
        <pt x="114" y="681" on="0"/>
        <pt x="159" y="728" on="0"/>
        <pt x="202" y="758" on="0"/>
        <pt x="218" y="758" on="1"/>
        <pt x="232" y="758" on="0"/>
        <pt x="276" y="729" on="0"/>
        <pt x="326" y="683" on="0"/>
        <pt x="377" y="626" on="0"/>
        <pt x="418" y="570" on="0"/>
        <pt x="444" y="523" on="0"/>
      </contour>
    </TTGlyph>
    <TTGlyph name="asciitilde" xMin="15" yMin="204" xMax="508" yMax="346">
      <contour>
        <pt x="508" y="287" on="1"/>
        <pt x="508" y="277" on="0"/>
        <pt x="499" y="263" on="0"/>
        <pt x="492" y="258" on="1"/>
        <pt x="481" y="250" on="0"/>
        <pt x="442" y="231" on="0"/>
        <pt x="397" y="215" on="0"/>
        <pt x="354" y="204" on="0"/>
        <pt x="341" y="204" on="1"/>
        <pt x="313" y="204" on="0"/>
        <pt x="265" y="224" on="0"/>
        <pt x="222" y="248" on="0"/>
        <pt x="182" y="268" on="0"/>
        <pt x="163" y="268" on="1"/>
        <pt x="145" y="268" on="0"/>
        <pt x="116" y="255" on="0"/>
        <pt x="91" y="239" on="0"/>
        <pt x="69" y="226" on="0"/>
        <pt x="58" y="226" on="1"/>
        <pt x="42" y="226" on="0"/>
        <pt x="15" y="248" on="0"/>
        <pt x="15" y="265" on="1"/>
        <pt x="15" y="284" on="0"/>
        <pt x="47" y="315" on="0"/>
        <pt x="91" y="335" on="0"/>
        <pt x="139" y="346" on="0"/>
        <pt x="154" y="346" on="1"/>
        <pt x="177" y="346" on="0"/>
        <pt x="223" y="327" on="0"/>
        <pt x="271" y="304" on="0"/>
        <pt x="322" y="285" on="0"/>
        <pt x="351" y="285" on="1"/>
        <pt x="374" y="285" on="0"/>
        <pt x="411" y="297" on="0"/>
        <pt x="441" y="312" on="0"/>
        <pt x="463" y="324" on="0"/>
        <pt x="471" y="324" on="1"/>
        <pt x="485" y="324" on="0"/>
        <pt x="508" y="301" on="0"/>
      </contour>
    </TTGlyph>
    <TTGlyph name="asterisk" xMin="31" yMin="291" xMax="439" yMax="758">
      <contour>
        <pt x="439" y="631" on="1"/>
        <pt x="439" y="620" on="0"/>
        <pt x="409" y="589" on="0"/>
        <pt x="369" y="557" on="0"/>
        <pt x="331" y="531" on="0"/>
        <pt x="323" y="525" on="1"/>
        <pt x="332" y="519" on="0"/>
        <pt x="370" y="489" on="0"/>
        <pt x="409" y="454" on="0"/>
        <pt x="439" y="419" on="0"/>
        <pt x="439" y="407" on="1"/>
        <pt x="439" y="399" on="0"/>
        <pt x="429" y="395" on="0"/>
        <pt x="423" y="395" on="1"/>
        <pt x="410" y="395" on="0"/>
        <pt x="370" y="407" on="0"/>
        <pt x="329" y="425" on="0"/>
        <pt x="291" y="443" on="0"/>
        <pt x="279" y="449" on="1"/>
        <pt x="279" y="440" on="0"/>
        <pt x="276" y="389" on="0"/>
        <pt x="268" y="334" on="0"/>
        <pt x="253" y="291" on="0"/>
        <pt x="240" y="291" on="1"/>
        <pt x="224" y="291" on="0"/>
        <pt x="205" y="332" on="0"/>
        <pt x="195" y="385" on="0"/>
        <pt x="191" y="436" on="0"/>
        <pt x="190" y="447" on="1"/>
        <pt x="178" y="441" on="0"/>
        <pt x="143" y="422" on="0"/>
        <pt x="105" y="406" on="0"/>
        <pt x="68" y="394" on="0"/>
        <pt x="54" y="394" on="1"/>
        <pt x="45" y="394" on="0"/>
        <pt x="31" y="403" on="0"/>
        <pt x="31" y="414" on="1"/>
        <pt x="31" y="427" on="0"/>
        <pt x="60" y="460" on="0"/>
        <pt x="98" y="491" on="0"/>
        <pt x="136" y="517" on="0"/>
        <pt x="146" y="523" on="1"/>
        <pt x="137" y="529" on="0"/>
        <pt x="99" y="554" on="0"/>
        <pt x="62" y="584" on="0"/>
        <pt x="33" y="615" on="0"/>
        <pt x="33" y="627" on="1"/>
        <pt x="33" y="638" on="0"/>
        <pt x="50" y="646" on="0"/>
        <pt x="59" y="646" on="1"/>
        <pt x="72" y="646" on="0"/>
        <pt x="108" y="636" on="0"/>
        <pt x="144" y="622" on="0"/>
        <pt x="177" y="606" on="0"/>
        <pt x="189" y="600" on="1"/>
        <pt x="190" y="608" on="0"/>
        <pt x="197" y="660" on="0"/>
        <pt x="210" y="715" on="0"/>
        <pt x="228" y="758" on="0"/>
        <pt x="240" y="758" on="1"/>
        <pt x="250" y="758" on="0"/>
        <pt x="264" y="715" on="0"/>
        <pt x="272" y="659" on="0"/>
        <pt x="277" y="608" on="0"/>
        <pt x="278" y="600" on="1"/>
        <pt x="291" y="606" on="0"/>
        <pt x="326" y="621" on="0"/>
        <pt x="365" y="633" on="0"/>
        <pt x="402" y="642" on="0"/>
        <pt x="417" y="642" on="1"/>
        <pt x="422" y="642" on="0"/>
        <pt x="439" y="639" on="0"/>
      </contour>
    </TTGlyph>
    <TTGlyph name="at" xMin="15" yMin="-2" xMax="709" yMax="740">
      <contour>
        <pt x="709" y="417" on="1"/>
        <pt x="709" y="373" on="0"/>
        <pt x="685" y="282" on="0"/>
        <pt x="637" y="209" on="0"/>
        <pt x="563" y="162" on="0"/>
        <pt x="513" y="162" on="1"/>
        <pt x="475" y="162" on="0"/>
        <pt x="420" y="216" on="0"/>
        <pt x="415" y="253" on="1"/>
        <pt x="414" y="233" on="0"/>
        <pt x="395" y="203" on="0"/>
        <pt x="366" y="184" on="0"/>
        <pt x="330" y="174" on="0"/>
        <pt x="312" y="174" on="1"/>
        <pt x="280" y="174" on="0"/>
        <pt x="229" y="202" on="0"/>
        <pt x="193" y="248" on="0"/>
        <pt x="173" y="306" on="0"/>
        <pt x="173" y="335" on="1"/>
        <pt x="173" y="381" on="0"/>
        <pt x="209" y="465" on="0"/>
        <pt x="270" y="530" on="0"/>
        <pt x="352" y="569" on="0"/>
        <pt x="399" y="569" on="1"/>
        <pt x="420" y="569" on="0"/>
        <pt x="471" y="560" on="0"/>
        <pt x="489" y="551" on="1"/>
        <pt x="503" y="544" on="0"/>
        <pt x="508" y="509" on="0"/>
        <pt x="508" y="497" on="1"/>
        <pt x="508" y="468" on="0"/>
        <pt x="498" y="408" on="0"/>
        <pt x="492" y="379" on="1"/>
        <pt x="487" y="358" on="0"/>
        <pt x="478" y="317" on="0"/>
        <pt x="478" y="296" on="1"/>
        <pt x="478" y="279" on="0"/>
        <pt x="490" y="252" on="0"/>
        <pt x="510" y="252" on="1"/>
        <pt x="535" y="252" on="0"/>
        <pt x="573" y="293" on="0"/>
        <pt x="598" y="351" on="0"/>
        <pt x="610" y="413" on="0"/>
        <pt x="610" y="434" on="1"/>
        <pt x="610" y="484" on="0"/>
        <pt x="572" y="559" on="0"/>
        <pt x="508" y="608" on="0"/>
        <pt x="423" y="633" on="0"/>
        <pt x="375" y="633" on="1"/>
        <pt x="315" y="633" on="0"/>
        <pt x="220" y="590" on="0"/>
        <pt x="154" y="516" on="0"/>
        <pt x="118" y="415" on="0"/>
        <pt x="118" y="358" on="1"/>
        <pt x="118" y="299" on="0"/>
        <pt x="154" y="201" on="0"/>
        <pt x="221" y="130" on="0"/>
        <pt x="317" y="90" on="0"/>
        <pt x="377" y="90" on="1"/>
        <pt x="408" y="90" on="0"/>
        <pt x="465" y="102" on="0"/>
        <pt x="518" y="117" on="0"/>
        <pt x="567" y="129" on="0"/>
        <pt x="591" y="129" on="1"/>
        <pt x="604" y="129" on="0"/>
        <pt x="637" y="117" on="0"/>
        <pt x="637" y="100" on="1"/>
        <pt x="637" y="81" on="0"/>
        <pt x="603" y="51" on="0"/>
        <pt x="551" y="28" on="0"/>
        <pt x="487" y="13" on="0"/>
        <pt x="425" y="3" on="0"/>
        <pt x="375" y="-2" on="0"/>
        <pt x="362" y="-2" on="1"/>
        <pt x="332" y="-2" on="0"/>
        <pt x="263" y="5" on="0"/>
        <pt x="234" y="16" on="1"/>
        <pt x="178" y="37" on="0"/>
        <pt x="96" y="108" on="0"/>
        <pt x="42" y="199" on="0"/>
        <pt x="15" y="307" on="0"/>
        <pt x="15" y="365" on="1"/>
        <pt x="15" y="441" on="0"/>
        <pt x="70" y="577" on="0"/>
        <pt x="168" y="680" on="0"/>
        <pt x="302" y="740" on="0"/>
        <pt x="381" y="740" on="1"/>
        <pt x="453" y="740" on="0"/>
        <pt x="573" y="694" on="0"/>
        <pt x="660" y="609" on="0"/>
        <pt x="709" y="490" on="0"/>
      </contour>
      <contour>
        <pt x="428" y="474" on="1"/>
        <pt x="423" y="475" on="0"/>
        <pt x="412" y="475" on="0"/>
        <pt x="407" y="475" on="1"/>
        <pt x="389" y="475" on="0"/>
        <pt x="351" y="467" on="0"/>
        <pt x="317" y="451" on="0"/>
        <pt x="289" y="427" on="0"/>
        <pt x="281" y="411" on="1"/>
        <pt x="272" y="393" on="0"/>
        <pt x="260" y="355" on="0"/>
        <pt x="260" y="336" on="1"/>
        <pt x="260" y="324" on="0"/>
        <pt x="268" y="297" on="0"/>
        <pt x="283" y="275" on="0"/>
        <pt x="304" y="261" on="0"/>
        <pt x="318" y="261" on="1"/>
        <pt x="330" y="261" on="0"/>
        <pt x="358" y="277" on="0"/>
        <pt x="383" y="299" on="0"/>
        <pt x="401" y="325" on="0"/>
        <pt x="403" y="335" on="1"/>
        <pt x="411" y="370" on="0"/>
        <pt x="422" y="439" on="0"/>
      </contour>
    </TTGlyph>
    <TTGlyph name="atilde" xMin="5" yMin="-30" xMax="455" yMax="782">
      <component glyphName="a" x="0" y="0" flags="0x204"/>
      <component glyphName="tilde" x="41" y="31" flags="0x4"/>
    </TTGlyph>
    <TTGlyph name="b" xMin="36" yMin="-11" xMax="503" yMax="772">
      <contour>
        <pt x="503" y="330" on="1"/>
        <pt x="503" y="301" on="0"/>
        <pt x="494" y="228" on="0"/>
        <pt x="475" y="152" on="0"/>
        <pt x="444" y="80" on="0"/>
        <pt x="399" y="23" on="0"/>
        <pt x="340" y="-11" on="0"/>
        <pt x="301" y="-11" on="1"/>
        <pt x="260" y="-11" on="0"/>
        <pt x="193" y="27" on="0"/>
        <pt x="169" y="60" on="1"/>
        <pt x="166" y="33" on="0"/>
        <pt x="128" y="-8" on="0"/>
        <pt x="99" y="-8" on="1"/>
        <pt x="82" y="-8" on="0"/>
        <pt x="59" y="26" on="0"/>
        <pt x="45" y="79" on="0"/>
        <pt x="38" y="143" on="0"/>
        <pt x="36" y="203" on="0"/>
        <pt x="36" y="251" on="0"/>
        <pt x="36" y="261" on="1"/>
        <pt x="36" y="295" on="0"/>
        <pt x="37" y="363" on="0"/>
        <pt x="38" y="398" on="1"/>
        <pt x="38" y="415" on="0"/>
        <pt x="37" y="483" on="0"/>
        <pt x="39" y="566" on="0"/>
        <pt x="46" y="653" on="0"/>
        <pt x="64" y="725" on="0"/>
        <pt x="96" y="771" on="0"/>
        <pt x="121" y="772" on="1"/>
        <pt x="141" y="772" on="0"/>
        <pt x="169" y="744" on="0"/>
        <pt x="188" y="698" on="0"/>
        <pt x="199" y="641" on="0"/>
        <pt x="204" y="584" on="0"/>
        <pt x="205" y="533" on="0"/>
        <pt x="205" y="517" on="1"/>
        <pt x="205" y="514" on="0"/>
        <pt x="204" y="493" on="0"/>
        <pt x="204" y="469" on="0"/>
        <pt x="204" y="450" on="0"/>
        <pt x="204" y="449" on="1"/>
        <pt x="213" y="468" on="0"/>
        <pt x="247" y="504" on="0"/>
        <pt x="289" y="532" on="0"/>
        <pt x="335" y="550" on="0"/>
        <pt x="356" y="550" on="1"/>
        <pt x="398" y="550" on="0"/>
        <pt x="455" y="507" on="0"/>
        <pt x="489" y="441" on="0"/>
        <pt x="503" y="364" on="0"/>
      </contour>
      <contour>
        <pt x="356" y="300" on="1"/>
        <pt x="356" y="312" on="0"/>
        <pt x="353" y="340" on="0"/>
        <pt x="342" y="364" on="0"/>
        <pt x="323" y="380" on="0"/>
        <pt x="308" y="380" on="1"/>
        <pt x="292" y="380" on="0"/>
        <pt x="261" y="366" on="0"/>
        <pt x="233" y="344" on="0"/>
        <pt x="209" y="319" on="0"/>
        <pt x="200" y="307" on="1"/>
        <pt x="190" y="218" on="1"/>
        <pt x="206" y="195" on="0"/>
        <pt x="252" y="168" on="0"/>
        <pt x="281" y="168" on="1"/>
        <pt x="303" y="168" on="0"/>
        <pt x="332" y="196" on="0"/>
        <pt x="349" y="237" on="0"/>
        <pt x="356" y="283" on="0"/>
      </contour>
    </TTGlyph>
    <TTGlyph name="backslash" xMin="10" yMin="-23" xMax="336" yMax="738">
      <contour>
        <pt x="336" y="17" on="1"/>
        <pt x="336" y="7" on="0"/>
        <pt x="328" y="-23" on="0"/>
        <pt x="314" y="-23" on="1"/>
        <pt x="299" y="-23" on="0"/>
        <pt x="263" y="21" on="0"/>
        <pt x="223" y="89" on="0"/>
        <pt x="184" y="171" on="0"/>
        <pt x="151" y="249" on="0"/>
        <pt x="127" y="311" on="0"/>
        <pt x="122" y="325" on="1"/>
        <pt x="109" y="359" on="0"/>
        <pt x="71" y="457" on="0"/>
        <pt x="35" y="560" on="0"/>
        <pt x="10" y="657" on="0"/>
        <pt x="10" y="691" on="1"/>
        <pt x="10" y="697" on="0"/>
        <pt x="12" y="713" on="0"/>
        <pt x="17" y="728" on="0"/>
        <pt x="27" y="738" on="0"/>
        <pt x="35" y="738" on="1"/>
        <pt x="48" y="738" on="0"/>
        <pt x="84" y="691" on="0"/>
        <pt x="123" y="618" on="0"/>
        <pt x="163" y="529" on="0"/>
        <pt x="198" y="447" on="0"/>
        <pt x="224" y="382" on="0"/>
        <pt x="229" y="368" on="1"/>
        <pt x="242" y="336" on="0"/>
        <pt x="278" y="243" on="0"/>
        <pt x="312" y="143" on="0"/>
        <pt x="336" y="49" on="0"/>
      </contour>
    </TTGlyph>
    <TTGlyph name="bar" xMin="51" yMin="-52" xMax="170" yMax="764">
      <contour>
        <pt x="170" y="272" on="1"/>
        <pt x="170" y="261" on="0"/>
        <pt x="169" y="205" on="0"/>
        <pt x="166" y="133" on="0"/>
        <pt x="159" y="55" on="0"/>
        <pt x="146" y="-10" on="0"/>
        <pt x="126" y="-52" on="0"/>
        <pt x="111" y="-52" on="1"/>
        <pt x="96" y="-52" on="0"/>
        <pt x="76" y="-1" on="0"/>
        <pt x="63" y="79" on="0"/>
        <pt x="56" y="174" on="0"/>
        <pt x="53" y="263" on="0"/>
        <pt x="53" y="332" on="0"/>
        <pt x="53" y="346" on="1"/>
        <pt x="53" y="384" on="0"/>
        <pt x="51" y="459" on="0"/>
        <pt x="51" y="497" on="1"/>
        <pt x="51" y="506" on="0"/>
        <pt x="51" y="553" on="0"/>
        <pt x="53" y="613" on="0"/>
        <pt x="60" y="677" on="0"/>
        <pt x="72" y="730" on="0"/>
        <pt x="93" y="764" on="0"/>
        <pt x="108" y="764" on="1"/>
        <pt x="121" y="764" on="0"/>
        <pt x="140" y="711" on="0"/>
        <pt x="154" y="629" on="0"/>
        <pt x="162" y="530" on="0"/>
        <pt x="167" y="438" on="0"/>
        <pt x="169" y="364" on="0"/>
        <pt x="169" y="349" on="1"/>
        <pt x="170" y="330" on="0"/>
        <pt x="170" y="292" on="0"/>
      </contour>
    </TTGlyph>
    <TTGlyph name="braceleft" xMin="31" yMin="-59" xMax="298" yMax="806">
      <contour>
        <pt x="298" y="8" on="1"/>
        <pt x="298" y="-11" on="0"/>
        <pt x="281" y="-37" on="0"/>
        <pt x="254" y="-52" on="0"/>
        <pt x="221" y="-59" on="0"/>
        <pt x="205" y="-59" on="1"/>
        <pt x="141" y="-59" on="0"/>
        <pt x="87" y="14" on="0"/>
        <pt x="87" y="74" on="1"/>
        <pt x="87" y="111" on="0"/>
        <pt x="106" y="175" on="0"/>
        <pt x="106" y="208" on="1"/>
        <pt x="106" y="246" on="0"/>
        <pt x="83" y="282" on="0"/>
        <pt x="54" y="306" on="0"/>
        <pt x="31" y="333" on="0"/>
        <pt x="31" y="362" on="1"/>
        <pt x="31" y="379" on="0"/>
        <pt x="43" y="406" on="0"/>
        <pt x="59" y="414" on="1"/>
        <pt x="68" y="418" on="0"/>
        <pt x="85" y="444" on="0"/>
        <pt x="97" y="474" on="0"/>
        <pt x="105" y="504" on="0"/>
        <pt x="105" y="513" on="1"/>
        <pt x="105" y="551" on="0"/>
        <pt x="88" y="626" on="0"/>
        <pt x="88" y="664" on="1"/>
        <pt x="88" y="691" on="0"/>
        <pt x="104" y="743" on="0"/>
        <pt x="136" y="782" on="0"/>
        <pt x="181" y="806" on="0"/>
        <pt x="211" y="806" on="1"/>
        <pt x="242" y="806" on="0"/>
        <pt x="284" y="777" on="0"/>
        <pt x="284" y="743" on="1"/>
        <pt x="284" y="717" on="0"/>
        <pt x="251" y="682" on="0"/>
        <pt x="227" y="673" on="1"/>
        <pt x="213" y="668" on="0"/>
        <pt x="206" y="643" on="0"/>
        <pt x="206" y="629" on="1"/>
        <pt x="206" y="603" on="0"/>
        <pt x="218" y="550" on="0"/>
        <pt x="218" y="524" on="1"/>
        <pt x="218" y="509" on="0"/>
        <pt x="212" y="463" on="0"/>
        <pt x="198" y="416" on="0"/>
        <pt x="177" y="378" on="0"/>
        <pt x="161" y="370" on="1"/>
        <pt x="175" y="365" on="0"/>
        <pt x="204" y="344" on="0"/>
        <pt x="227" y="316" on="0"/>
        <pt x="241" y="283" on="0"/>
        <pt x="241" y="268" on="1"/>
        <pt x="241" y="250" on="0"/>
        <pt x="232" y="211" on="0"/>
        <pt x="220" y="172" on="0"/>
        <pt x="211" y="130" on="0"/>
        <pt x="211" y="109" on="1"/>
        <pt x="211" y="89" on="0"/>
        <pt x="231" y="58" on="0"/>
        <pt x="254" y="58" on="1"/>
        <pt x="272" y="58" on="0"/>
        <pt x="298" y="25" on="0"/>
      </contour>
    </TTGlyph>
    <TTGlyph name="braceright" xMin="0" yMin="-67" xMax="262" yMax="799">
      <contour>
        <pt x="262" y="366" on="1"/>
        <pt x="262" y="349" on="0"/>
        <pt x="250" y="322" on="0"/>
        <pt x="233" y="314" on="1"/>
        <pt x="224" y="309" on="0"/>
        <pt x="209" y="288" on="0"/>
        <pt x="198" y="262" on="0"/>
        <pt x="191" y="235" on="0"/>
        <pt x="191" y="226" on="1"/>
        <pt x="191" y="188" on="0"/>
        <pt x="209" y="113" on="0"/>
        <pt x="209" y="75" on="1"/>
        <pt x="209" y="48" on="0"/>
        <pt x="193" y="-4" on="0"/>
        <pt x="162" y="-43" on="0"/>
        <pt x="117" y="-67" on="0"/>
        <pt x="87" y="-67" on="1"/>
        <pt x="56" y="-67" on="0"/>
        <pt x="14" y="-38" on="0"/>
        <pt x="14" y="-4" on="1"/>
        <pt x="14" y="23" on="0"/>
        <pt x="46" y="57" on="0"/>
        <pt x="70" y="67" on="1"/>
        <pt x="84" y="72" on="0"/>
        <pt x="92" y="97" on="0"/>
        <pt x="92" y="111" on="1"/>
        <pt x="92" y="137" on="0"/>
        <pt x="79" y="190" on="0"/>
        <pt x="79" y="217" on="1"/>
        <pt x="79" y="232" on="0"/>
        <pt x="84" y="274" on="0"/>
        <pt x="96" y="316" on="0"/>
        <pt x="117" y="350" on="0"/>
        <pt x="132" y="358" on="1"/>
        <pt x="118" y="362" on="0"/>
        <pt x="92" y="388" on="0"/>
        <pt x="70" y="421" on="0"/>
        <pt x="57" y="457" on="0"/>
        <pt x="57" y="471" on="1"/>
        <pt x="57" y="489" on="0"/>
        <pt x="66" y="528" on="0"/>
        <pt x="78" y="568" on="0"/>
        <pt x="87" y="609" on="0"/>
        <pt x="87" y="631" on="1"/>
        <pt x="87" y="650" on="0"/>
        <pt x="67" y="681" on="0"/>
        <pt x="44" y="681" on="1"/>
        <pt x="26" y="681" on="0"/>
        <pt x="0" y="714" on="0"/>
        <pt x="0" y="731" on="1"/>
        <pt x="0" y="750" on="0"/>
        <pt x="17" y="776" on="0"/>
        <pt x="44" y="792" on="0"/>
        <pt x="77" y="799" on="0"/>
        <pt x="93" y="799" on="1"/>
        <pt x="156" y="799" on="0"/>
        <pt x="210" y="725" on="0"/>
        <pt x="210" y="666" on="1"/>
        <pt x="210" y="628" on="0"/>
        <pt x="191" y="564" on="0"/>
        <pt x="191" y="531" on="1"/>
        <pt x="191" y="493" on="0"/>
        <pt x="217" y="444" on="0"/>
        <pt x="243" y="419" on="1"/>
        <pt x="253" y="409" on="0"/>
        <pt x="262" y="380" on="0"/>
      </contour>
    </TTGlyph>
    <TTGlyph name="bracketleft" xMin="41" yMin="-51" xMax="263" yMax="794">
      <contour>
        <pt x="263" y="5" on="1"/>
        <pt x="263" y="-12" on="0"/>
        <pt x="235" y="-33" on="0"/>
        <pt x="196" y="-46" on="0"/>
        <pt x="157" y="-51" on="0"/>
        <pt x="145" y="-51" on="1"/>
        <pt x="137" y="-51" on="0"/>
        <pt x="116" y="-49" on="0"/>
        <pt x="97" y="-44" on="0"/>
        <pt x="80" y="-34" on="0"/>
        <pt x="76" y="-26" on="1"/>
        <pt x="70" y="-16" on="0"/>
        <pt x="61" y="63" on="0"/>
        <pt x="53" y="175" on="0"/>
        <pt x="47" y="304" on="0"/>
        <pt x="43" y="423" on="0"/>
        <pt x="41" y="519" on="0"/>
        <pt x="41" y="541" on="1"/>
        <pt x="41" y="548" on="0"/>
        <pt x="41" y="588" on="0"/>
        <pt x="42" y="638" on="0"/>
        <pt x="45" y="694" on="0"/>
        <pt x="50" y="742" on="0"/>
        <pt x="57" y="776" on="0"/>
        <pt x="62" y="780" on="1"/>
        <pt x="74" y="788" on="0"/>
        <pt x="113" y="794" on="0"/>
        <pt x="127" y="794" on="1"/>
        <pt x="140" y="794" on="0"/>
        <pt x="179" y="789" on="0"/>
        <pt x="215" y="776" on="0"/>
        <pt x="240" y="752" on="0"/>
        <pt x="240" y="734" on="1"/>
        <pt x="240" y="720" on="0"/>
        <pt x="226" y="699" on="0"/>
        <pt x="205" y="685" on="0"/>
        <pt x="179" y="678" on="0"/>
        <pt x="167" y="678" on="1"/>
        <pt x="159" y="678" on="0"/>
        <pt x="155" y="679" on="1"/>
        <pt x="156" y="603" on="0"/>
        <pt x="158" y="451" on="0"/>
        <pt x="158" y="376" on="1"/>
        <pt x="158" y="299" on="0"/>
        <pt x="165" y="148" on="0"/>
        <pt x="168" y="73" on="1"/>
        <pt x="195" y="72" on="0"/>
        <pt x="244" y="51" on="0"/>
        <pt x="257" y="27" on="1"/>
        <pt x="259" y="23" on="0"/>
        <pt x="263" y="9" on="0"/>
      </contour>
    </TTGlyph>
    <TTGlyph name="bracketright" xMin="10" yMin="-47" xMax="217" yMax="802">
      <contour>
        <pt x="217" y="208" on="1"/>
        <pt x="217" y="200" on="0"/>
        <pt x="217" y="161" on="0"/>
        <pt x="216" y="109" on="0"/>
        <pt x="213" y="53" on="0"/>
        <pt x="208" y="5" on="0"/>
        <pt x="201" y="-30" on="0"/>
        <pt x="196" y="-34" on="1"/>
        <pt x="184" y="-42" on="0"/>
        <pt x="145" y="-47" on="0"/>
        <pt x="131" y="-47" on="1"/>
        <pt x="117" y="-47" on="0"/>
        <pt x="79" y="-42" on="0"/>
        <pt x="43" y="-29" on="0"/>
        <pt x="18" y="-6" on="0"/>
        <pt x="18" y="13" on="1"/>
        <pt x="18" y="27" on="0"/>
        <pt x="32" y="48" on="0"/>
        <pt x="53" y="62" on="0"/>
        <pt x="79" y="69" on="0"/>
        <pt x="91" y="69" on="1"/>
        <pt x="103" y="69" on="1"/>
        <pt x="101" y="145" on="0"/>
        <pt x="99" y="296" on="0"/>
        <pt x="99" y="372" on="1"/>
        <pt x="99" y="527" on="0"/>
        <pt x="102" y="682" on="1"/>
        <pt x="87" y="682" on="0"/>
        <pt x="54" y="688" on="0"/>
        <pt x="27" y="701" on="0"/>
        <pt x="10" y="725" on="0"/>
        <pt x="10" y="743" on="1"/>
        <pt x="10" y="759" on="0"/>
        <pt x="32" y="782" on="0"/>
        <pt x="63" y="796" on="0"/>
        <pt x="97" y="802" on="0"/>
        <pt x="109" y="802" on="1"/>
        <pt x="127" y="802" on="0"/>
        <pt x="173" y="791" on="0"/>
        <pt x="182" y="773" on="1"/>
        <pt x="187" y="762" on="0"/>
        <pt x="197" y="683" on="0"/>
        <pt x="205" y="573" on="0"/>
        <pt x="211" y="446" on="0"/>
        <pt x="215" y="328" on="0"/>
        <pt x="217" y="231" on="0"/>
      </contour>
    </TTGlyph>
    <TTGlyph name="breve" xMin="31" yMin="611" xMax="278" yMax="757">
      <contour>
        <pt x="278" y="739" on="1"/>
        <pt x="278" y="728" on="0"/>
        <pt x="272" y="707" on="0"/>
        <pt x="267" y="697" on="1"/>
        <pt x="252" y="663" on="0"/>
        <pt x="193" y="611" on="0"/>
        <pt x="155" y="611" on="1"/>
        <pt x="117" y="611" on="0"/>
        <pt x="57" y="660" on="0"/>
        <pt x="42" y="692" on="1"/>
        <pt x="37" y="702" on="0"/>
        <pt x="31" y="723" on="0"/>
        <pt x="31" y="734" on="1"/>
        <pt x="31" y="741" on="0"/>
        <pt x="37" y="754" on="0"/>
        <pt x="45" y="754" on="1"/>
        <pt x="55" y="754" on="0"/>
        <pt x="81" y="735" on="0"/>
        <pt x="110" y="713" on="0"/>
        <pt x="139" y="694" on="0"/>
        <pt x="153" y="694" on="1"/>
        <pt x="166" y="694" on="0"/>
        <pt x="196" y="714" on="0"/>
        <pt x="225" y="737" on="0"/>
        <pt x="252" y="757" on="0"/>
        <pt x="263" y="757" on="1"/>
        <pt x="278" y="757" on="0"/>
      </contour>
    </TTGlyph>
    <TTGlyph name="brokenbar" xMin="51" yMin="-31" xMax="164" yMax="770">
      <contour>
        <pt x="163" y="585" on="1"/>
        <pt x="163" y="577" on="0"/>
        <pt x="161" y="540" on="0"/>
        <pt x="158" y="500" on="0"/>
        <pt x="154" y="465" on="0"/>
        <pt x="152" y="459" on="1"/>
        <pt x="148" y="451" on="0"/>
        <pt x="115" y="445" on="0"/>
        <pt x="108" y="445" on="1"/>
        <pt x="99" y="445" on="0"/>
        <pt x="77" y="449" on="0"/>
        <pt x="73" y="458" on="1"/>
        <pt x="69" y="465" on="0"/>
        <pt x="61" y="510" on="0"/>
        <pt x="55" y="561" on="0"/>
        <pt x="51" y="607" on="0"/>
        <pt x="51" y="616" on="1"/>
        <pt x="51" y="625" on="0"/>
        <pt x="53" y="665" on="0"/>
        <pt x="56" y="709" on="0"/>
        <pt x="60" y="747" on="0"/>
        <pt x="62" y="755" on="1"/>
        <pt x="66" y="765" on="0"/>
        <pt x="95" y="770" on="0"/>
        <pt x="103" y="770" on="1"/>
        <pt x="112" y="770" on="0"/>
        <pt x="140" y="765" on="0"/>
        <pt x="144" y="757" on="1"/>
        <pt x="146" y="752" on="0"/>
        <pt x="153" y="703" on="0"/>
        <pt x="159" y="645" on="0"/>
        <pt x="163" y="593" on="0"/>
      </contour>
      <contour>
        <pt x="164" y="121" on="1"/>
        <pt x="164" y="113" on="0"/>
        <pt x="162" y="73" on="0"/>
        <pt x="159" y="28" on="0"/>
        <pt x="155" y="-10" on="0"/>
        <pt x="153" y="-16" on="1"/>
        <pt x="151" y="-21" on="0"/>
        <pt x="140" y="-26" on="0"/>
        <pt x="126" y="-30" on="0"/>
        <pt x="112" y="-31" on="0"/>
        <pt x="108" y="-31" on="1"/>
        <pt x="100" y="-31" on="0"/>
        <pt x="78" y="-26" on="0"/>
        <pt x="74" y="-17" on="1"/>
        <pt x="70" y="-10" on="0"/>
        <pt x="62" y="39" on="0"/>
        <pt x="56" y="94" on="0"/>
        <pt x="52" y="145" on="0"/>
        <pt x="52" y="155" on="1"/>
        <pt x="52" y="165" on="0"/>
        <pt x="54" y="208" on="0"/>
        <pt x="57" y="254" on="0"/>
        <pt x="61" y="296" on="0"/>
        <pt x="63" y="304" on="1"/>
        <pt x="66" y="315" on="0"/>
        <pt x="95" y="319" on="0"/>
        <pt x="104" y="319" on="1"/>
        <pt x="113" y="319" on="0"/>
        <pt x="141" y="314" on="0"/>
        <pt x="145" y="305" on="1"/>
        <pt x="147" y="300" on="0"/>
        <pt x="154" y="248" on="0"/>
        <pt x="160" y="185" on="0"/>
        <pt x="164" y="129" on="0"/>
      </contour>
    </TTGlyph>
    <TTGlyph name="bullet" xMin="20" yMin="291" xMax="187" yMax="464">
      <contour>
        <pt x="187" y="373" on="1"/>
        <pt x="187" y="336" on="0"/>
        <pt x="142" y="291" on="0"/>
        <pt x="105" y="291" on="1"/>
        <pt x="69" y="291" on="0"/>
        <pt x="20" y="335" on="0"/>
        <pt x="20" y="372" on="1"/>
        <pt x="20" y="408" on="0"/>
        <pt x="64" y="464" on="0"/>
        <pt x="103" y="464" on="1"/>
        <pt x="141" y="464" on="0"/>
        <pt x="187" y="410" on="0"/>
      </contour>
    </TTGlyph>
    <TTGlyph name="c" xMin="10" yMin="-25" xMax="402" yMax="594">
      <contour>
        <pt x="401" y="384" on="1"/>
        <pt x="401" y="379" on="0"/>
        <pt x="399" y="368" on="0"/>
        <pt x="397" y="363" on="1"/>
        <pt x="388" y="340" on="0"/>
        <pt x="350" y="309" on="0"/>
        <pt x="324" y="309" on="1"/>
        <pt x="285" y="309" on="0"/>
        <pt x="271" y="348" on="1"/>
        <pt x="269" y="353" on="0"/>
        <pt x="269" y="366" on="0"/>
        <pt x="268" y="373" on="1"/>
        <pt x="268" y="402" on="1"/>
        <pt x="266" y="416" on="0"/>
        <pt x="256" y="432" on="0"/>
        <pt x="244" y="432" on="1"/>
        <pt x="227" y="432" on="0"/>
        <pt x="196" y="389" on="0"/>
        <pt x="173" y="330" on="0"/>
        <pt x="159" y="268" on="0"/>
        <pt x="159" y="249" on="1"/>
        <pt x="159" y="234" on="0"/>
        <pt x="163" y="191" on="0"/>
        <pt x="175" y="151" on="0"/>
        <pt x="196" y="122" on="0"/>
        <pt x="213" y="122" on="1"/>
        <pt x="230" y="122" on="0"/>
        <pt x="259" y="143" on="0"/>
        <pt x="273" y="157" on="1"/>
        <pt x="286" y="169" on="0"/>
        <pt x="317" y="195" on="0"/>
        <pt x="337" y="195" on="1"/>
        <pt x="362" y="195" on="0"/>
        <pt x="391" y="159" on="0"/>
        <pt x="391" y="136" on="1"/>
        <pt x="391" y="102" on="0"/>
        <pt x="355" y="43" on="0"/>
        <pt x="301" y="0" on="0"/>
        <pt x="235" y="-25" on="0"/>
        <pt x="205" y="-25" on="1"/>
        <pt x="151" y="-25" on="0"/>
        <pt x="76" y="29" on="0"/>
        <pt x="30" y="112" on="0"/>
        <pt x="10" y="210" on="0"/>
        <pt x="10" y="254" on="1"/>
        <pt x="10" y="305" on="0"/>
        <pt x="38" y="424" on="0"/>
        <pt x="96" y="526" on="0"/>
        <pt x="187" y="594" on="0"/>
        <pt x="250" y="594" on="1"/>
        <pt x="289" y="594" on="0"/>
        <pt x="346" y="560" on="0"/>
        <pt x="383" y="505" on="0"/>
        <pt x="402" y="437" on="0"/>
        <pt x="402" y="404" on="1"/>
        <pt x="402" y="399" on="0"/>
        <pt x="402" y="389" on="0"/>
      </contour>
    </TTGlyph>
    <TTGlyph name="caron" xMin="31" yMin="612" xMax="274" yMax="757">
      <contour>
        <pt x="31" y="741" on="1"/>
        <pt x="31" y="749" on="0"/>
        <pt x="37" y="753" on="0"/>
        <pt x="44" y="753" on="1"/>
        <pt x="56" y="753" on="0"/>
        <pt x="85" y="740" on="0"/>
        <pt x="115" y="722" on="0"/>
        <pt x="142" y="702" on="0"/>
        <pt x="151" y="695" on="1"/>
        <pt x="160" y="703" on="0"/>
        <pt x="187" y="725" on="0"/>
        <pt x="217" y="744" on="0"/>
        <pt x="247" y="757" on="0"/>
        <pt x="260" y="757" on="1"/>
        <pt x="265" y="757" on="0"/>
        <pt x="274" y="753" on="0"/>
        <pt x="274" y="745" on="1"/>
        <pt x="274" y="730" on="0"/>
        <pt x="248" y="685" on="0"/>
        <pt x="210" y="642" on="0"/>
        <pt x="169" y="612" on="0"/>
        <pt x="153" y="612" on="1"/>
        <pt x="137" y="612" on="0"/>
        <pt x="95" y="640" on="0"/>
        <pt x="57" y="681" on="0"/>
        <pt x="31" y="725" on="0"/>
      </contour>
    </TTGlyph>
    <TTGlyph name="ccedilla" xMin="10" yMin="-286" xMax="383" yMax="580">
      <contour>
        <pt x="341" y="-147" on="1"/>
        <pt x="341" y="-176" on="0"/>
        <pt x="313" y="-226" on="0"/>
        <pt x="269" y="-264" on="0"/>
        <pt x="213" y="-286" on="0"/>
        <pt x="186" y="-286" on="1"/>
        <pt x="166" y="-286" on="0"/>
        <pt x="125" y="-279" on="0"/>
        <pt x="90" y="-261" on="0"/>
        <pt x="62" y="-233" on="0"/>
        <pt x="55" y="-212" on="1"/>
        <pt x="52" y="-206" on="0"/>
        <pt x="52" y="-199" on="1"/>
        <pt x="52" y="-183" on="0"/>
        <pt x="77" y="-161" on="0"/>
        <pt x="91" y="-161" on="1"/>
        <pt x="104" y="-161" on="0"/>
        <pt x="121" y="-176" on="0"/>
        <pt x="141" y="-194" on="0"/>
        <pt x="169" y="-209" on="0"/>
        <pt x="193" y="-209" on="1"/>
        <pt x="213" y="-209" on="0"/>
        <pt x="249" y="-183" on="0"/>
        <pt x="249" y="-161" on="1"/>
        <pt x="249" y="-146" on="0"/>
        <pt x="228" y="-126" on="0"/>
        <pt x="200" y="-110" on="0"/>
        <pt x="172" y="-95" on="0"/>
        <pt x="165" y="-85" on="1"/>
        <pt x="157" y="-74" on="0"/>
        <pt x="157" y="-32" on="0"/>
        <pt x="157" y="-18" on="1"/>
        <pt x="157" y="-5" on="1"/>
        <pt x="116" y="4" on="0"/>
        <pt x="60" y="59" on="0"/>
        <pt x="26" y="133" on="0"/>
        <pt x="10" y="217" on="0"/>
        <pt x="10" y="255" on="1"/>
        <pt x="10" y="288" on="0"/>
        <pt x="22" y="362" on="0"/>
        <pt x="46" y="434" on="0"/>
        <pt x="84" y="500" on="0"/>
        <pt x="135" y="550" on="0"/>
        <pt x="200" y="580" on="0"/>
        <pt x="240" y="580" on="1"/>
        <pt x="276" y="580" on="0"/>
        <pt x="330" y="548" on="0"/>
        <pt x="365" y="496" on="0"/>
        <pt x="383" y="432" on="0"/>
        <pt x="383" y="400" on="1"/>
        <pt x="383" y="392" on="0"/>
        <pt x="382" y="370" on="0"/>
        <pt x="379" y="362" on="1"/>
        <pt x="371" y="342" on="0"/>
        <pt x="335" y="313" on="0"/>
        <pt x="312" y="313" on="1"/>
        <pt x="278" y="313" on="0"/>
        <pt x="265" y="347" on="1"/>
        <pt x="262" y="356" on="0"/>
        <pt x="263" y="385" on="0"/>
        <pt x="260" y="412" on="0"/>
        <pt x="248" y="432" on="0"/>
        <pt x="233" y="432" on="1"/>
        <pt x="215" y="432" on="0"/>
        <pt x="183" y="389" on="0"/>
        <pt x="159" y="329" on="0"/>
        <pt x="145" y="268" on="0"/>
        <pt x="145" y="250" on="1"/>
        <pt x="145" y="237" on="0"/>
        <pt x="150" y="194" on="0"/>
        <pt x="163" y="152" on="0"/>
        <pt x="186" y="122" on="0"/>
        <pt x="204" y="122" on="1"/>
        <pt x="222" y="122" on="0"/>
        <pt x="252" y="144" on="0"/>
        <pt x="280" y="171" on="0"/>
        <pt x="308" y="193" on="0"/>
        <pt x="325" y="193" on="1"/>
        <pt x="346" y="193" on="0"/>
        <pt x="373" y="161" on="0"/>
        <pt x="373" y="140" on="1"/>
        <pt x="373" y="114" on="0"/>
        <pt x="349" y="67" on="0"/>
        <pt x="311" y="29" on="0"/>
        <pt x="262" y="1" on="0"/>
        <pt x="237" y="-5" on="1"/>
        <pt x="237" y="-11" on="1"/>
        <pt x="237" y="-17" on="0"/>
        <pt x="236" y="-32" on="0"/>
        <pt x="233" y="-37" on="1"/>
        <pt x="249" y="-43" on="0"/>
        <pt x="287" y="-64" on="0"/>
        <pt x="319" y="-93" on="0"/>
        <pt x="341" y="-128" on="0"/>
      </contour>
    </TTGlyph>
    <TTGlyph name="cedilla" xMin="31" yMin="-286" xMax="319" yMax="71">
      <contour>
        <pt x="319" y="-147" on="1"/>
        <pt x="319" y="-176" on="0"/>
        <pt x="291" y="-226" on="0"/>
        <pt x="247" y="-264" on="0"/>
        <pt x="192" y="-286" on="0"/>
        <pt x="165" y="-286" on="1"/>
        <pt x="145" y="-286" on="0"/>
        <pt x="104" y="-279" on="0"/>
        <pt x="69" y="-261" on="0"/>
        <pt x="41" y="-233" on="0"/>
        <pt x="34" y="-212" on="1"/>
        <pt x="31" y="-206" on="0"/>
        <pt x="31" y="-199" on="1"/>
        <pt x="31" y="-183" on="0"/>
        <pt x="55" y="-161" on="0"/>
        <pt x="70" y="-161" on="1"/>
        <pt x="82" y="-161" on="0"/>
        <pt x="100" y="-176" on="0"/>
        <pt x="120" y="-194" on="0"/>
        <pt x="148" y="-209" on="0"/>
        <pt x="171" y="-209" on="1"/>
        <pt x="191" y="-209" on="0"/>
        <pt x="227" y="-183" on="0"/>
        <pt x="227" y="-161" on="1"/>
        <pt x="227" y="-146" on="0"/>
        <pt x="206" y="-126" on="0"/>
        <pt x="179" y="-110" on="0"/>
        <pt x="150" y="-95" on="0"/>
        <pt x="143" y="-85" on="1"/>
        <pt x="135" y="-74" on="0"/>
        <pt x="135" y="-32" on="0"/>
        <pt x="135" y="-18" on="1"/>
        <pt x="135" y="-7" on="0"/>
        <pt x="135" y="24" on="0"/>
        <pt x="143" y="52" on="0"/>
        <pt x="159" y="71" on="0"/>
        <pt x="176" y="71" on="1"/>
        <pt x="186" y="71" on="0"/>
        <pt x="203" y="62" on="0"/>
        <pt x="206" y="53" on="1"/>
        <pt x="211" y="38" on="0"/>
        <pt x="215" y="4" on="0"/>
        <pt x="215" y="-11" on="1"/>
        <pt x="215" y="-17" on="0"/>
        <pt x="214" y="-32" on="0"/>
        <pt x="212" y="-37" on="1"/>
        <pt x="228" y="-43" on="0"/>
        <pt x="266" y="-64" on="0"/>
        <pt x="298" y="-93" on="0"/>
        <pt x="319" y="-128" on="0"/>
      </contour>
    </TTGlyph>
    <TTGlyph name="cent" xMin="15" yMin="-17" xMax="409" yMax="726">
      <contour>
        <pt x="409" y="449" on="1"/>
        <pt x="409" y="421" on="0"/>
        <pt x="369" y="379" on="0"/>
        <pt x="340" y="379" on="1"/>
        <pt x="323" y="379" on="0"/>
        <pt x="297" y="396" on="0"/>
        <pt x="292" y="413" on="1"/>
        <pt x="289" y="423" on="0"/>
        <pt x="290" y="452" on="0"/>
        <pt x="287" y="479" on="0"/>
        <pt x="274" y="498" on="0"/>
        <pt x="256" y="498" on="1"/>
        <pt x="230" y="498" on="0"/>
        <pt x="187" y="462" on="0"/>
        <pt x="157" y="409" on="0"/>
        <pt x="140" y="351" on="0"/>
        <pt x="140" y="330" on="1"/>
        <pt x="140" y="311" on="0"/>
        <pt x="151" y="261" on="0"/>
        <pt x="174" y="217" on="0"/>
        <pt x="208" y="186" on="0"/>
        <pt x="232" y="186" on="1"/>
        <pt x="250" y="186" on="0"/>
        <pt x="280" y="208" on="0"/>
        <pt x="307" y="235" on="0"/>
        <pt x="335" y="258" on="0"/>
        <pt x="352" y="258" on="1"/>
        <pt x="374" y="258" on="0"/>
        <pt x="399" y="225" on="0"/>
        <pt x="399" y="205" on="1"/>
        <pt x="399" y="178" on="0"/>
        <pt x="368" y="123" on="0"/>
        <pt x="320" y="79" on="0"/>
        <pt x="263" y="52" on="0"/>
        <pt x="237" y="52" on="1"/>
        <pt x="235" y="52" on="0"/>
        <pt x="233" y="41" on="0"/>
        <pt x="233" y="40" on="1"/>
        <pt x="232" y="32" on="0"/>
        <pt x="231" y="11" on="0"/>
        <pt x="227" y="3" on="1"/>
        <pt x="222" y="-8" on="0"/>
        <pt x="199" y="-17" on="0"/>
        <pt x="187" y="-17" on="1"/>
        <pt x="176" y="-17" on="0"/>
        <pt x="152" y="-5" on="0"/>
        <pt x="152" y="9" on="1"/>
        <pt x="152" y="21" on="0"/>
        <pt x="156" y="45" on="0"/>
        <pt x="156" y="58" on="1"/>
        <pt x="156" y="60" on="0"/>
        <pt x="156" y="69" on="0"/>
        <pt x="154" y="71" on="1"/>
        <pt x="84" y="117" on="0"/>
        <pt x="15" y="232" on="0"/>
        <pt x="15" y="321" on="1"/>
        <pt x="15" y="429" on="0"/>
        <pt x="117" y="583" on="0"/>
        <pt x="214" y="632" on="1"/>
        <pt x="215" y="633" on="0"/>
        <pt x="219" y="650" on="0"/>
        <pt x="224" y="671" on="0"/>
        <pt x="228" y="691" on="0"/>
        <pt x="229" y="694" on="1"/>
        <pt x="242" y="726" on="0"/>
        <pt x="272" y="726" on="1"/>
        <pt x="285" y="726" on="0"/>
        <pt x="306" y="713" on="0"/>
        <pt x="306" y="699" on="1"/>
        <pt x="306" y="685" on="0"/>
        <pt x="297" y="652" on="0"/>
        <pt x="297" y="642" on="1"/>
        <pt x="297" y="641" on="1"/>
        <pt x="327" y="635" on="0"/>
        <pt x="369" y="593" on="0"/>
        <pt x="396" y="538" on="0"/>
        <pt x="409" y="476" on="0"/>
      </contour>
    </TTGlyph>
    <TTGlyph name="circumflex" xMin="31" yMin="612" xMax="274" yMax="757">
      <contour>
        <pt x="274" y="628" on="1"/>
        <pt x="274" y="620" on="0"/>
        <pt x="268" y="616" on="0"/>
        <pt x="261" y="616" on="1"/>
        <pt x="249" y="616" on="0"/>
        <pt x="220" y="628" on="0"/>
        <pt x="191" y="646" on="0"/>
        <pt x="164" y="666" on="0"/>
        <pt x="155" y="674" on="1"/>
        <pt x="145" y="666" on="0"/>
        <pt x="118" y="644" on="0"/>
        <pt x="88" y="625" on="0"/>
        <pt x="58" y="612" on="0"/>
        <pt x="45" y="612" on="1"/>
        <pt x="40" y="612" on="0"/>
        <pt x="31" y="616" on="0"/>
        <pt x="31" y="624" on="1"/>
        <pt x="31" y="639" on="0"/>
        <pt x="57" y="685" on="0"/>
        <pt x="95" y="727" on="0"/>
        <pt x="137" y="757" on="0"/>
        <pt x="153" y="757" on="1"/>
        <pt x="169" y="757" on="0"/>
        <pt x="211" y="728" on="0"/>
        <pt x="248" y="688" on="0"/>
        <pt x="274" y="644" on="0"/>
      </contour>
    </TTGlyph>
    <TTGlyph name="colon" xMin="10" yMin="-8" xMax="175" yMax="366">
      <contour>
        <pt x="175" y="293" on="1"/>
        <pt x="175" y="280" on="0"/>
        <pt x="163" y="259" on="0"/>
        <pt x="144" y="245" on="0"/>
        <pt x="121" y="237" on="0"/>
        <pt x="109" y="237" on="1"/>
        <pt x="94" y="237" on="0"/>
        <pt x="59" y="248" on="0"/>
        <pt x="30" y="267" on="0"/>
        <pt x="10" y="294" on="0"/>
        <pt x="10" y="311" on="1"/>
        <pt x="10" y="339" on="0"/>
        <pt x="56" y="366" on="0"/>
        <pt x="80" y="366" on="1"/>
        <pt x="95" y="366" on="0"/>
        <pt x="128" y="356" on="0"/>
        <pt x="157" y="337" on="0"/>
        <pt x="175" y="310" on="0"/>
      </contour>
      <contour>
        <pt x="175" y="48" on="1"/>
        <pt x="175" y="35" on="0"/>
        <pt x="163" y="14" on="0"/>
        <pt x="144" y="0" on="0"/>
        <pt x="121" y="-8" on="0"/>
        <pt x="109" y="-8" on="1"/>
        <pt x="94" y="-8" on="0"/>
        <pt x="59" y="3" on="0"/>
        <pt x="30" y="23" on="0"/>
        <pt x="10" y="50" on="0"/>
        <pt x="10" y="67" on="1"/>
        <pt x="10" y="94" on="0"/>
        <pt x="56" y="121" on="0"/>
        <pt x="80" y="121" on="1"/>
        <pt x="95" y="121" on="0"/>
        <pt x="128" y="111" on="0"/>
        <pt x="157" y="92" on="0"/>
        <pt x="175" y="65" on="0"/>
      </contour>
    </TTGlyph>
    <TTGlyph name="comma" xMin="10" yMin="-95" xMax="174" yMax="130">
      <contour>
        <pt x="174" y="53" on="1"/>
        <pt x="174" y="37" on="0"/>
        <pt x="157" y="-13" on="0"/>
        <pt x="132" y="-61" on="0"/>
        <pt x="100" y="-95" on="0"/>
        <pt x="85" y="-95" on="1"/>
        <pt x="65" y="-95" on="0"/>
        <pt x="65" y="-75" on="1"/>
        <pt x="65" y="-63" on="0"/>
        <pt x="75" y="-41" on="0"/>
        <pt x="87" y="-20" on="0"/>
        <pt x="97" y="1" on="0"/>
        <pt x="97" y="11" on="1"/>
        <pt x="82" y="1" on="0"/>
        <pt x="65" y="1" on="1"/>
        <pt x="42" y="1" on="0"/>
        <pt x="10" y="37" on="0"/>
        <pt x="10" y="59" on="1"/>
        <pt x="10" y="91" on="0"/>
        <pt x="52" y="130" on="0"/>
        <pt x="84" y="130" on="1"/>
        <pt x="120" y="130" on="0"/>
        <pt x="174" y="92" on="0"/>
      </contour>
    </TTGlyph>
    <TTGlyph name="copyright" xMin="20" yMin="166" xMax="565" yMax="762">
      <contour>
        <pt x="565" y="481" on="1"/>
        <pt x="565" y="422" on="0"/>
        <pt x="522" y="308" on="0"/>
        <pt x="445" y="220" on="0"/>
        <pt x="340" y="166" on="0"/>
        <pt x="278" y="166" on="1"/>
        <pt x="220" y="166" on="0"/>
        <pt x="125" y="212" on="0"/>
        <pt x="57" y="290" on="0"/>
        <pt x="20" y="391" on="0"/>
        <pt x="20" y="446" on="1"/>
        <pt x="20" y="506" on="0"/>
        <pt x="63" y="619" on="0"/>
        <pt x="140" y="708" on="0"/>
        <pt x="246" y="762" on="0"/>
        <pt x="308" y="762" on="1"/>
        <pt x="366" y="762" on="0"/>
        <pt x="460" y="716" on="0"/>
        <pt x="528" y="638" on="0"/>
        <pt x="565" y="536" on="0"/>
      </contour>
      <contour>
        <pt x="497" y="479" on="1"/>
        <pt x="497" y="520" on="0"/>
        <pt x="470" y="596" on="0"/>
        <pt x="419" y="655" on="0"/>
        <pt x="348" y="690" on="0"/>
        <pt x="305" y="690" on="1"/>
        <pt x="258" y="690" on="0"/>
        <pt x="178" y="649" on="0"/>
        <pt x="121" y="582" on="0"/>
        <pt x="89" y="497" on="0"/>
        <pt x="89" y="453" on="1"/>
        <pt x="89" y="412" on="0"/>
        <pt x="117" y="335" on="0"/>
        <pt x="167" y="276" on="0"/>
        <pt x="238" y="241" on="0"/>
        <pt x="282" y="241" on="1"/>
        <pt x="329" y="241" on="0"/>
        <pt x="408" y="282" on="0"/>
        <pt x="465" y="348" on="0"/>
        <pt x="497" y="434" on="0"/>
      </contour>
      <contour>
        <pt x="413" y="540" on="1"/>
        <pt x="413" y="518" on="0"/>
        <pt x="386" y="486" on="0"/>
        <pt x="364" y="486" on="1"/>
        <pt x="334" y="486" on="0"/>
        <pt x="317" y="509" on="0"/>
        <pt x="315" y="538" on="0"/>
        <pt x="313" y="561" on="0"/>
        <pt x="298" y="561" on="1"/>
        <pt x="281" y="561" on="0"/>
        <pt x="259" y="535" on="0"/>
        <pt x="245" y="499" on="0"/>
        <pt x="240" y="461" on="0"/>
        <pt x="240" y="449" on="1"/>
        <pt x="240" y="436" on="0"/>
        <pt x="243" y="410" on="0"/>
        <pt x="252" y="388" on="0"/>
        <pt x="271" y="374" on="0"/>
        <pt x="286" y="374" on="1"/>
        <pt x="309" y="374" on="0"/>
        <pt x="352" y="388" on="0"/>
        <pt x="375" y="388" on="1"/>
        <pt x="386" y="388" on="0"/>
        <pt x="407" y="375" on="0"/>
        <pt x="407" y="362" on="1"/>
        <pt x="407" y="347" on="0"/>
        <pt x="381" y="322" on="0"/>
        <pt x="345" y="304" on="0"/>
        <pt x="306" y="295" on="0"/>
        <pt x="294" y="295" on="1"/>
        <pt x="222" y="295" on="0"/>
        <pt x="142" y="381" on="0"/>
        <pt x="142" y="452" on="1"/>
        <pt x="142" y="487" on="0"/>
        <pt x="167" y="558" on="0"/>
        <pt x="212" y="615" on="0"/>
        <pt x="275" y="650" on="0"/>
        <pt x="313" y="650" on="1"/>
        <pt x="363" y="650" on="0"/>
        <pt x="413" y="586" on="0"/>
      </contour>
    </TTGlyph>
    <TTGlyph name="currency" xMin="-10" yMin="38" xMax="455" yMax="520">
      <contour>
        <pt x="455" y="477" on="1"/>
        <pt x="455" y="449" on="0"/>
        <pt x="426" y="395" on="0"/>
        <pt x="407" y="371" on="1"/>
        <pt x="388" y="345" on="1"/>
        <pt x="396" y="306" on="0"/>
        <pt x="393" y="274" on="1"/>
        <pt x="392" y="229" on="0"/>
        <pt x="376" y="182" on="1"/>
        <pt x="395" y="156" on="0"/>
        <pt x="423" y="102" on="0"/>
        <pt x="423" y="84" on="1"/>
        <pt x="423" y="67" on="0"/>
        <pt x="394" y="38" on="0"/>
        <pt x="371" y="38" on="1"/>
        <pt x="351" y="38" on="0"/>
        <pt x="311" y="58" on="0"/>
        <pt x="291" y="72" on="1"/>
        <pt x="275" y="64" on="0"/>
        <pt x="239" y="54" on="0"/>
        <pt x="218" y="54" on="1"/>
        <pt x="192" y="54" on="0"/>
        <pt x="147" y="71" on="0"/>
        <pt x="128" y="86" on="1"/>
        <pt x="101" y="63" on="0"/>
        <pt x="61" y="44" on="0"/>
        <pt x="39" y="44" on="1"/>
        <pt x="16" y="44" on="0"/>
        <pt x="-10" y="71" on="0"/>
        <pt x="-10" y="89" on="1"/>
        <pt x="-10" y="114" on="0"/>
        <pt x="28" y="183" on="0"/>
        <pt x="56" y="221" on="1"/>
        <pt x="54" y="232" on="0"/>
        <pt x="52" y="256" on="0"/>
        <pt x="52" y="267" on="1"/>
        <pt x="52" y="301" on="0"/>
        <pt x="59" y="332" on="1"/>
        <pt x="37" y="369" on="0"/>
        <pt x="1" y="449" on="0"/>
        <pt x="1" y="475" on="1"/>
        <pt x="1" y="496" on="0"/>
        <pt x="31" y="520" on="0"/>
        <pt x="57" y="520" on="1"/>
        <pt x="81" y="520" on="0"/>
        <pt x="125" y="493" on="0"/>
        <pt x="144" y="472" on="1"/>
        <pt x="181" y="498" on="0"/>
        <pt x="231" y="498" on="1"/>
        <pt x="257" y="498" on="0"/>
        <pt x="298" y="484" on="0"/>
        <pt x="315" y="472" on="1"/>
        <pt x="343" y="497" on="0"/>
        <pt x="386" y="518" on="0"/>
        <pt x="413" y="518" on="1"/>
        <pt x="433" y="518" on="0"/>
        <pt x="455" y="491" on="0"/>
      </contour>
      <contour>
        <pt x="225" y="377" on="1"/>
        <pt x="210" y="377" on="0"/>
        <pt x="187" y="355" on="0"/>
        <pt x="172" y="324" on="0"/>
        <pt x="164" y="288" on="0"/>
        <pt x="164" y="275" on="1"/>
        <pt x="164" y="258" on="0"/>
        <pt x="173" y="221" on="0"/>
        <pt x="189" y="189" on="0"/>
        <pt x="212" y="168" on="0"/>
        <pt x="227" y="168" on="1"/>
        <pt x="243" y="168" on="0"/>
        <pt x="265" y="188" on="0"/>
        <pt x="279" y="220" on="0"/>
        <pt x="285" y="256" on="0"/>
        <pt x="285" y="273" on="1"/>
        <pt x="285" y="289" on="0"/>
        <pt x="277" y="325" on="0"/>
        <pt x="262" y="356" on="0"/>
        <pt x="240" y="377" on="0"/>
      </contour>
    </TTGlyph>
    <TTGlyph name="d" xMin="15" yMin="-12" xMax="461" yMax="801">
      <contour>
        <pt x="461" y="658" on="1"/>
        <pt x="461" y="585" on="0"/>
        <pt x="450" y="441" on="0"/>
        <pt x="450" y="368" on="1"/>
        <pt x="450" y="309" on="0"/>
        <pt x="457" y="193" on="0"/>
        <pt x="457" y="134" on="1"/>
        <pt x="457" y="118" on="0"/>
        <pt x="455" y="73" on="0"/>
        <pt x="444" y="31" on="0"/>
        <pt x="419" y="1" on="0"/>
        <pt x="396" y="1" on="1"/>
        <pt x="366" y="1" on="0"/>
        <pt x="327" y="46" on="0"/>
        <pt x="322" y="74" on="1"/>
        <pt x="303" y="38" on="0"/>
        <pt x="231" y="-12" on="0"/>
        <pt x="189" y="-12" on="1"/>
        <pt x="144" y="-12" on="0"/>
        <pt x="79" y="50" on="0"/>
        <pt x="36" y="138" on="0"/>
        <pt x="15" y="234" on="0"/>
        <pt x="15" y="269" on="1"/>
        <pt x="15" y="294" on="0"/>
        <pt x="21" y="358" on="0"/>
        <pt x="36" y="424" on="0"/>
        <pt x="60" y="487" on="0"/>
        <pt x="97" y="537" on="0"/>
        <pt x="148" y="567" on="0"/>
        <pt x="181" y="567" on="1"/>
        <pt x="217" y="567" on="0"/>
        <pt x="283" y="525" on="0"/>
        <pt x="300" y="494" on="1"/>
        <pt x="309" y="653" on="1"/>
        <pt x="310" y="672" on="0"/>
        <pt x="314" y="723" on="0"/>
        <pt x="327" y="769" on="0"/>
        <pt x="355" y="801" on="0"/>
        <pt x="382" y="801" on="1"/>
        <pt x="411" y="801" on="0"/>
        <pt x="443" y="773" on="0"/>
        <pt x="458" y="730" on="0"/>
        <pt x="461" y="680" on="0"/>
      </contour>
      <contour>
        <pt x="298" y="214" on="1"/>
        <pt x="298" y="237" on="0"/>
        <pt x="296" y="281" on="0"/>
        <pt x="297" y="304" on="1"/>
        <pt x="291" y="317" on="0"/>
        <pt x="275" y="348" on="0"/>
        <pt x="252" y="375" on="0"/>
        <pt x="224" y="393" on="0"/>
        <pt x="208" y="393" on="1"/>
        <pt x="190" y="393" on="0"/>
        <pt x="168" y="371" on="0"/>
        <pt x="158" y="340" on="0"/>
        <pt x="155" y="304" on="0"/>
        <pt x="155" y="291" on="1"/>
        <pt x="155" y="279" on="0"/>
        <pt x="159" y="232" on="0"/>
        <pt x="170" y="184" on="0"/>
        <pt x="190" y="148" on="0"/>
        <pt x="207" y="148" on="1"/>
        <pt x="220" y="148" on="0"/>
        <pt x="246" y="159" on="0"/>
        <pt x="269" y="176" on="0"/>
        <pt x="290" y="197" on="0"/>
        <pt x="298" y="206" on="1"/>
      </contour>
    </TTGlyph>
    <TTGlyph name="degree" xMin="10" yMin="492" xMax="197" yMax="670">
      <contour>
        <pt x="197" y="581" on="1"/>
        <pt x="197" y="562" on="0"/>
        <pt x="182" y="529" on="0"/>
        <pt x="156" y="505" on="0"/>
        <pt x="122" y="492" on="0"/>
        <pt x="103" y="492" on="1"/>
        <pt x="84" y="492" on="0"/>
        <pt x="50" y="505" on="0"/>
        <pt x="25" y="529" on="0"/>
        <pt x="10" y="562" on="0"/>
        <pt x="10" y="581" on="1"/>
        <pt x="10" y="600" on="0"/>
        <pt x="25" y="633" on="0"/>
        <pt x="50" y="657" on="0"/>
        <pt x="84" y="670" on="0"/>
        <pt x="103" y="670" on="1"/>
        <pt x="122" y="670" on="0"/>
        <pt x="156" y="657" on="0"/>
        <pt x="182" y="633" on="0"/>
        <pt x="197" y="600" on="0"/>
      </contour>
      <contour>
        <pt x="156" y="580" on="1"/>
        <pt x="156" y="600" on="0"/>
        <pt x="125" y="628" on="0"/>
        <pt x="105" y="628" on="1"/>
        <pt x="85" y="628" on="0"/>
        <pt x="55" y="600" on="0"/>
        <pt x="55" y="580" on="1"/>
        <pt x="55" y="560" on="0"/>
        <pt x="85" y="532" on="0"/>
        <pt x="105" y="532" on="1"/>
        <pt x="125" y="532" on="0"/>
        <pt x="156" y="560" on="0"/>
      </contour>
    </TTGlyph>
    <TTGlyph name="dieresis" xMin="31" yMin="590" xMax="360" yMax="729">
      <contour>
        <pt x="360" y="658" on="1"/>
        <pt x="360" y="629" on="0"/>
        <pt x="322" y="595" on="0"/>
        <pt x="293" y="595" on="1"/>
        <pt x="265" y="595" on="0"/>
        <pt x="224" y="628" on="0"/>
        <pt x="224" y="657" on="1"/>
        <pt x="224" y="687" on="0"/>
        <pt x="261" y="729" on="0"/>
        <pt x="292" y="729" on="1"/>
        <pt x="322" y="729" on="0"/>
        <pt x="360" y="688" on="0"/>
      </contour>
      <contour>
        <pt x="167" y="653" on="1"/>
        <pt x="167" y="624" on="0"/>
        <pt x="128" y="590" on="0"/>
        <pt x="99" y="590" on="1"/>
        <pt x="71" y="590" on="0"/>
        <pt x="31" y="623" on="0"/>
        <pt x="31" y="652" on="1"/>
        <pt x="31" y="682" on="0"/>
        <pt x="67" y="724" on="0"/>
        <pt x="98" y="724" on="1"/>
        <pt x="128" y="724" on="0"/>
        <pt x="167" y="683" on="0"/>
      </contour>
    </TTGlyph>
    <TTGlyph name="divide" xMin="15" yMin="65" xMax="434" yMax="494">
      <contour>
        <pt x="279" y="436" on="1"/>
        <pt x="279" y="411" on="0"/>
        <pt x="247" y="384" on="0"/>
        <pt x="223" y="384" on="1"/>
        <pt x="200" y="384" on="0"/>
        <pt x="167" y="410" on="0"/>
        <pt x="167" y="435" on="1"/>
        <pt x="167" y="460" on="0"/>
        <pt x="196" y="494" on="0"/>
        <pt x="222" y="494" on="1"/>
        <pt x="247" y="494" on="0"/>
        <pt x="279" y="461" on="0"/>
      </contour>
      <contour>
        <pt x="434" y="266" on="1"/>
        <pt x="434" y="257" on="0"/>
        <pt x="405" y="246" on="0"/>
        <pt x="359" y="238" on="0"/>
        <pt x="304" y="233" on="0"/>
        <pt x="254" y="231" on="0"/>
        <pt x="214" y="230" on="0"/>
        <pt x="206" y="230" on="1"/>
        <pt x="196" y="230" on="0"/>
        <pt x="134" y="231" on="0"/>
        <pt x="67" y="237" on="0"/>
        <pt x="15" y="252" on="0"/>
        <pt x="15" y="266" on="1"/>
        <pt x="15" y="277" on="0"/>
        <pt x="39" y="293" on="0"/>
        <pt x="77" y="303" on="0"/>
        <pt x="123" y="309" on="0"/>
        <pt x="166" y="312" on="0"/>
        <pt x="201" y="313" on="0"/>
        <pt x="209" y="313" on="1"/>
        <pt x="224" y="313" on="0"/>
        <pt x="298" y="310" on="0"/>
        <pt x="375" y="299" on="0"/>
        <pt x="434" y="281" on="0"/>
      </contour>
      <contour>
        <pt x="282" y="117" on="1"/>
        <pt x="282" y="92" on="0"/>
        <pt x="250" y="65" on="0"/>
        <pt x="226" y="65" on="1"/>
        <pt x="204" y="65" on="0"/>
        <pt x="170" y="91" on="0"/>
        <pt x="170" y="116" on="1"/>
        <pt x="170" y="139" on="0"/>
        <pt x="199" y="174" on="0"/>
        <pt x="225" y="174" on="1"/>
        <pt x="250" y="174" on="0"/>
        <pt x="282" y="142" on="0"/>
      </contour>
    </TTGlyph>
    <TTGlyph name="dollar" xMin="26" yMin="-36" xMax="461" yMax="784">
      <contour>
        <pt x="461" y="554" on="1"/>
        <pt x="461" y="540" on="0"/>
        <pt x="446" y="521" on="0"/>
        <pt x="423" y="508" on="0"/>
        <pt x="397" y="502" on="0"/>
        <pt x="386" y="502" on="1"/>
        <pt x="369" y="502" on="0"/>
        <pt x="337" y="513" on="0"/>
        <pt x="304" y="525" on="0"/>
        <pt x="266" y="536" on="0"/>
        <pt x="243" y="536" on="1"/>
        <pt x="234" y="536" on="0"/>
        <pt x="209" y="532" on="0"/>
        <pt x="187" y="522" on="0"/>
        <pt x="172" y="506" on="0"/>
        <pt x="172" y="494" on="1"/>
        <pt x="172" y="476" on="0"/>
        <pt x="214" y="447" on="0"/>
        <pt x="278" y="416" on="0"/>
        <pt x="351" y="379" on="0"/>
        <pt x="415" y="331" on="0"/>
        <pt x="457" y="268" on="0"/>
        <pt x="457" y="225" on="1"/>
        <pt x="457" y="188" on="0"/>
        <pt x="431" y="144" on="0"/>
        <pt x="389" y="117" on="0"/>
        <pt x="335" y="102" on="0"/>
        <pt x="308" y="95" on="1"/>
        <pt x="303" y="94" on="0"/>
        <pt x="302" y="73" on="0"/>
        <pt x="302" y="44" on="0"/>
        <pt x="301" y="11" on="0"/>
        <pt x="291" y="-17" on="0"/>
        <pt x="269" y="-36" on="0"/>
        <pt x="248" y="-36" on="1"/>
        <pt x="229" y="-36" on="0"/>
        <pt x="196" y="-11" on="0"/>
        <pt x="196" y="9" on="1"/>
        <pt x="196" y="17" on="0"/>
        <pt x="197" y="32" on="0"/>
        <pt x="197" y="40" on="1"/>
        <pt x="197" y="43" on="0"/>
        <pt x="197" y="59" on="0"/>
        <pt x="195" y="77" on="0"/>
        <pt x="191" y="91" on="0"/>
        <pt x="188" y="92" on="1"/>
        <pt x="169" y="97" on="0"/>
        <pt x="113" y="109" on="0"/>
        <pt x="62" y="130" on="0"/>
        <pt x="26" y="162" on="0"/>
        <pt x="26" y="187" on="1"/>
        <pt x="26" y="210" on="0"/>
        <pt x="61" y="240" on="0"/>
        <pt x="83" y="240" on="1"/>
        <pt x="102" y="240" on="0"/>
        <pt x="139" y="228" on="0"/>
        <pt x="178" y="214" on="0"/>
        <pt x="219" y="202" on="0"/>
        <pt x="241" y="202" on="1"/>
        <pt x="249" y="202" on="0"/>
        <pt x="273" y="205" on="0"/>
        <pt x="295" y="214" on="0"/>
        <pt x="311" y="229" on="0"/>
        <pt x="311" y="241" on="1"/>
        <pt x="311" y="252" on="0"/>
        <pt x="291" y="270" on="0"/>
        <pt x="264" y="284" on="0"/>
        <pt x="236" y="295" on="0"/>
        <pt x="228" y="298" on="1"/>
        <pt x="196" y="311" on="0"/>
        <pt x="126" y="346" on="0"/>
        <pt x="67" y="393" on="0"/>
        <pt x="28" y="455" on="0"/>
        <pt x="28" y="496" on="1"/>
        <pt x="28" y="532" on="0"/>
        <pt x="57" y="591" on="0"/>
        <pt x="106" y="633" on="0"/>
        <pt x="169" y="658" on="0"/>
        <pt x="204" y="660" on="1"/>
        <pt x="208" y="683" on="0"/>
        <pt x="214" y="730" on="0"/>
        <pt x="220" y="753" on="1"/>
        <pt x="229" y="784" on="0"/>
        <pt x="264" y="784" on="1"/>
        <pt x="278" y="784" on="0"/>
        <pt x="304" y="769" on="0"/>
        <pt x="304" y="754" on="1"/>
        <pt x="304" y="734" on="0"/>
        <pt x="298" y="688" on="0"/>
        <pt x="296" y="668" on="1"/>
        <pt x="317" y="663" on="0"/>
        <pt x="363" y="648" on="0"/>
        <pt x="406" y="627" on="0"/>
        <pt x="443" y="597" on="0"/>
        <pt x="454" y="577" on="1"/>
        <pt x="457" y="571" on="0"/>
        <pt x="461" y="560" on="0"/>
      </contour>
    </TTGlyph>
    <TTGlyph name="dotaccent" xMin="31" yMin="590" xMax="167" yMax="724">
      <contour>
        <pt x="167" y="653" on="1"/>
        <pt x="167" y="624" on="0"/>
        <pt x="128" y="590" on="0"/>
        <pt x="99" y="590" on="1"/>
        <pt x="71" y="590" on="0"/>
        <pt x="31" y="623" on="0"/>
        <pt x="31" y="652" on="1"/>
        <pt x="31" y="682" on="0"/>
        <pt x="67" y="724" on="0"/>
        <pt x="98" y="724" on="1"/>
        <pt x="128" y="724" on="0"/>
        <pt x="167" y="683" on="0"/>
      </contour>
    </TTGlyph>
    <TTGlyph name="dotlessi" xMin="36" yMin="-2" xMax="203" yMax="572">
      <contour>
        <pt x="203" y="358" on="1"/>
        <pt x="203" y="344" on="0"/>
        <pt x="203" y="313" on="0"/>
        <pt x="202" y="299" on="1"/>
        <pt x="201" y="282" on="0"/>
        <pt x="201" y="225" on="0"/>
        <pt x="197" y="159" on="0"/>
        <pt x="188" y="91" on="0"/>
        <pt x="168" y="35" on="0"/>
        <pt x="135" y="0" on="0"/>
        <pt x="110" y="-1" on="1"/>
        <pt x="91" y="-2" on="0"/>
        <pt x="65" y="30" on="0"/>
        <pt x="48" y="81" on="0"/>
        <pt x="40" y="144" on="0"/>
        <pt x="36" y="203" on="0"/>
        <pt x="36" y="253" on="0"/>
        <pt x="36" y="265" on="1"/>
        <pt x="36" y="281" on="0"/>
        <pt x="36" y="340" on="0"/>
        <pt x="40" y="408" on="0"/>
        <pt x="51" y="478" on="0"/>
        <pt x="72" y="536" on="0"/>
        <pt x="106" y="572" on="0"/>
        <pt x="132" y="572" on="1"/>
        <pt x="159" y="572" on="0"/>
        <pt x="187" y="518" on="0"/>
        <pt x="201" y="446" on="0"/>
        <pt x="203" y="375" on="0"/>
      </contour>
    </TTGlyph>
    <TTGlyph name="e" xMin="15" yMin="-3" xMax="449" yMax="602">
      <contour>
        <pt x="449" y="178" on="1"/>
        <pt x="449" y="144" on="0"/>
        <pt x="406" y="79" on="0"/>
        <pt x="341" y="28" on="0"/>
        <pt x="267" y="-3" on="0"/>
        <pt x="236" y="-3" on="1"/>
        <pt x="183" y="-3" on="0"/>
        <pt x="100" y="50" on="0"/>
        <pt x="44" y="132" on="0"/>
        <pt x="15" y="231" on="0"/>
        <pt x="15" y="278" on="1"/>
        <pt x="15" y="328" on="0"/>
        <pt x="43" y="442" on="0"/>
        <pt x="100" y="538" on="0"/>
        <pt x="187" y="602" on="0"/>
        <pt x="247" y="602" on="1"/>
        <pt x="281" y="602" on="0"/>
        <pt x="343" y="579" on="0"/>
        <pt x="389" y="537" on="0"/>
        <pt x="417" y="479" on="0"/>
        <pt x="417" y="443" on="1"/>
        <pt x="417" y="396" on="0"/>
        <pt x="377" y="314" on="0"/>
        <pt x="311" y="254" on="0"/>
        <pt x="225" y="217" on="0"/>
        <pt x="180" y="215" on="1"/>
        <pt x="184" y="186" on="0"/>
        <pt x="223" y="160" on="0"/>
        <pt x="250" y="160" on="1"/>
        <pt x="270" y="160" on="0"/>
        <pt x="308" y="180" on="0"/>
        <pt x="344" y="205" on="0"/>
        <pt x="379" y="225" on="0"/>
        <pt x="397" y="225" on="1"/>
        <pt x="417" y="225" on="0"/>
        <pt x="449" y="199" on="0"/>
      </contour>
      <contour>
        <pt x="287" y="423" on="1"/>
        <pt x="287" y="436" on="0"/>
        <pt x="273" y="464" on="0"/>
        <pt x="258" y="464" on="1"/>
        <pt x="236" y="464" on="0"/>
        <pt x="206" y="441" on="0"/>
        <pt x="186" y="406" on="0"/>
        <pt x="175" y="366" on="0"/>
        <pt x="174" y="349" on="1"/>
        <pt x="188" y="352" on="0"/>
        <pt x="227" y="362" on="0"/>
        <pt x="262" y="379" on="0"/>
        <pt x="287" y="405" on="0"/>
      </contour>
    </TTGlyph>
    <TTGlyph name="eacute" xMin="15" yMin="-3" xMax="449" yMax="816">
      <component glyphName="e" x="0" y="0" flags="0x204"/>
      <component glyphName="acute" x="164" y="41" flags="0x4"/>
    </TTGlyph>
    <TTGlyph name="ecircumflex" xMin="15" yMin="-3" xMax="449" yMax="798">
      <component glyphName="e" x="0" y="0" flags="0x204"/>
      <component glyphName="circumflex" x="102" y="41" flags="0x4"/>
    </TTGlyph>
    <TTGlyph name="edieresis" xMin="15" yMin="-3" xMax="449" yMax="801">
      <component glyphName="e" x="0" y="0" flags="0x204"/>
      <component glyphName="dieresis" x="51" y="72" flags="0x4"/>
    </TTGlyph>
    <TTGlyph name="egrave" xMin="15" yMin="-3" xMax="449" yMax="799">
      <component glyphName="e" x="0" y="0" flags="0x204"/>
      <component glyphName="grave" x="123" y="31" flags="0x4"/>
    </TTGlyph>
    <TTGlyph name="eight" xMin="10" yMin="-53" xMax="586" yMax="736">
      <contour>
        <pt x="586" y="185" on="1"/>
        <pt x="586" y="123" on="0"/>
        <pt x="526" y="33" on="0"/>
        <pt x="433" y="-25" on="0"/>
        <pt x="320" y="-53" on="0"/>
        <pt x="266" y="-53" on="1"/>
        <pt x="226" y="-53" on="0"/>
        <pt x="136" y="-30" on="0"/>
        <pt x="60" y="17" on="0"/>
        <pt x="10" y="89" on="0"/>
        <pt x="10" y="137" on="1"/>
        <pt x="10" y="176" on="0"/>
        <pt x="36" y="245" on="0"/>
        <pt x="81" y="304" on="0"/>
        <pt x="140" y="350" on="0"/>
        <pt x="173" y="367" on="1"/>
        <pt x="148" y="375" on="0"/>
        <pt x="101" y="405" on="0"/>
        <pt x="65" y="445" on="0"/>
        <pt x="43" y="495" on="0"/>
        <pt x="43" y="523" on="1"/>
        <pt x="43" y="578" on="0"/>
        <pt x="102" y="659" on="0"/>
        <pt x="192" y="711" on="0"/>
        <pt x="297" y="736" on="0"/>
        <pt x="343" y="736" on="1"/>
        <pt x="378" y="736" on="0"/>
        <pt x="450" y="720" on="0"/>
        <pt x="509" y="684" on="0"/>
        <pt x="547" y="626" on="0"/>
        <pt x="547" y="585" on="1"/>
        <pt x="547" y="521" on="0"/>
        <pt x="474" y="424" on="0"/>
        <pt x="420" y="394" on="1"/>
        <pt x="455" y="385" on="0"/>
        <pt x="516" y="345" on="0"/>
        <pt x="561" y="290" on="0"/>
        <pt x="586" y="222" on="0"/>
      </contour>
      <contour>
        <pt x="395" y="562" on="1"/>
        <pt x="395" y="574" on="0"/>
        <pt x="380" y="588" on="0"/>
        <pt x="359" y="597" on="0"/>
        <pt x="336" y="600" on="0"/>
        <pt x="328" y="600" on="1"/>
        <pt x="316" y="600" on="0"/>
        <pt x="278" y="594" on="0"/>
        <pt x="242" y="580" on="0"/>
        <pt x="216" y="557" on="0"/>
        <pt x="216" y="541" on="1"/>
        <pt x="216" y="524" on="0"/>
        <pt x="234" y="499" on="0"/>
        <pt x="261" y="481" on="0"/>
        <pt x="292" y="472" on="0"/>
        <pt x="306" y="471" on="1"/>
        <pt x="316" y="477" on="0"/>
        <pt x="346" y="496" on="0"/>
        <pt x="375" y="521" on="0"/>
        <pt x="395" y="548" on="0"/>
      </contour>
      <contour>
        <pt x="422" y="179" on="1"/>
        <pt x="422" y="203" on="0"/>
        <pt x="400" y="242" on="0"/>
        <pt x="365" y="270" on="0"/>
        <pt x="322" y="289" on="0"/>
        <pt x="301" y="293" on="1"/>
        <pt x="281" y="284" on="0"/>
        <pt x="237" y="257" on="0"/>
        <pt x="200" y="221" on="0"/>
        <pt x="176" y="178" on="0"/>
        <pt x="176" y="153" on="1"/>
        <pt x="176" y="135" on="0"/>
        <pt x="202" y="111" on="0"/>
        <pt x="238" y="97" on="0"/>
        <pt x="277" y="91" on="0"/>
        <pt x="290" y="91" on="1"/>
        <pt x="310" y="91" on="0"/>
        <pt x="357" y="100" on="0"/>
        <pt x="396" y="121" on="0"/>
        <pt x="422" y="155" on="0"/>
      </contour>
    </TTGlyph>
    <TTGlyph name="ellipsis" xMin="10" yMin="-8" xMax="626" yMax="121">
      <contour>
        <pt x="175" y="48" on="1"/>
        <pt x="175" y="35" on="0"/>
        <pt x="163" y="14" on="0"/>
        <pt x="144" y="0" on="0"/>
        <pt x="121" y="-8" on="0"/>
        <pt x="109" y="-8" on="1"/>
        <pt x="94" y="-8" on="0"/>
        <pt x="59" y="3" on="0"/>
        <pt x="30" y="23" on="0"/>
        <pt x="10" y="50" on="0"/>
        <pt x="10" y="67" on="1"/>
        <pt x="10" y="94" on="0"/>
        <pt x="56" y="121" on="0"/>
        <pt x="80" y="121" on="1"/>
        <pt x="95" y="121" on="0"/>
        <pt x="128" y="111" on="0"/>
        <pt x="157" y="92" on="0"/>
        <pt x="175" y="65" on="0"/>
      </contour>
      <contour>
        <pt x="400" y="48" on="1"/>
        <pt x="400" y="22" on="0"/>
        <pt x="358" y="-8" on="0"/>
        <pt x="334" y="-8" on="1"/>
        <pt x="319" y="-8" on="0"/>
        <pt x="285" y="3" on="0"/>
        <pt x="255" y="23" on="0"/>
        <pt x="236" y="50" on="0"/>
        <pt x="236" y="67" on="1"/>
        <pt x="236" y="94" on="0"/>
        <pt x="281" y="121" on="0"/>
        <pt x="305" y="121" on="1"/>
        <pt x="320" y="121" on="0"/>
        <pt x="353" y="111" on="0"/>
        <pt x="382" y="92" on="0"/>
        <pt x="400" y="65" on="0"/>
      </contour>
      <contour>
        <pt x="626" y="48" on="1"/>
        <pt x="626" y="22" on="0"/>
        <pt x="583" y="-8" on="0"/>
        <pt x="559" y="-8" on="1"/>
        <pt x="544" y="-8" on="0"/>
        <pt x="510" y="3" on="0"/>
        <pt x="480" y="23" on="0"/>
        <pt x="461" y="50" on="0"/>
        <pt x="461" y="67" on="1"/>
        <pt x="461" y="80" on="0"/>
        <pt x="474" y="101" on="0"/>
        <pt x="494" y="114" on="0"/>
        <pt x="518" y="121" on="0"/>
        <pt x="530" y="121" on="1"/>
        <pt x="545" y="121" on="0"/>
        <pt x="579" y="111" on="0"/>
        <pt x="607" y="92" on="0"/>
        <pt x="626" y="65" on="0"/>
      </contour>
    </TTGlyph>
    <TTGlyph name="emdash" xMin="31" yMin="219" xMax="552" yMax="303">
      <contour>
        <pt x="552" y="255" on="1"/>
        <pt x="552" y="246" on="0"/>
        <pt x="515" y="235" on="0"/>
        <pt x="458" y="227" on="0"/>
        <pt x="389" y="222" on="0"/>
        <pt x="327" y="220" on="0"/>
        <pt x="280" y="219" on="0"/>
        <pt x="272" y="219" on="1"/>
        <pt x="265" y="219" on="0"/>
        <pt x="225" y="219" on="0"/>
        <pt x="171" y="221" on="0"/>
        <pt x="112" y="225" on="0"/>
        <pt x="63" y="233" on="0"/>
        <pt x="31" y="246" on="0"/>
        <pt x="31" y="255" on="1"/>
        <pt x="31" y="266" on="0"/>
        <pt x="65" y="283" on="0"/>
        <pt x="118" y="293" on="0"/>
        <pt x="183" y="299" on="0"/>
        <pt x="243" y="302" on="0"/>
        <pt x="292" y="303" on="0"/>
        <pt x="303" y="303" on="1"/>
        <pt x="313" y="303" on="0"/>
        <pt x="357" y="301" on="0"/>
        <pt x="413" y="296" on="0"/>
        <pt x="472" y="288" on="0"/>
        <pt x="521" y="278" on="0"/>
        <pt x="552" y="264" on="0"/>
      </contour>
    </TTGlyph>
    <TTGlyph name="endash" xMin="31" yMin="219" xMax="490" yMax="303">
      <contour>
        <pt x="490" y="255" on="1"/>
        <pt x="490" y="246" on="0"/>
        <pt x="461" y="235" on="0"/>
        <pt x="415" y="227" on="0"/>
        <pt x="360" y="222" on="0"/>
        <pt x="310" y="220" on="0"/>
        <pt x="270" y="219" on="0"/>
        <pt x="262" y="219" on="1"/>
        <pt x="255" y="219" on="0"/>
        <pt x="216" y="219" on="0"/>
        <pt x="165" y="221" on="0"/>
        <pt x="109" y="225" on="0"/>
        <pt x="62" y="233" on="0"/>
        <pt x="31" y="246" on="0"/>
        <pt x="31" y="255" on="1"/>
        <pt x="31" y="266" on="0"/>
        <pt x="64" y="283" on="0"/>
        <pt x="115" y="293" on="0"/>
        <pt x="176" y="299" on="0"/>
        <pt x="235" y="302" on="0"/>
        <pt x="282" y="303" on="0"/>
        <pt x="293" y="303" on="1"/>
        <pt x="303" y="303" on="0"/>
        <pt x="340" y="301" on="0"/>
        <pt x="383" y="296" on="0"/>
        <pt x="429" y="288" on="0"/>
        <pt x="466" y="278" on="0"/>
        <pt x="490" y="264" on="0"/>
      </contour>
    </TTGlyph>
    <TTGlyph name="equal" xMin="31" yMin="148" xMax="461" yMax="377">
      <contour>
        <pt x="450" y="330" on="1"/>
        <pt x="450" y="321" on="0"/>
        <pt x="420" y="310" on="0"/>
        <pt x="375" y="302" on="0"/>
        <pt x="320" y="297" on="0"/>
        <pt x="269" y="295" on="0"/>
        <pt x="229" y="294" on="0"/>
        <pt x="221" y="294" on="1"/>
        <pt x="214" y="294" on="0"/>
        <pt x="181" y="294" on="0"/>
        <pt x="139" y="296" on="0"/>
        <pt x="93" y="300" on="0"/>
        <pt x="56" y="308" on="0"/>
        <pt x="31" y="320" on="0"/>
        <pt x="31" y="330" on="1"/>
        <pt x="31" y="341" on="0"/>
        <pt x="58" y="357" on="0"/>
        <pt x="99" y="367" on="0"/>
        <pt x="151" y="373" on="0"/>
        <pt x="200" y="376" on="0"/>
        <pt x="241" y="377" on="0"/>
        <pt x="252" y="377" on="1"/>
        <pt x="267" y="377" on="0"/>
        <pt x="332" y="372" on="0"/>
        <pt x="399" y="361" on="0"/>
        <pt x="450" y="343" on="0"/>
      </contour>
      <contour>
        <pt x="461" y="184" on="1"/>
        <pt x="461" y="176" on="0"/>
        <pt x="431" y="164" on="0"/>
        <pt x="386" y="156" on="0"/>
        <pt x="331" y="151" on="0"/>
        <pt x="280" y="149" on="0"/>
        <pt x="240" y="148" on="0"/>
        <pt x="232" y="148" on="1"/>
        <pt x="225" y="148" on="0"/>
        <pt x="192" y="148" on="0"/>
        <pt x="150" y="150" on="0"/>
        <pt x="104" y="154" on="0"/>
        <pt x="67" y="162" on="0"/>
        <pt x="42" y="175" on="0"/>
        <pt x="42" y="184" on="1"/>
        <pt x="42" y="195" on="0"/>
        <pt x="69" y="211" on="0"/>
        <pt x="110" y="221" on="0"/>
        <pt x="162" y="227" on="0"/>
        <pt x="211" y="230" on="0"/>
        <pt x="252" y="231" on="0"/>
        <pt x="263" y="231" on="1"/>
        <pt x="278" y="231" on="0"/>
        <pt x="343" y="226" on="0"/>
        <pt x="410" y="215" on="0"/>
        <pt x="461" y="197" on="0"/>
      </contour>
    </TTGlyph>
    <TTGlyph name="eth" xMin="15" yMin="-12" xMax="527" yMax="801">
      <contour>
        <pt x="208" y="393" on="1"/>
        <pt x="189" y="393" on="0"/>
        <pt x="168" y="371" on="0"/>
        <pt x="157" y="340" on="0"/>
        <pt x="155" y="304" on="0"/>
        <pt x="155" y="291" on="1"/>
        <pt x="155" y="279" on="0"/>
        <pt x="159" y="231" on="0"/>
        <pt x="170" y="184" on="0"/>
        <pt x="190" y="148" on="0"/>
        <pt x="207" y="148" on="1"/>
        <pt x="231" y="148" on="0"/>
        <pt x="267" y="169" on="0"/>
        <pt x="290" y="202" on="0"/>
        <pt x="301" y="244" on="0"/>
        <pt x="301" y="266" on="1"/>
        <pt x="301" y="287" on="0"/>
        <pt x="290" y="332" on="0"/>
        <pt x="267" y="369" on="0"/>
        <pt x="232" y="393" on="0"/>
      </contour>
      <contour>
        <pt x="527" y="644" on="1"/>
        <pt x="527" y="633" on="0"/>
        <pt x="489" y="620" on="0"/>
        <pt x="462" y="615" on="1"/>
        <pt x="462" y="560" on="0"/>
        <pt x="462" y="424" on="0"/>
        <pt x="448" y="285" on="0"/>
        <pt x="418" y="153" on="0"/>
        <pt x="359" y="50" on="0"/>
        <pt x="267" y="-12" on="0"/>
        <pt x="200" y="-12" on="1"/>
        <pt x="155" y="-12" on="0"/>
        <pt x="86" y="50" on="0"/>
        <pt x="39" y="138" on="0"/>
        <pt x="15" y="234" on="0"/>
        <pt x="15" y="269" on="1"/>
        <pt x="15" y="294" on="0"/>
        <pt x="21" y="358" on="0"/>
        <pt x="36" y="424" on="0"/>
        <pt x="60" y="487" on="0"/>
        <pt x="97" y="537" on="0"/>
        <pt x="148" y="567" on="0"/>
        <pt x="181" y="567" on="1"/>
        <pt x="217" y="567" on="0"/>
        <pt x="283" y="525" on="0"/>
        <pt x="300" y="494" on="1"/>
        <pt x="303" y="549" on="0"/>
        <pt x="306" y="608" on="1"/>
        <pt x="288" y="608" on="0"/>
        <pt x="245" y="612" on="0"/>
        <pt x="206" y="619" on="0"/>
        <pt x="180" y="633" on="0"/>
        <pt x="180" y="644" on="1"/>
        <pt x="180" y="656" on="0"/>
        <pt x="205" y="673" on="0"/>
        <pt x="244" y="684" on="0"/>
        <pt x="290" y="690" on="0"/>
        <pt x="311" y="691" on="1"/>
        <pt x="312" y="710" on="0"/>
        <pt x="320" y="749" on="0"/>
        <pt x="335" y="781" on="0"/>
        <pt x="361" y="801" on="0"/>
        <pt x="382" y="801" on="1"/>
        <pt x="407" y="801" on="0"/>
        <pt x="438" y="779" on="0"/>
        <pt x="455" y="744" on="0"/>
        <pt x="461" y="701" on="0"/>
        <pt x="461" y="681" on="1"/>
        <pt x="488" y="675" on="0"/>
        <pt x="527" y="658" on="0"/>
      </contour>
    </TTGlyph>
    <TTGlyph name="exclam" xMin="31" yMin="-28" xMax="218" yMax="767">
      <contour>
        <pt x="217" y="419" on="1"/>
        <pt x="217" y="403" on="0"/>
        <pt x="213" y="348" on="0"/>
        <pt x="205" y="285" on="0"/>
        <pt x="190" y="220" on="0"/>
        <pt x="170" y="167" on="0"/>
        <pt x="142" y="134" on="0"/>
        <pt x="124" y="134" on="1"/>
        <pt x="102" y="134" on="0"/>
        <pt x="71" y="177" on="0"/>
        <pt x="50" y="244" on="0"/>
        <pt x="38" y="326" on="0"/>
        <pt x="32" y="405" on="0"/>
        <pt x="31" y="472" on="0"/>
        <pt x="31" y="490" on="1"/>
        <pt x="31" y="508" on="0"/>
        <pt x="31" y="563" on="0"/>
        <pt x="36" y="625" on="0"/>
        <pt x="47" y="686" on="0"/>
        <pt x="69" y="736" on="0"/>
        <pt x="105" y="767" on="0"/>
        <pt x="132" y="767" on="1"/>
        <pt x="156" y="767" on="0"/>
        <pt x="187" y="726" on="0"/>
        <pt x="206" y="661" on="0"/>
        <pt x="215" y="581" on="0"/>
        <pt x="218" y="504" on="0"/>
        <pt x="217" y="438" on="0"/>
      </contour>
      <contour>
        <pt x="198" y="39" on="1"/>
        <pt x="198" y="22" on="0"/>
        <pt x="182" y="-3" on="0"/>
        <pt x="156" y="-20" on="0"/>
        <pt x="126" y="-28" on="0"/>
        <pt x="111" y="-28" on="1"/>
        <pt x="89" y="-28" on="0"/>
        <pt x="49" y="-5" on="0"/>
        <pt x="49" y="20" on="1"/>
        <pt x="49" y="35" on="0"/>
        <pt x="66" y="60" on="0"/>
        <pt x="92" y="78" on="0"/>
        <pt x="123" y="88" on="0"/>
        <pt x="137" y="88" on="1"/>
        <pt x="160" y="88" on="0"/>
        <pt x="198" y="65" on="0"/>
      </contour>
    </TTGlyph>
    <TTGlyph name="exclamdown" xMin="30" yMin="-34" xMax="219" yMax="761">
      <contour>
        <pt x="203" y="713" on="1"/>
        <pt x="203" y="697" on="0"/>
        <pt x="186" y="672" on="0"/>
        <pt x="160" y="654" on="0"/>
        <pt x="129" y="645" on="0"/>
        <pt x="115" y="645" on="1"/>
        <pt x="93" y="645" on="0"/>
        <pt x="55" y="668" on="0"/>
        <pt x="55" y="694" on="1"/>
        <pt x="55" y="711" on="0"/>
        <pt x="71" y="736" on="0"/>
        <pt x="96" y="753" on="0"/>
        <pt x="127" y="761" on="0"/>
        <pt x="141" y="761" on="1"/>
        <pt x="164" y="761" on="0"/>
        <pt x="203" y="738" on="0"/>
      </contour>
      <contour>
        <pt x="218" y="298" on="1"/>
        <pt x="218" y="279" on="0"/>
        <pt x="219" y="215" on="0"/>
        <pt x="215" y="141" on="0"/>
        <pt x="205" y="65" on="0"/>
        <pt x="182" y="4" on="0"/>
        <pt x="143" y="-34" on="0"/>
        <pt x="113" y="-34" on="1"/>
        <pt x="89" y="-34" on="0"/>
        <pt x="59" y="6" on="0"/>
        <pt x="41" y="68" on="0"/>
        <pt x="33" y="145" on="0"/>
        <pt x="30" y="221" on="0"/>
        <pt x="31" y="285" on="0"/>
        <pt x="31" y="304" on="1"/>
        <pt x="31" y="321" on="0"/>
        <pt x="35" y="377" on="0"/>
        <pt x="44" y="443" on="0"/>
        <pt x="59" y="510" on="0"/>
        <pt x="81" y="565" on="0"/>
        <pt x="110" y="599" on="0"/>
        <pt x="128" y="599" on="1"/>
        <pt x="148" y="599" on="0"/>
        <pt x="176" y="562" on="0"/>
        <pt x="196" y="505" on="0"/>
        <pt x="209" y="435" on="0"/>
        <pt x="216" y="368" on="0"/>
        <pt x="218" y="312" on="0"/>
      </contour>
    </TTGlyph>
    <TTGlyph name="f" xMin="-36" yMin="-11" xMax="449" yMax="785">
      <contour>
        <pt x="449" y="598" on="1"/>
        <pt x="449" y="579" on="0"/>
        <pt x="442" y="544" on="0"/>
        <pt x="424" y="518" on="0"/>
        <pt x="394" y="503" on="0"/>
        <pt x="372" y="503" on="1"/>
        <pt x="347" y="503" on="0"/>
        <pt x="323" y="523" on="0"/>
        <pt x="314" y="552" on="0"/>
        <pt x="314" y="586" on="0"/>
        <pt x="311" y="615" on="0"/>
        <pt x="299" y="635" on="0"/>
        <pt x="283" y="635" on="1"/>
        <pt x="268" y="635" on="0"/>
        <pt x="249" y="589" on="0"/>
        <pt x="237" y="529" on="0"/>
        <pt x="233" y="472" on="0"/>
        <pt x="233" y="462" on="1"/>
        <pt x="246" y="464" on="0"/>
        <pt x="270" y="467" on="0"/>
        <pt x="284" y="467" on="1"/>
        <pt x="298" y="467" on="0"/>
        <pt x="328" y="461" on="0"/>
        <pt x="354" y="448" on="0"/>
        <pt x="370" y="425" on="0"/>
        <pt x="370" y="408" on="1"/>
        <pt x="370" y="390" on="0"/>
        <pt x="339" y="362" on="0"/>
        <pt x="296" y="343" on="0"/>
        <pt x="252" y="331" on="0"/>
        <pt x="239" y="329" on="1"/>
        <pt x="242" y="260" on="0"/>
        <pt x="242" y="190" on="1"/>
        <pt x="242" y="124" on="0"/>
        <pt x="239" y="60" on="1"/>
        <pt x="237" y="29" on="0"/>
        <pt x="198" y="-11" on="0"/>
        <pt x="167" y="-11" on="1"/>
        <pt x="150" y="-11" on="0"/>
        <pt x="126" y="2" on="0"/>
        <pt x="110" y="24" on="0"/>
        <pt x="101" y="52" on="0"/>
        <pt x="100" y="67" on="1"/>
        <pt x="95" y="127" on="0"/>
        <pt x="89" y="248" on="0"/>
        <pt x="90" y="309" on="1"/>
        <pt x="83" y="308" on="0"/>
        <pt x="70" y="308" on="0"/>
        <pt x="63" y="308" on="1"/>
        <pt x="51" y="308" on="0"/>
        <pt x="17" y="314" on="0"/>
        <pt x="-14" y="329" on="0"/>
        <pt x="-36" y="351" on="0"/>
        <pt x="-36" y="368" on="1"/>
        <pt x="-36" y="390" on="0"/>
        <pt x="-7" y="420" on="0"/>
        <pt x="34" y="439" on="0"/>
        <pt x="79" y="447" on="0"/>
        <pt x="96" y="449" on="1"/>
        <pt x="96" y="465" on="1"/>
        <pt x="96" y="514" on="0"/>
        <pt x="114" y="626" on="0"/>
        <pt x="160" y="722" on="0"/>
        <pt x="240" y="785" on="0"/>
        <pt x="302" y="785" on="1"/>
        <pt x="341" y="785" on="0"/>
        <pt x="397" y="752" on="0"/>
        <pt x="433" y="699" on="0"/>
        <pt x="449" y="632" on="0"/>
      </contour>
    </TTGlyph>
    <TTGlyph name="fi" xMin="-36" yMin="-11" xMax="513" yMax="785">
      <contour>
        <pt x="513" y="174" on="1"/>
        <pt x="513" y="155" on="0"/>
        <pt x="512" y="95" on="0"/>
        <pt x="500" y="39" on="0"/>
        <pt x="470" y="-1" on="0"/>
        <pt x="441" y="-1" on="1"/>
        <pt x="420" y="-1" on="0"/>
        <pt x="392" y="34" on="0"/>
        <pt x="373" y="89" on="0"/>
        <pt x="363" y="156" on="0"/>
        <pt x="358" y="220" on="0"/>
        <pt x="357" y="274" on="0"/>
        <pt x="357" y="288" on="1"/>
        <pt x="357" y="317" on="0"/>
        <pt x="360" y="346" on="1"/>
        <pt x="331" y="340" on="0"/>
        <pt x="270" y="332" on="0"/>
        <pt x="239" y="329" on="1"/>
        <pt x="242" y="260" on="0"/>
        <pt x="242" y="190" on="1"/>
        <pt x="242" y="124" on="0"/>
        <pt x="239" y="60" on="1"/>
        <pt x="237" y="29" on="0"/>
        <pt x="198" y="-11" on="0"/>
        <pt x="167" y="-11" on="1"/>
        <pt x="150" y="-11" on="0"/>
        <pt x="125" y="2" on="0"/>
        <pt x="109" y="24" on="0"/>
        <pt x="101" y="52" on="0"/>
        <pt x="100" y="67" on="1"/>
        <pt x="95" y="127" on="0"/>
        <pt x="89" y="248" on="0"/>
        <pt x="90" y="309" on="1"/>
        <pt x="83" y="308" on="0"/>
        <pt x="71" y="308" on="0"/>
        <pt x="63" y="308" on="1"/>
        <pt x="49" y="308" on="0"/>
        <pt x="15" y="314" on="0"/>
        <pt x="-15" y="329" on="0"/>
        <pt x="-36" y="354" on="0"/>
        <pt x="-36" y="372" on="1"/>
        <pt x="-36" y="392" on="0"/>
        <pt x="-7" y="420" on="0"/>
        <pt x="35" y="438" on="0"/>
        <pt x="80" y="447" on="0"/>
        <pt x="96" y="449" on="1"/>
        <pt x="96" y="467" on="1"/>
        <pt x="96" y="516" on="0"/>
        <pt x="114" y="627" on="0"/>
        <pt x="161" y="722" on="0"/>
        <pt x="240" y="785" on="0"/>
        <pt x="302" y="785" on="1"/>
        <pt x="341" y="785" on="0"/>
        <pt x="397" y="752" on="0"/>
        <pt x="433" y="699" on="0"/>
        <pt x="449" y="632" on="0"/>
        <pt x="449" y="598" on="1"/>
        <pt x="449" y="579" on="0"/>
        <pt x="442" y="544" on="0"/>
        <pt x="424" y="518" on="0"/>
        <pt x="395" y="503" on="0"/>
        <pt x="373" y="503" on="1"/>
        <pt x="348" y="503" on="0"/>
        <pt x="324" y="523" on="0"/>
        <pt x="315" y="552" on="0"/>
        <pt x="314" y="586" on="0"/>
        <pt x="311" y="615" on="0"/>
        <pt x="299" y="635" on="0"/>
        <pt x="283" y="635" on="1"/>
        <pt x="268" y="635" on="0"/>
        <pt x="249" y="589" on="0"/>
        <pt x="238" y="529" on="0"/>
        <pt x="233" y="472" on="0"/>
        <pt x="233" y="462" on="1"/>
        <pt x="253" y="464" on="0"/>
        <pt x="294" y="466" on="0"/>
        <pt x="314" y="466" on="1"/>
        <pt x="336" y="466" on="0"/>
        <pt x="390" y="465" on="0"/>
        <pt x="440" y="453" on="0"/>
        <pt x="481" y="426" on="0"/>
        <pt x="492" y="401" on="1"/>
        <pt x="501" y="380" on="0"/>
        <pt x="509" y="321" on="0"/>
        <pt x="513" y="258" on="0"/>
        <pt x="513" y="197" on="0"/>
      </contour>
    </TTGlyph>
    <TTGlyph name="five" xMin="36" yMin="-15" xMax="506" yMax="742">
      <contour>
        <pt x="506" y="234" on="1"/>
        <pt x="506" y="175" on="0"/>
        <pt x="469" y="83" on="0"/>
        <pt x="402" y="19" on="0"/>
        <pt x="309" y="-15" on="0"/>
        <pt x="252" y="-15" on="1"/>
        <pt x="221" y="-15" on="0"/>
        <pt x="146" y="7" on="0"/>
        <pt x="80" y="49" on="0"/>
        <pt x="36" y="108" on="0"/>
        <pt x="36" y="144" on="1"/>
        <pt x="36" y="170" on="0"/>
        <pt x="68" y="202" on="0"/>
        <pt x="94" y="202" on="1"/>
        <pt x="119" y="202" on="0"/>
        <pt x="153" y="182" on="0"/>
        <pt x="186" y="157" on="0"/>
        <pt x="228" y="137" on="0"/>
        <pt x="261" y="137" on="1"/>
        <pt x="301" y="137" on="0"/>
        <pt x="351" y="193" on="0"/>
        <pt x="351" y="232" on="1"/>
        <pt x="351" y="269" on="0"/>
        <pt x="317" y="323" on="0"/>
        <pt x="278" y="323" on="1"/>
        <pt x="260" y="323" on="0"/>
        <pt x="231" y="315" on="0"/>
        <pt x="204" y="305" on="0"/>
        <pt x="177" y="296" on="0"/>
        <pt x="163" y="294" on="1"/>
        <pt x="152" y="292" on="0"/>
        <pt x="118" y="299" on="0"/>
        <pt x="83" y="313" on="0"/>
        <pt x="55" y="332" on="0"/>
        <pt x="51" y="343" on="1"/>
        <pt x="48" y="352" on="0"/>
        <pt x="43" y="412" on="0"/>
        <pt x="40" y="482" on="0"/>
        <pt x="39" y="545" on="0"/>
        <pt x="39" y="557" on="1"/>
        <pt x="39" y="565" on="0"/>
        <pt x="39" y="601" on="0"/>
        <pt x="42" y="640" on="0"/>
        <pt x="46" y="674" on="0"/>
        <pt x="51" y="680" on="1"/>
        <pt x="57" y="689" on="0"/>
        <pt x="104" y="705" on="0"/>
        <pt x="167" y="719" on="0"/>
        <pt x="241" y="730" on="0"/>
        <pt x="308" y="738" on="0"/>
        <pt x="363" y="742" on="0"/>
        <pt x="375" y="742" on="1"/>
        <pt x="389" y="742" on="0"/>
        <pt x="420" y="735" on="0"/>
        <pt x="445" y="720" on="0"/>
        <pt x="461" y="696" on="0"/>
        <pt x="461" y="679" on="1"/>
        <pt x="461" y="652" on="0"/>
        <pt x="423" y="620" on="0"/>
        <pt x="400" y="612" on="1"/>
        <pt x="382" y="606" on="0"/>
        <pt x="330" y="598" on="0"/>
        <pt x="276" y="591" on="0"/>
        <pt x="225" y="587" on="0"/>
        <pt x="206" y="586" on="1"/>
        <pt x="208" y="441" on="1"/>
        <pt x="228" y="445" on="0"/>
        <pt x="268" y="450" on="0"/>
        <pt x="289" y="450" on="1"/>
        <pt x="395" y="450" on="0"/>
        <pt x="506" y="340" on="0"/>
      </contour>
    </TTGlyph>
</ttFont>
